#N canvas 529 319 611 350 10;
#X obj 384 165 r \$0-read;
#X obj 384 195 faust-control \$0;
#X obj 384 225 s \$0-write;
#X obj 43 198 r \$0-in;
#X obj 43 258 s \$0-out;
#X obj 80 60 hsl 128 15 -50 50 0 0 empty empty empty -2 -8 0 10 -262144
-1 -1 9200 1;
#X floatatom 233 106 8 0 0 0 - - -;
#N canvas 0 24 158 175 make-smooth-audio-signal~ 0;
#X obj 19 13 inlet;
#X obj 19 86 line~;
#X msg 19 64 \$1 20;
#X obj 79 66 outlet;
#X obj 19 135 outlet~;
#X obj 19 110 lp2~ 10 0.707 200;
#X obj 19 37 * 0.0006;
#X connect 0 0 6 0;
#X connect 1 0 5 0;
#X connect 2 0 1 0;
#X connect 5 0 4 0;
#X connect 6 0 2 0;
#X connect 6 0 3 0;
#X restore 68 84 pd make-smooth-audio-signal~;
#X text 21 99 dev1;
#X text 24 108 pos;
#X text 285 95 Finger position;
#X text 286 107 m;
#X text 66 45 Position of finger interacting with resonator;
#X obj 137 313 dac~;
#X obj 147 282 *~ 0.1;
#X obj 43 228 bounce_mass_on_membrane~;
#X obj 212 272 metro 20;
#X obj 212 250 tgl 15 0 empty empty empty 17 7 0 10 -262144 -1 -1 1
1;
#X obj 212 226 loadbang;
#X obj 212 295 snapshot~;
#X floatatom 212 318 8 0 0 0 - - -;
#X obj 305 272 metro 20;
#X obj 305 250 tgl 15 0 empty empty empty 17 7 0 10 -262144 -1 -1 1
1;
#X obj 305 226 loadbang;
#X obj 305 295 snapshot~;
#X floatatom 305 318 8 0 0 0 - - -;
#X connect 0 0 1 0;
#X connect 1 0 2 0;
#X connect 3 0 15 0;
#X connect 5 0 7 0;
#X connect 7 0 15 1;
#X connect 7 1 6 0;
#X connect 14 0 13 0;
#X connect 14 0 13 1;
#X connect 15 0 4 0;
#X connect 15 2 14 0;
#X connect 15 2 19 0;
#X connect 15 4 24 0;
#X connect 16 0 19 0;
#X connect 17 0 16 0;
#X connect 18 0 17 0;
#X connect 19 0 20 0;
#X connect 21 0 24 0;
#X connect 22 0 21 0;
#X connect 23 0 22 0;
#X connect 24 0 25 0;
