#N canvas 0 0 450 300 10;
#X obj 70 120 inlet~;
#X obj 10 120 inlet;
#X obj 130 120 r \$0-read;
#X obj 130 150 faust-control \$0;
#X obj 130 180 s \$0-write;
#X obj 10 180 r \$0-in;
#X obj 10 210 forpeterlikeingraphicalspec~;
#X obj 10 240 s \$0-out;
#X obj 70 270 outlet~;
#X obj 130 270 outlet~;
#X obj 190 270 outlet~;
#X obj 10 270 outlet;
#X connect 1 0 3 0;
#X connect 2 0 3 0;
#X connect 3 0 4 0;
#X connect 6 0 7 0;
#X connect 1 0 11 0;
#X connect 5 0 6 0;
#X connect 0 0 6 1;
#X connect 6 1 8 0;
#X connect 6 2 9 0;
#X connect 6 3 10 0;
#X obj 10 30 hsl 128 15 500 4000 0 0 \$0-forpeterlikeingraphicalspec/stiffness \$0-forpeterlikeingraphicalspec/stiffness stiffness -2 -6 0 10 -262144 -1 -1 0 1;
#X obj 160 30 nbx 5 14 500 4000 0 0 \$0-forpeterlikeingraphicalspec/stiffness \$0-forpeterlikeingraphicalspec/stiffness empty 0 -6 0 10 -262144 -1 -1 256;
#X obj 197 3 bng 15 250 50 1 \$0-init \$0-ignore empty 0 -6 0 10 -262144 -1 -1;
#X obj 217 3 tgl 15 1 \$0-active \$0-active empty 0 -6 0 10 -262144 -1 -1 1 1;
#X obj 450 10 r \$0-init;
#X obj 810 10 s \$0-in;
#X obj 990 10 s \$0-read;
#X obj 1170 10 r \$0-write;
#X msg 450 30 1;
#X obj 450 50 s \$0-active;
#X connect 20 0 21 0;
#X obj 810 30 r \$0-active;
#X msg 810 50 active \$1;
#X connect 22 0 23 0;
#X connect 23 0 17 0;
#X obj 1170 30 route active;
#X obj 1170 50 s \$0-active;
#X connect 19 0 24 0;
#X connect 24 0 25 0;
#X msg 450 70 2200;
#X obj 450 90 s \$0-forpeterlikeingraphicalspec/stiffness;
#X connect 16 0 26 0;
#X connect 26 0 27 0;
#X obj 810 70 r \$0-forpeterlikeingraphicalspec/stiffness;
#X msg 810 90 /forpeterlikeingraphicalspec/stiffness \$1;
#X connect 28 0 29 0;
#X connect 29 0 17 0;
#X obj 1170 70 route /forpeterlikeingraphicalspec/stiffness;
#X obj 1170 90 s \$0-forpeterlikeingraphicalspec/stiffness;
#X connect 24 1 30 0;
#X connect 30 0 31 0;
#X coords 0 -1 1 1 235 50 1 0 0;
#X text 0 70 Generated Thu Mar  7 06:27:04 2013 by faust2pd v2.5. See http://faust.grame.fr and http://pure-lang.googlecode.com.;
