#N canvas 0 0 450 300 10;
#X obj 70 450 inlet~;
#X obj 130 450 inlet~;
#X obj 10 450 inlet;
#X obj 190 450 r \$0-read;
#X obj 190 480 faust-control \$0;
#X obj 190 510 s \$0-write;
#X obj 10 510 r \$0-in;
#X obj 10 540 oud~;
#X obj 10 570 s \$0-out;
#X obj 70 600 outlet~;
#X obj 130 600 outlet~;
#X obj 190 600 outlet~;
#X obj 250 600 outlet~;
#X obj 10 600 outlet;
#X connect 2 0 4 0;
#X connect 3 0 4 0;
#X connect 4 0 5 0;
#X connect 7 0 8 0;
#X connect 2 0 13 0;
#X connect 6 0 7 0;
#X connect 0 0 7 1;
#X connect 1 0 7 2;
#X connect 7 1 9 0;
#X connect 7 2 10 0;
#X connect 7 3 11 0;
#X connect 7 4 12 0;
#X obj 10 30 hsl 128 15 0.5 7 0 0 \$0-oud/Bridge-attenuation \$0-oud/Bridge-attenuation Bridge-attenuation -2 -6 0 10 -262144 -1 -1 0 1;
#X obj 160 30 nbx 5 14 0.5 7 0 0 \$0-oud/Bridge-attenuation \$0-oud/Bridge-attenuation empty 0 -6 0 10 -262144 -1 -1 256;
#X obj 10 60 hsl 128 15 1000 44100 0 0 \$0-oud/Bridge-cutoff-freq \$0-oud/Bridge-cutoff-freq Bridge-cutoff-freq -2 -6 0 10 -262144 -1 -1 0 1;
#X obj 160 60 nbx 5 14 1000 44100 0 0 \$0-oud/Bridge-cutoff-freq \$0-oud/Bridge-cutoff-freq empty 0 -6 0 10 -262144 -1 -1 256;
#X obj 10 90 hsl 128 15 0 1 0 0 \$0-oud/Damp \$0-oud/Damp Damp -2 -6 0 10 -262144 -1 -1 0 1;
#X obj 160 90 nbx 5 14 0 1 0 0 \$0-oud/Damp \$0-oud/Damp empty 0 -6 0 10 -262144 -1 -1 256;
#X obj 10 120 hsl 128 15 0.5 7 0 0 \$0-oud/Fret-attenuation \$0-oud/Fret-attenuation Fret-attenuation -2 -6 0 10 -262144 -1 -1 0 1;
#X obj 160 120 nbx 5 14 0.5 7 0 0 \$0-oud/Fret-attenuation \$0-oud/Fret-attenuation empty 0 -6 0 10 -262144 -1 -1 256;
#X obj 10 150 hsl 128 15 1000 44100 0 0 \$0-oud/Fret-cutoff-freq \$0-oud/Fret-cutoff-freq Fret-cutoff-freq -2 -6 0 10 -262144 -1 -1 0 1;
#X obj 160 150 nbx 5 14 1000 44100 0 0 \$0-oud/Fret-cutoff-freq \$0-oud/Fret-cutoff-freq empty 0 -6 0 10 -262144 -1 -1 256;
#X obj 10 180 hsl 128 15 0 2.5 0 0 \$0-oud/Pluck-damping \$0-oud/Pluck-damping Pluck-damping -2 -6 0 10 -262144 -1 -1 0 1;
#X obj 160 180 nbx 5 14 0 2.5 0 0 \$0-oud/Pluck-damping \$0-oud/Pluck-damping empty 0 -6 0 10 -262144 -1 -1 256;
#X obj 10 210 hsl 128 15 0.001 0.01 0 0 \$0-oud/Pluck-half-width \$0-oud/Pluck-half-width Pluck-half-width -2 -6 0 10 -262144 -1 -1 0 1;
#X obj 160 210 nbx 5 14 0.001 0.01 0 0 \$0-oud/Pluck-half-width \$0-oud/Pluck-half-width empty 0 -6 0 10 -262144 -1 -1 256;
#X obj 10 240 hsl 128 15 0.01 0.99 0 0 \$0-oud/Pluck-position-along-length \$0-oud/Pluck-position-along-length Pluck-position-along-length -2 -6 0 10 -262144 -1 -1 0 1;
#X obj 160 240 nbx 5 14 0.01 0.99 0 0 \$0-oud/Pluck-position-along-length \$0-oud/Pluck-position-along-length empty 0 -6 0 10 -262144 -1 -1 256;
#X obj 10 270 hsl 128 15 50 1000 0 0 \$0-oud/Pluck-stiffness \$0-oud/Pluck-stiffness Pluck-stiffness -2 -6 0 10 -262144 -1 -1 0 1;
#X obj 160 270 nbx 5 14 50 1000 0 0 \$0-oud/Pluck-stiffness \$0-oud/Pluck-stiffness empty 0 -6 0 10 -262144 -1 -1 256;
#X obj 10 300 hsl 128 15 0 1 0 0 \$0-oud/RoomSize \$0-oud/RoomSize RoomSize -2 -6 0 10 -262144 -1 -1 0 1;
#X obj 160 300 nbx 5 14 0 1 0 0 \$0-oud/RoomSize \$0-oud/RoomSize empty 0 -6 0 10 -262144 -1 -1 256;
#X obj 10 330 hsl 128 15 0 1 0 0 \$0-oud/Wet \$0-oud/Wet Wet -2 -6 0 10 -262144 -1 -1 0 1;
#X obj 160 330 nbx 5 14 0 1 0 0 \$0-oud/Wet \$0-oud/Wet empty 0 -6 0 10 -262144 -1 -1 256;
#X obj 10 360 hsl 128 15 0.01 1 0 0 \$0-oud/Z-Volume \$0-oud/Z-Volume Z-Volume -2 -6 0 10 -262144 -1 -1 0 1;
#X obj 160 360 nbx 5 14 0.01 1 0 0 \$0-oud/Z-Volume \$0-oud/Z-Volume empty 0 -6 0 10 -262144 -1 -1 256;
#X obj 197 3 bng 15 250 50 1 \$0-init \$0-ignore empty 0 -6 0 10 -262144 -1 -1;
#X obj 217 3 tgl 15 1 \$0-active \$0-active empty 0 -6 0 10 -262144 -1 -1 1 1;
#X obj 450 10 r \$0-init;
#X obj 762 10 s \$0-in;
#X obj 918 10 s \$0-read;
#X obj 1074 10 r \$0-write;
#X msg 450 30 1;
#X obj 450 50 s \$0-active;
#X connect 44 0 45 0;
#X obj 762 30 r \$0-active;
#X msg 762 50 active \$1;
#X connect 46 0 47 0;
#X connect 47 0 41 0;
#X obj 1074 30 route active;
#X obj 1074 50 s \$0-active;
#X connect 43 0 48 0;
#X connect 48 0 49 0;
#X msg 450 70 2.5;
#X obj 450 90 s \$0-oud/Bridge-attenuation;
#X connect 40 0 50 0;
#X connect 50 0 51 0;
#X obj 762 70 r \$0-oud/Bridge-attenuation;
#X msg 762 90 /oud/Bridge-attenuation \$1;
#X connect 52 0 53 0;
#X connect 53 0 41 0;
#X obj 1074 70 route /oud/Bridge-attenuation;
#X obj 1074 90 s \$0-oud/Bridge-attenuation;
#X connect 48 1 54 0;
#X connect 54 0 55 0;
#X msg 450 110 5000;
#X obj 450 130 s \$0-oud/Bridge-cutoff-freq;
#X connect 40 0 56 0;
#X connect 56 0 57 0;
#X obj 762 110 r \$0-oud/Bridge-cutoff-freq;
#X msg 762 130 /oud/Bridge-cutoff-freq \$1;
#X connect 58 0 59 0;
#X connect 59 0 41 0;
#X obj 1074 110 route /oud/Bridge-cutoff-freq;
#X obj 1074 130 s \$0-oud/Bridge-cutoff-freq;
#X connect 54 1 60 0;
#X connect 60 0 61 0;
#X msg 450 150 0.5;
#X obj 450 170 s \$0-oud/Damp;
#X connect 40 0 62 0;
#X connect 62 0 63 0;
#X obj 762 150 r \$0-oud/Damp;
#X msg 762 170 /oud/Damp \$1;
#X connect 64 0 65 0;
#X connect 65 0 41 0;
#X obj 1074 150 route /oud/Damp;
#X obj 1074 170 s \$0-oud/Damp;
#X connect 60 1 66 0;
#X connect 66 0 67 0;
#X msg 450 190 2.5;
#X obj 450 210 s \$0-oud/Fret-attenuation;
#X connect 40 0 68 0;
#X connect 68 0 69 0;
#X obj 762 190 r \$0-oud/Fret-attenuation;
#X msg 762 210 /oud/Fret-attenuation \$1;
#X connect 70 0 71 0;
#X connect 71 0 41 0;
#X obj 1074 190 route /oud/Fret-attenuation;
#X obj 1074 210 s \$0-oud/Fret-attenuation;
#X connect 66 1 72 0;
#X connect 72 0 73 0;
#X msg 450 230 5000;
#X obj 450 250 s \$0-oud/Fret-cutoff-freq;
#X connect 40 0 74 0;
#X connect 74 0 75 0;
#X obj 762 230 r \$0-oud/Fret-cutoff-freq;
#X msg 762 250 /oud/Fret-cutoff-freq \$1;
#X connect 76 0 77 0;
#X connect 77 0 41 0;
#X obj 1074 230 route /oud/Fret-cutoff-freq;
#X obj 1074 250 s \$0-oud/Fret-cutoff-freq;
#X connect 72 1 78 0;
#X connect 78 0 79 0;
#X msg 450 270 0.1;
#X obj 450 290 s \$0-oud/Pluck-damping;
#X connect 40 0 80 0;
#X connect 80 0 81 0;
#X obj 762 270 r \$0-oud/Pluck-damping;
#X msg 762 290 /oud/Pluck-damping \$1;
#X connect 82 0 83 0;
#X connect 83 0 41 0;
#X obj 1074 270 route /oud/Pluck-damping;
#X obj 1074 290 s \$0-oud/Pluck-damping;
#X connect 78 1 84 0;
#X connect 84 0 85 0;
#X msg 450 310 0.006;
#X obj 450 330 s \$0-oud/Pluck-half-width;
#X connect 40 0 86 0;
#X connect 86 0 87 0;
#X obj 762 310 r \$0-oud/Pluck-half-width;
#X msg 762 330 /oud/Pluck-half-width \$1;
#X connect 88 0 89 0;
#X connect 89 0 41 0;
#X obj 1074 310 route /oud/Pluck-half-width;
#X obj 1074 330 s \$0-oud/Pluck-half-width;
#X connect 84 1 90 0;
#X connect 90 0 91 0;
#X msg 450 350 0.29;
#X obj 450 370 s \$0-oud/Pluck-position-along-length;
#X connect 40 0 92 0;
#X connect 92 0 93 0;
#X obj 762 350 r \$0-oud/Pluck-position-along-length;
#X msg 762 370 /oud/Pluck-position-along-length \$1;
#X connect 94 0 95 0;
#X connect 95 0 41 0;
#X obj 1074 350 route /oud/Pluck-position-along-length;
#X obj 1074 370 s \$0-oud/Pluck-position-along-length;
#X connect 90 1 96 0;
#X connect 96 0 97 0;
#X msg 450 390 250;
#X obj 450 410 s \$0-oud/Pluck-stiffness;
#X connect 40 0 98 0;
#X connect 98 0 99 0;
#X obj 762 390 r \$0-oud/Pluck-stiffness;
#X msg 762 410 /oud/Pluck-stiffness \$1;
#X connect 100 0 101 0;
#X connect 101 0 41 0;
#X obj 1074 390 route /oud/Pluck-stiffness;
#X obj 1074 410 s \$0-oud/Pluck-stiffness;
#X connect 96 1 102 0;
#X connect 102 0 103 0;
#X msg 450 430 0.5;
#X obj 450 450 s \$0-oud/RoomSize;
#X connect 40 0 104 0;
#X connect 104 0 105 0;
#X obj 762 430 r \$0-oud/RoomSize;
#X msg 762 450 /oud/RoomSize \$1;
#X connect 106 0 107 0;
#X connect 107 0 41 0;
#X obj 1074 430 route /oud/RoomSize;
#X obj 1074 450 s \$0-oud/RoomSize;
#X connect 102 1 108 0;
#X connect 108 0 109 0;
#X msg 450 470 0.3333;
#X obj 450 490 s \$0-oud/Wet;
#X connect 40 0 110 0;
#X connect 110 0 111 0;
#X obj 762 470 r \$0-oud/Wet;
#X msg 762 490 /oud/Wet \$1;
#X connect 112 0 113 0;
#X connect 113 0 41 0;
#X obj 1074 470 route /oud/Wet;
#X obj 1074 490 s \$0-oud/Wet;
#X connect 108 1 114 0;
#X connect 114 0 115 0;
#X msg 450 510 0.3;
#X obj 450 530 s \$0-oud/Z-Volume;
#X connect 40 0 116 0;
#X connect 116 0 117 0;
#X obj 762 510 r \$0-oud/Z-Volume;
#X msg 762 530 /oud/Z-Volume \$1;
#X connect 118 0 119 0;
#X connect 119 0 41 0;
#X obj 1074 510 route /oud/Z-Volume;
#X obj 1074 530 s \$0-oud/Z-Volume;
#X connect 114 1 120 0;
#X connect 120 0 121 0;
#X coords 0 -1 1 1 235 380 1 0 0;
#X text 0 400 Generated Thu Mar  7 06:27:03 2013 by faust2pd v2.5. See http://faust.grame.fr and http://pure-lang.googlecode.com.;
