#N canvas 438 159 469 311 10;
#X obj 10 180 r \$0-in;
#X obj 10 210 percussion_fourth_try_presets~;
#X obj 10 240 s \$0-out;
#X obj 10 30 nbx 5 14 0 23 0 0 \$0-percussion-fourth-try-presets/Preset-number
\$0-percussion-fourth-try-presets/Preset-number Preset-number 0 -6
0 10 -262144 -1 -1 8 256;
#X obj 47 3 bng 15 250 50 1 \$0-init \$0-ignore empty 0 -6 0 10 -262144
-1 -1;
#X obj 67 3 tgl 15 1 \$0-active \$0-active empty 0 -6 0 10 -262144
-1 -1 1 1;
#X obj 539 8 r \$0-init;
#X obj 858 10 s \$0-in;
#X obj 1062 10 s \$0-read;
#X obj 1266 10 r \$0-write;
#X msg 539 28 1;
#X obj 539 48 s \$0-active;
#X obj 858 30 r \$0-active;
#X msg 858 50 active \$1;
#X obj 1266 30 route active;
#X obj 1266 50 s \$0-active;
#X msg 539 68 0;
#X obj 539 88 s \$0-percussion-fourth-try-presets/Preset-number;
#X obj 858 70 r \$0-percussion-fourth-try-presets/Preset-number;
#X msg 858 90 /percussion-fourth-try-presets/Preset-number \$1;
#X obj 1266 70 route /percussion-fourth-try-presets/Preset-number;
#X obj 1266 90 s \$0-percussion-fourth-try-presets/Preset-number;
#X obj 153 266 dac~;
#X obj 165 140 hsl 128 15 -50 50 0 0 empty empty empty -2 -8 0 10 -262144
-1 -1 500 1;
#X floatatom 327 182 5 0 0 0 - - -;
#N canvas 0 22 158 175 make-smooth-audio-signal~ 0;
#X obj 19 13 inlet;
#X obj 19 37 * 0.001;
#X obj 19 86 line~;
#X msg 19 64 \$1 20;
#X obj 79 66 outlet;
#X obj 19 135 outlet~;
#X obj 19 110 lp2~ 10 0.707 200;
#X connect 0 0 1 0;
#X connect 1 0 3 0;
#X connect 1 0 4 0;
#X connect 2 0 6 0;
#X connect 3 0 2 0;
#X connect 6 0 5 0;
#X restore 162 160 pd make-smooth-audio-signal~;
#X text 105 171 dev1;
#X text 108 180 pos;
#X text 358 171 Finger position;
#X text 360 183 m;
#X text 160 121 Position of finger interacting with resonator;
#X text 117 238 aLeft;
#X text 182 242 aRight;
#X connect 0 0 1 0;
#X connect 1 0 2 0;
#X connect 1 3 22 0;
#X connect 1 4 22 1;
#X connect 6 0 16 0;
#X connect 9 0 14 0;
#X connect 10 0 11 0;
#X connect 12 0 13 0;
#X connect 13 0 7 0;
#X connect 14 0 15 0;
#X connect 14 1 20 0;
#X connect 16 0 17 0;
#X connect 18 0 19 0;
#X connect 19 0 7 0;
#X connect 20 0 21 0;
#X connect 23 0 25 0;
#X connect 25 0 1 1;
#X connect 25 1 24 0;
#X coords 0 -1 1 1 85 50 1 0 0;
