#N canvas 0 0 450 300 10;
#X obj 70 360 inlet~;
#X obj 130 360 inlet~;
#X obj 10 360 inlet;
#X obj 190 360 r \$0-read;
#X obj 190 390 faust-control \$0;
#X obj 190 420 s \$0-write;
#X obj 10 420 r \$0-in;
#X obj 10 450 percussion_first_try~;
#X obj 10 480 s \$0-out;
#X obj 70 510 outlet~;
#X obj 130 510 outlet~;
#X obj 190 510 outlet~;
#X obj 250 510 outlet~;
#X obj 10 510 outlet;
#X connect 2 0 4 0;
#X connect 3 0 4 0;
#X connect 4 0 5 0;
#X connect 7 0 8 0;
#X connect 2 0 13 0;
#X connect 6 0 7 0;
#X connect 0 0 7 1;
#X connect 1 0 7 2;
#X connect 7 1 9 0;
#X connect 7 2 10 0;
#X connect 7 3 11 0;
#X connect 7 4 12 0;
#X obj 10 30 hsl 128 15 0.01 1 0 0 \$0-percussion-first-try/decayTimeMembrane \$0-percussion-first-try/decayTimeMembrane decayTimeMembrane -2 -6 0 10 -262144 -1 -1 0 1;
#X obj 160 30 nbx 5 14 0.01 1 0 0 \$0-percussion-first-try/decayTimeMembrane \$0-percussion-first-try/decayTimeMembrane empty 0 -6 0 10 -262144 -1 -1 256;
#X obj 10 60 hsl 128 15 30 2000 0 0 \$0-percussion-first-try/freqMembrane \$0-percussion-first-try/freqMembrane freqMembrane -2 -6 0 10 -262144 -1 -1 0 1;
#X obj 160 60 nbx 5 14 30 2000 0 0 \$0-percussion-first-try/freqMembrane \$0-percussion-first-try/freqMembrane empty 0 -6 0 10 -262144 -1 -1 256;
#X obj 10 90 hsl 128 15 1 100 0 0 \$0-percussion-first-try/gravParam \$0-percussion-first-try/gravParam gravParam -2 -6 0 10 -262144 -1 -1 0 1;
#X obj 160 90 nbx 5 14 1 100 0 0 \$0-percussion-first-try/gravParam \$0-percussion-first-try/gravParam empty 0 -6 0 10 -262144 -1 -1 256;
#X obj 10 120 hsl 128 15 3e-06 1e-05 0 0 \$0-percussion-first-try/massL \$0-percussion-first-try/massL massL -2 -6 0 10 -262144 -1 -1 0 1;
#X obj 160 120 nbx 5 14 3e-06 1e-05 0 0 \$0-percussion-first-try/massL \$0-percussion-first-try/massL empty 0 -6 0 10 -262144 -1 -1 256;
#X obj 10 150 hsl 128 15 0.0001 0.1 0 0 \$0-percussion-first-try/massMembrane \$0-percussion-first-try/massMembrane massMembrane -2 -6 0 10 -262144 -1 -1 0 1;
#X obj 160 150 nbx 5 14 0.0001 0.1 0 0 \$0-percussion-first-try/massMembrane \$0-percussion-first-try/massMembrane empty 0 -6 0 10 -262144 -1 -1 256;
#X obj 10 180 hsl 128 15 3e-06 1e-05 0 0 \$0-percussion-first-try/massR \$0-percussion-first-try/massR massR -2 -6 0 10 -262144 -1 -1 0 1;
#X obj 160 180 nbx 5 14 3e-06 1e-05 0 0 \$0-percussion-first-try/massR \$0-percussion-first-try/massR empty 0 -6 0 10 -262144 -1 -1 256;
#X obj 10 210 hsl 128 15 0 0.5 0 0 \$0-percussion-first-try/touchDamp \$0-percussion-first-try/touchDamp touchDamp -2 -6 0 10 -262144 -1 -1 0 1;
#X obj 160 210 nbx 5 14 0 0.5 0 0 \$0-percussion-first-try/touchDamp \$0-percussion-first-try/touchDamp empty 0 -6 0 10 -262144 -1 -1 256;
#X obj 10 240 hsl 128 15 2000 20000 0 0 \$0-percussion-first-try/touchStiffnL \$0-percussion-first-try/touchStiffnL touchStiffnL -2 -6 0 10 -262144 -1 -1 0 1;
#X obj 160 240 nbx 5 14 2000 20000 0 0 \$0-percussion-first-try/touchStiffnL \$0-percussion-first-try/touchStiffnL empty 0 -6 0 10 -262144 -1 -1 256;
#X obj 10 270 hsl 128 15 2000 20000 0 0 \$0-percussion-first-try/touchStiffnR \$0-percussion-first-try/touchStiffnR touchStiffnR -2 -6 0 10 -262144 -1 -1 0 1;
#X obj 160 270 nbx 5 14 2000 20000 0 0 \$0-percussion-first-try/touchStiffnR \$0-percussion-first-try/touchStiffnR empty 0 -6 0 10 -262144 -1 -1 256;
#X obj 197 3 bng 15 250 50 1 \$0-init \$0-ignore empty 0 -6 0 10 -262144 -1 -1;
#X obj 217 3 tgl 15 1 \$0-active \$0-active empty 0 -6 0 10 -262144 -1 -1 1 1;
#X obj 450 10 r \$0-init;
#X obj 818 10 s \$0-in;
#X obj 1002 10 s \$0-read;
#X obj 1186 10 r \$0-write;
#X msg 450 30 1;
#X obj 450 50 s \$0-active;
#X connect 38 0 39 0;
#X obj 818 30 r \$0-active;
#X msg 818 50 active \$1;
#X connect 40 0 41 0;
#X connect 41 0 35 0;
#X obj 1186 30 route active;
#X obj 1186 50 s \$0-active;
#X connect 37 0 42 0;
#X connect 42 0 43 0;
#X msg 450 70 0.08;
#X obj 450 90 s \$0-percussion-first-try/decayTimeMembrane;
#X connect 34 0 44 0;
#X connect 44 0 45 0;
#X obj 818 70 r \$0-percussion-first-try/decayTimeMembrane;
#X msg 818 90 /percussion-first-try/decayTimeMembrane \$1;
#X connect 46 0 47 0;
#X connect 47 0 35 0;
#X obj 1186 70 route /percussion-first-try/decayTimeMembrane;
#X obj 1186 90 s \$0-percussion-first-try/decayTimeMembrane;
#X connect 42 1 48 0;
#X connect 48 0 49 0;
#X msg 450 110 170;
#X obj 450 130 s \$0-percussion-first-try/freqMembrane;
#X connect 34 0 50 0;
#X connect 50 0 51 0;
#X obj 818 110 r \$0-percussion-first-try/freqMembrane;
#X msg 818 130 /percussion-first-try/freqMembrane \$1;
#X connect 52 0 53 0;
#X connect 53 0 35 0;
#X obj 1186 110 route /percussion-first-try/freqMembrane;
#X obj 1186 130 s \$0-percussion-first-try/freqMembrane;
#X connect 48 1 54 0;
#X connect 54 0 55 0;
#X msg 450 150 30;
#X obj 450 170 s \$0-percussion-first-try/gravParam;
#X connect 34 0 56 0;
#X connect 56 0 57 0;
#X obj 818 150 r \$0-percussion-first-try/gravParam;
#X msg 818 170 /percussion-first-try/gravParam \$1;
#X connect 58 0 59 0;
#X connect 59 0 35 0;
#X obj 1186 150 route /percussion-first-try/gravParam;
#X obj 1186 170 s \$0-percussion-first-try/gravParam;
#X connect 54 1 60 0;
#X connect 60 0 61 0;
#X msg 450 190 7e-06;
#X obj 450 210 s \$0-percussion-first-try/massL;
#X connect 34 0 62 0;
#X connect 62 0 63 0;
#X obj 818 190 r \$0-percussion-first-try/massL;
#X msg 818 210 /percussion-first-try/massL \$1;
#X connect 64 0 65 0;
#X connect 65 0 35 0;
#X obj 1186 190 route /percussion-first-try/massL;
#X obj 1186 210 s \$0-percussion-first-try/massL;
#X connect 60 1 66 0;
#X connect 66 0 67 0;
#X msg 450 230 0.08;
#X obj 450 250 s \$0-percussion-first-try/massMembrane;
#X connect 34 0 68 0;
#X connect 68 0 69 0;
#X obj 818 230 r \$0-percussion-first-try/massMembrane;
#X msg 818 250 /percussion-first-try/massMembrane \$1;
#X connect 70 0 71 0;
#X connect 71 0 35 0;
#X obj 1186 230 route /percussion-first-try/massMembrane;
#X obj 1186 250 s \$0-percussion-first-try/massMembrane;
#X connect 66 1 72 0;
#X connect 72 0 73 0;
#X msg 450 270 4e-06;
#X obj 450 290 s \$0-percussion-first-try/massR;
#X connect 34 0 74 0;
#X connect 74 0 75 0;
#X obj 818 270 r \$0-percussion-first-try/massR;
#X msg 818 290 /percussion-first-try/massR \$1;
#X connect 76 0 77 0;
#X connect 77 0 35 0;
#X obj 1186 270 route /percussion-first-try/massR;
#X obj 1186 290 s \$0-percussion-first-try/massR;
#X connect 72 1 78 0;
#X connect 78 0 79 0;
#X msg 450 310 0.01;
#X obj 450 330 s \$0-percussion-first-try/touchDamp;
#X connect 34 0 80 0;
#X connect 80 0 81 0;
#X obj 818 310 r \$0-percussion-first-try/touchDamp;
#X msg 818 330 /percussion-first-try/touchDamp \$1;
#X connect 82 0 83 0;
#X connect 83 0 35 0;
#X obj 1186 310 route /percussion-first-try/touchDamp;
#X obj 1186 330 s \$0-percussion-first-try/touchDamp;
#X connect 78 1 84 0;
#X connect 84 0 85 0;
#X msg 450 350 18000;
#X obj 450 370 s \$0-percussion-first-try/touchStiffnL;
#X connect 34 0 86 0;
#X connect 86 0 87 0;
#X obj 818 350 r \$0-percussion-first-try/touchStiffnL;
#X msg 818 370 /percussion-first-try/touchStiffnL \$1;
#X connect 88 0 89 0;
#X connect 89 0 35 0;
#X obj 1186 350 route /percussion-first-try/touchStiffnL;
#X obj 1186 370 s \$0-percussion-first-try/touchStiffnL;
#X connect 84 1 90 0;
#X connect 90 0 91 0;
#X msg 450 390 13000;
#X obj 450 410 s \$0-percussion-first-try/touchStiffnR;
#X connect 34 0 92 0;
#X connect 92 0 93 0;
#X obj 818 390 r \$0-percussion-first-try/touchStiffnR;
#X msg 818 410 /percussion-first-try/touchStiffnR \$1;
#X connect 94 0 95 0;
#X connect 95 0 35 0;
#X obj 1186 390 route /percussion-first-try/touchStiffnR;
#X obj 1186 410 s \$0-percussion-first-try/touchStiffnR;
#X connect 90 1 96 0;
#X connect 96 0 97 0;
#X coords 0 -1 1 1 235 290 1 0 0;
#X text 0 310 Generated Thu Mar  7 06:27:02 2013 by faust2pd v2.5. See http://faust.grame.fr and http://pure-lang.googlecode.com.;
