#N canvas 0 0 450 300 10;
#X obj 10 120 inlet;
#X obj 130 120 r \$0-read;
#X obj 130 150 faust-control \$0;
#X obj 130 180 s \$0-write;
#X obj 10 180 r \$0-in;
#X obj 10 210 percussion_fourth_try_presets~;
#X obj 10 240 s \$0-out;
#X obj 70 270 outlet~;
#X obj 130 270 outlet~;
#X obj 10 270 outlet;
#X connect 0 0 2 0;
#X connect 1 0 2 0;
#X connect 2 0 3 0;
#X connect 5 0 6 0;
#X connect 0 0 9 0;
#X connect 4 0 5 0;
#X connect 5 1 7 0;
#X connect 5 2 8 0;
#X obj 10 30 nbx 5 14 0 23 0 0 \$0-percussion-fourth-try-presets/Preset-number \$0-percussion-fourth-try-presets/Preset-number Preset-number 0 -6 0 10 -262144 -1 -1 256;
#X obj 47 3 bng 15 250 50 1 \$0-init \$0-ignore empty 0 -6 0 10 -262144 -1 -1;
#X obj 67 3 tgl 15 1 \$0-active \$0-active empty 0 -6 0 10 -262144 -1 -1 1 1;
#X obj 450 10 r \$0-init;
#X obj 858 10 s \$0-in;
#X obj 1062 10 s \$0-read;
#X obj 1266 10 r \$0-write;
#X msg 450 30 1;
#X obj 450 50 s \$0-active;
#X connect 17 0 18 0;
#X obj 858 30 r \$0-active;
#X msg 858 50 active \$1;
#X connect 19 0 20 0;
#X connect 20 0 14 0;
#X obj 1266 30 route active;
#X obj 1266 50 s \$0-active;
#X connect 16 0 21 0;
#X connect 21 0 22 0;
#X msg 450 70 0;
#X obj 450 90 s \$0-percussion-fourth-try-presets/Preset-number;
#X connect 13 0 23 0;
#X connect 23 0 24 0;
#X obj 858 70 r \$0-percussion-fourth-try-presets/Preset-number;
#X msg 858 90 /percussion-fourth-try-presets/Preset-number \$1;
#X connect 25 0 26 0;
#X connect 26 0 14 0;
#X obj 1266 70 route /percussion-fourth-try-presets/Preset-number;
#X obj 1266 90 s \$0-percussion-fourth-try-presets/Preset-number;
#X connect 21 1 27 0;
#X connect 27 0 28 0;
#X coords 0 -1 1 1 85 50 1 0 0;
#X text 0 70 Generated Thu Mar  7 06:27:03 2013 by faust2pd v2.5. See http://faust.grame.fr and http://pure-lang.googlecode.com.;
