#N canvas 0 0 450 300 10;
#X obj 70 390 inlet~;
#X obj 130 390 inlet~;
#X obj 10 390 inlet;
#X obj 190 390 r \$0-read;
#X obj 190 420 faust-control \$0;
#X obj 190 450 s \$0-write;
#X obj 10 450 r \$0-in;
#X obj 10 480 pluck_one_string_pitch_control~;
#X obj 10 510 s \$0-out;
#X obj 70 540 outlet~;
#X obj 130 540 outlet~;
#X obj 190 540 outlet~;
#X obj 250 540 outlet~;
#X obj 10 540 outlet;
#X connect 2 0 4 0;
#X connect 3 0 4 0;
#X connect 4 0 5 0;
#X connect 7 0 8 0;
#X connect 2 0 13 0;
#X connect 6 0 7 0;
#X connect 0 0 7 1;
#X connect 1 0 7 2;
#X connect 7 1 9 0;
#X connect 7 2 10 0;
#X connect 7 3 11 0;
#X connect 7 4 12 0;
#X obj 10 30 hsl 128 15 0.5 7 0 0 \$0-pluck-one-string-pitch-control/Bridge-attenuation \$0-pluck-one-string-pitch-control/Bridge-attenuation Bridge-attenuation -2 -6 0 10 -262144 -1 -1 0 1;
#X obj 160 30 nbx 5 14 0.5 7 0 0 \$0-pluck-one-string-pitch-control/Bridge-attenuation \$0-pluck-one-string-pitch-control/Bridge-attenuation empty 0 -6 0 10 -262144 -1 -1 256;
#X obj 10 60 hsl 128 15 1000 44100 0 0 \$0-pluck-one-string-pitch-control/Bridge-cutoff-freq \$0-pluck-one-string-pitch-control/Bridge-cutoff-freq Bridge-cutoff-freq -2 -6 0 10 -262144 -1 -1 0 1;
#X obj 160 60 nbx 5 14 1000 44100 0 0 \$0-pluck-one-string-pitch-control/Bridge-cutoff-freq \$0-pluck-one-string-pitch-control/Bridge-cutoff-freq empty 0 -6 0 10 -262144 -1 -1 256;
#X obj 10 90 hsl 128 15 20 84 0 0 \$0-pluck-one-string-pitch-control/Frequency \$0-pluck-one-string-pitch-control/Frequency Frequency -2 -6 0 10 -262144 -1 -1 0 1;
#X obj 160 90 nbx 5 14 20 84 0 0 \$0-pluck-one-string-pitch-control/Frequency \$0-pluck-one-string-pitch-control/Frequency empty 0 -6 0 10 -262144 -1 -1 256;
#X obj 10 120 hsl 128 15 0.5 7 0 0 \$0-pluck-one-string-pitch-control/Fret-attenuation \$0-pluck-one-string-pitch-control/Fret-attenuation Fret-attenuation -2 -6 0 10 -262144 -1 -1 0 1;
#X obj 160 120 nbx 5 14 0.5 7 0 0 \$0-pluck-one-string-pitch-control/Fret-attenuation \$0-pluck-one-string-pitch-control/Fret-attenuation empty 0 -6 0 10 -262144 -1 -1 256;
#X obj 10 150 hsl 128 15 1000 44100 0 0 \$0-pluck-one-string-pitch-control/Fret-cutoff-freq \$0-pluck-one-string-pitch-control/Fret-cutoff-freq Fret-cutoff-freq -2 -6 0 10 -262144 -1 -1 0 1;
#X obj 160 150 nbx 5 14 1000 44100 0 0 \$0-pluck-one-string-pitch-control/Fret-cutoff-freq \$0-pluck-one-string-pitch-control/Fret-cutoff-freq empty 0 -6 0 10 -262144 -1 -1 256;
#X obj 10 180 hsl 128 15 0 2.5 0 0 \$0-pluck-one-string-pitch-control/Pluck-damping \$0-pluck-one-string-pitch-control/Pluck-damping Pluck-damping -2 -6 0 10 -262144 -1 -1 0 1;
#X obj 160 180 nbx 5 14 0 2.5 0 0 \$0-pluck-one-string-pitch-control/Pluck-damping \$0-pluck-one-string-pitch-control/Pluck-damping empty 0 -6 0 10 -262144 -1 -1 256;
#X obj 10 210 hsl 128 15 0.001 0.01 0 0 \$0-pluck-one-string-pitch-control/Pluck-half-width \$0-pluck-one-string-pitch-control/Pluck-half-width Pluck-half-width -2 -6 0 10 -262144 -1 -1 0 1;
#X obj 160 210 nbx 5 14 0.001 0.01 0 0 \$0-pluck-one-string-pitch-control/Pluck-half-width \$0-pluck-one-string-pitch-control/Pluck-half-width empty 0 -6 0 10 -262144 -1 -1 256;
#X obj 10 240 hsl 128 15 0.01 0.99 0 0 \$0-pluck-one-string-pitch-control/Pluck-position-along-length \$0-pluck-one-string-pitch-control/Pluck-position-along-length Pluck-position-along-length -2 -6 0 10 -262144 -1 -1 0 1;
#X obj 160 240 nbx 5 14 0.01 0.99 0 0 \$0-pluck-one-string-pitch-control/Pluck-position-along-length \$0-pluck-one-string-pitch-control/Pluck-position-along-length empty 0 -6 0 10 -262144 -1 -1 256;
#X obj 10 270 hsl 128 15 50 1000 0 0 \$0-pluck-one-string-pitch-control/Pluck-stiffness \$0-pluck-one-string-pitch-control/Pluck-stiffness Pluck-stiffness -2 -6 0 10 -262144 -1 -1 0 1;
#X obj 160 270 nbx 5 14 50 1000 0 0 \$0-pluck-one-string-pitch-control/Pluck-stiffness \$0-pluck-one-string-pitch-control/Pluck-stiffness empty 0 -6 0 10 -262144 -1 -1 256;
#X obj 10 300 hsl 128 15 0.01 1 0 0 \$0-pluck-one-string-pitch-control/Z-Volume \$0-pluck-one-string-pitch-control/Z-Volume Z-Volume -2 -6 0 10 -262144 -1 -1 0 1;
#X obj 160 300 nbx 5 14 0.01 1 0 0 \$0-pluck-one-string-pitch-control/Z-Volume \$0-pluck-one-string-pitch-control/Z-Volume empty 0 -6 0 10 -262144 -1 -1 256;
#X obj 197 3 bng 15 250 50 1 \$0-init \$0-ignore empty 0 -6 0 10 -262144 -1 -1;
#X obj 217 3 tgl 15 1 \$0-active \$0-active empty 0 -6 0 10 -262144 -1 -1 1 1;
#X obj 450 10 r \$0-init;
#X obj 978 10 s \$0-in;
#X obj 1242 10 s \$0-read;
#X obj 1506 10 r \$0-write;
#X msg 450 30 1;
#X obj 450 50 s \$0-active;
#X connect 40 0 41 0;
#X obj 978 30 r \$0-active;
#X msg 978 50 active \$1;
#X connect 42 0 43 0;
#X connect 43 0 37 0;
#X obj 1506 30 route active;
#X obj 1506 50 s \$0-active;
#X connect 39 0 44 0;
#X connect 44 0 45 0;
#X msg 450 70 2.5;
#X obj 450 90 s \$0-pluck-one-string-pitch-control/Bridge-attenuation;
#X connect 36 0 46 0;
#X connect 46 0 47 0;
#X obj 978 70 r \$0-pluck-one-string-pitch-control/Bridge-attenuation;
#X msg 978 90 /pluck-one-string-pitch-control/Bridge-attenuation \$1;
#X connect 48 0 49 0;
#X connect 49 0 37 0;
#X obj 1506 70 route /pluck-one-string-pitch-control/Bridge-attenuation;
#X obj 1506 90 s \$0-pluck-one-string-pitch-control/Bridge-attenuation;
#X connect 44 1 50 0;
#X connect 50 0 51 0;
#X msg 450 110 5000;
#X obj 450 130 s \$0-pluck-one-string-pitch-control/Bridge-cutoff-freq;
#X connect 36 0 52 0;
#X connect 52 0 53 0;
#X obj 978 110 r \$0-pluck-one-string-pitch-control/Bridge-cutoff-freq;
#X msg 978 130 /pluck-one-string-pitch-control/Bridge-cutoff-freq \$1;
#X connect 54 0 55 0;
#X connect 55 0 37 0;
#X obj 1506 110 route /pluck-one-string-pitch-control/Bridge-cutoff-freq;
#X obj 1506 130 s \$0-pluck-one-string-pitch-control/Bridge-cutoff-freq;
#X connect 50 1 56 0;
#X connect 56 0 57 0;
#X msg 450 150 27;
#X obj 450 170 s \$0-pluck-one-string-pitch-control/Frequency;
#X connect 36 0 58 0;
#X connect 58 0 59 0;
#X obj 978 150 r \$0-pluck-one-string-pitch-control/Frequency;
#X msg 978 170 /pluck-one-string-pitch-control/Frequency \$1;
#X connect 60 0 61 0;
#X connect 61 0 37 0;
#X obj 1506 150 route /pluck-one-string-pitch-control/Frequency;
#X obj 1506 170 s \$0-pluck-one-string-pitch-control/Frequency;
#X connect 56 1 62 0;
#X connect 62 0 63 0;
#X msg 450 190 2.5;
#X obj 450 210 s \$0-pluck-one-string-pitch-control/Fret-attenuation;
#X connect 36 0 64 0;
#X connect 64 0 65 0;
#X obj 978 190 r \$0-pluck-one-string-pitch-control/Fret-attenuation;
#X msg 978 210 /pluck-one-string-pitch-control/Fret-attenuation \$1;
#X connect 66 0 67 0;
#X connect 67 0 37 0;
#X obj 1506 190 route /pluck-one-string-pitch-control/Fret-attenuation;
#X obj 1506 210 s \$0-pluck-one-string-pitch-control/Fret-attenuation;
#X connect 62 1 68 0;
#X connect 68 0 69 0;
#X msg 450 230 5000;
#X obj 450 250 s \$0-pluck-one-string-pitch-control/Fret-cutoff-freq;
#X connect 36 0 70 0;
#X connect 70 0 71 0;
#X obj 978 230 r \$0-pluck-one-string-pitch-control/Fret-cutoff-freq;
#X msg 978 250 /pluck-one-string-pitch-control/Fret-cutoff-freq \$1;
#X connect 72 0 73 0;
#X connect 73 0 37 0;
#X obj 1506 230 route /pluck-one-string-pitch-control/Fret-cutoff-freq;
#X obj 1506 250 s \$0-pluck-one-string-pitch-control/Fret-cutoff-freq;
#X connect 68 1 74 0;
#X connect 74 0 75 0;
#X msg 450 270 0.1;
#X obj 450 290 s \$0-pluck-one-string-pitch-control/Pluck-damping;
#X connect 36 0 76 0;
#X connect 76 0 77 0;
#X obj 978 270 r \$0-pluck-one-string-pitch-control/Pluck-damping;
#X msg 978 290 /pluck-one-string-pitch-control/Pluck-damping \$1;
#X connect 78 0 79 0;
#X connect 79 0 37 0;
#X obj 1506 270 route /pluck-one-string-pitch-control/Pluck-damping;
#X obj 1506 290 s \$0-pluck-one-string-pitch-control/Pluck-damping;
#X connect 74 1 80 0;
#X connect 80 0 81 0;
#X msg 450 310 0.006;
#X obj 450 330 s \$0-pluck-one-string-pitch-control/Pluck-half-width;
#X connect 36 0 82 0;
#X connect 82 0 83 0;
#X obj 978 310 r \$0-pluck-one-string-pitch-control/Pluck-half-width;
#X msg 978 330 /pluck-one-string-pitch-control/Pluck-half-width \$1;
#X connect 84 0 85 0;
#X connect 85 0 37 0;
#X obj 1506 310 route /pluck-one-string-pitch-control/Pluck-half-width;
#X obj 1506 330 s \$0-pluck-one-string-pitch-control/Pluck-half-width;
#X connect 80 1 86 0;
#X connect 86 0 87 0;
#X msg 450 350 0.29;
#X obj 450 370 s \$0-pluck-one-string-pitch-control/Pluck-position-along-length;
#X connect 36 0 88 0;
#X connect 88 0 89 0;
#X obj 978 350 r \$0-pluck-one-string-pitch-control/Pluck-position-along-length;
#X msg 978 370 /pluck-one-string-pitch-control/Pluck-position-along-length \$1;
#X connect 90 0 91 0;
#X connect 91 0 37 0;
#X obj 1506 350 route /pluck-one-string-pitch-control/Pluck-position-along-length;
#X obj 1506 370 s \$0-pluck-one-string-pitch-control/Pluck-position-along-length;
#X connect 86 1 92 0;
#X connect 92 0 93 0;
#X msg 450 390 250;
#X obj 450 410 s \$0-pluck-one-string-pitch-control/Pluck-stiffness;
#X connect 36 0 94 0;
#X connect 94 0 95 0;
#X obj 978 390 r \$0-pluck-one-string-pitch-control/Pluck-stiffness;
#X msg 978 410 /pluck-one-string-pitch-control/Pluck-stiffness \$1;
#X connect 96 0 97 0;
#X connect 97 0 37 0;
#X obj 1506 390 route /pluck-one-string-pitch-control/Pluck-stiffness;
#X obj 1506 410 s \$0-pluck-one-string-pitch-control/Pluck-stiffness;
#X connect 92 1 98 0;
#X connect 98 0 99 0;
#X msg 450 430 0.3;
#X obj 450 450 s \$0-pluck-one-string-pitch-control/Z-Volume;
#X connect 36 0 100 0;
#X connect 100 0 101 0;
#X obj 978 430 r \$0-pluck-one-string-pitch-control/Z-Volume;
#X msg 978 450 /pluck-one-string-pitch-control/Z-Volume \$1;
#X connect 102 0 103 0;
#X connect 103 0 37 0;
#X obj 1506 430 route /pluck-one-string-pitch-control/Z-Volume;
#X obj 1506 450 s \$0-pluck-one-string-pitch-control/Z-Volume;
#X connect 98 1 104 0;
#X connect 104 0 105 0;
#X coords 0 -1 1 1 235 320 1 0 0;
#X text 0 340 Generated Thu Mar  7 06:27:03 2013 by faust2pd v2.5. See http://faust.grame.fr and http://pure-lang.googlecode.com.;
