#N canvas 0 0 450 300 10;
#X obj 70 300 inlet~;
#X obj 130 300 inlet~;
#X obj 10 300 inlet;
#X obj 190 300 r \$0-read;
#X obj 190 330 faust-control \$0;
#X obj 190 360 s \$0-write;
#X obj 10 360 r \$0-in;
#X obj 10 390 pluck_a_mass_on_spring~;
#X obj 10 420 s \$0-out;
#X obj 70 450 outlet~;
#X obj 130 450 outlet~;
#X obj 190 450 outlet~;
#X obj 250 450 outlet~;
#X obj 10 450 outlet;
#X connect 2 0 4 0;
#X connect 3 0 4 0;
#X connect 4 0 5 0;
#X connect 7 0 8 0;
#X connect 2 0 13 0;
#X connect 6 0 7 0;
#X connect 0 0 7 1;
#X connect 1 0 7 2;
#X connect 7 1 9 0;
#X connect 7 2 10 0;
#X connect 7 3 11 0;
#X connect 7 4 12 0;
#X obj 10 30 hsl 128 15 0 0.5 0 0 \$0-pluck-a-mass-on-spring/Pluck-damping \$0-pluck-a-mass-on-spring/Pluck-damping Pluck-damping -2 -6 0 10 -262144 -1 -1 0 1;
#X obj 160 30 nbx 5 14 0 0.5 0 0 \$0-pluck-a-mass-on-spring/Pluck-damping \$0-pluck-a-mass-on-spring/Pluck-damping empty 0 -6 0 10 -262144 -1 -1 256;
#X obj 10 60 hsl 128 15 0.001 0.02 0 0 \$0-pluck-a-mass-on-spring/Pluck-max-displacement \$0-pluck-a-mass-on-spring/Pluck-max-displacement Pluck-max-displacement -2 -6 0 10 -262144 -1 -1 0 1;
#X obj 160 60 nbx 5 14 0.001 0.02 0 0 \$0-pluck-a-mass-on-spring/Pluck-max-displacement \$0-pluck-a-mass-on-spring/Pluck-max-displacement empty 0 -6 0 10 -262144 -1 -1 256;
#X obj 10 90 hsl 128 15 10 1000 0 0 \$0-pluck-a-mass-on-spring/Pluck-stiffness \$0-pluck-a-mass-on-spring/Pluck-stiffness Pluck-stiffness -2 -6 0 10 -262144 -1 -1 0 1;
#X obj 160 90 nbx 5 14 10 1000 0 0 \$0-pluck-a-mass-on-spring/Pluck-stiffness \$0-pluck-a-mass-on-spring/Pluck-stiffness empty 0 -6 0 10 -262144 -1 -1 256;
#X obj 10 120 hsl 128 15 0 0.2 0 0 \$0-pluck-a-mass-on-spring/Resonator-damping \$0-pluck-a-mass-on-spring/Resonator-damping Resonator-damping -2 -6 0 10 -262144 -1 -1 0 1;
#X obj 160 120 nbx 5 14 0 0.2 0 0 \$0-pluck-a-mass-on-spring/Resonator-damping \$0-pluck-a-mass-on-spring/Resonator-damping empty 0 -6 0 10 -262144 -1 -1 256;
#X obj 10 150 hsl 128 15 0.0005 0.1 0 0 \$0-pluck-a-mass-on-spring/Resonator-mass \$0-pluck-a-mass-on-spring/Resonator-mass Resonator-mass -2 -6 0 10 -262144 -1 -1 0 1;
#X obj 160 150 nbx 5 14 0.0005 0.1 0 0 \$0-pluck-a-mass-on-spring/Resonator-mass \$0-pluck-a-mass-on-spring/Resonator-mass empty 0 -6 0 10 -262144 -1 -1 256;
#X obj 10 180 hsl 128 15 0 1000 0 0 \$0-pluck-a-mass-on-spring/Resonator-stiffness \$0-pluck-a-mass-on-spring/Resonator-stiffness Resonator-stiffness -2 -6 0 10 -262144 -1 -1 0 1;
#X obj 160 180 nbx 5 14 0 1000 0 0 \$0-pluck-a-mass-on-spring/Resonator-stiffness \$0-pluck-a-mass-on-spring/Resonator-stiffness empty 0 -6 0 10 -262144 -1 -1 256;
#X obj 10 210 hsl 128 15 0 1.5 0 0 \$0-pluck-a-mass-on-spring/Volume \$0-pluck-a-mass-on-spring/Volume Volume -2 -6 0 10 -262144 -1 -1 0 1;
#X obj 160 210 nbx 5 14 0 1.5 0 0 \$0-pluck-a-mass-on-spring/Volume \$0-pluck-a-mass-on-spring/Volume empty 0 -6 0 10 -262144 -1 -1 256;
#X obj 197 3 bng 15 250 50 1 \$0-init \$0-ignore empty 0 -6 0 10 -262144 -1 -1;
#X obj 217 3 tgl 15 1 \$0-active \$0-active empty 0 -6 0 10 -262144 -1 -1 1 1;
#X obj 450 10 r \$0-init;
#X obj 874 10 s \$0-in;
#X obj 1086 10 s \$0-read;
#X obj 1298 10 r \$0-write;
#X msg 450 30 1;
#X obj 450 50 s \$0-active;
#X connect 34 0 35 0;
#X obj 874 30 r \$0-active;
#X msg 874 50 active \$1;
#X connect 36 0 37 0;
#X connect 37 0 31 0;
#X obj 1298 30 route active;
#X obj 1298 50 s \$0-active;
#X connect 33 0 38 0;
#X connect 38 0 39 0;
#X msg 450 70 0.07;
#X obj 450 90 s \$0-pluck-a-mass-on-spring/Pluck-damping;
#X connect 30 0 40 0;
#X connect 40 0 41 0;
#X obj 874 70 r \$0-pluck-a-mass-on-spring/Pluck-damping;
#X msg 874 90 /pluck-a-mass-on-spring/Pluck-damping \$1;
#X connect 42 0 43 0;
#X connect 43 0 31 0;
#X obj 1298 70 route /pluck-a-mass-on-spring/Pluck-damping;
#X obj 1298 90 s \$0-pluck-a-mass-on-spring/Pluck-damping;
#X connect 38 1 44 0;
#X connect 44 0 45 0;
#X msg 450 110 0.007;
#X obj 450 130 s \$0-pluck-a-mass-on-spring/Pluck-max-displacement;
#X connect 30 0 46 0;
#X connect 46 0 47 0;
#X obj 874 110 r \$0-pluck-a-mass-on-spring/Pluck-max-displacement;
#X msg 874 130 /pluck-a-mass-on-spring/Pluck-max-displacement \$1;
#X connect 48 0 49 0;
#X connect 49 0 31 0;
#X obj 1298 110 route /pluck-a-mass-on-spring/Pluck-max-displacement;
#X obj 1298 130 s \$0-pluck-a-mass-on-spring/Pluck-max-displacement;
#X connect 44 1 50 0;
#X connect 50 0 51 0;
#X msg 450 150 600;
#X obj 450 170 s \$0-pluck-a-mass-on-spring/Pluck-stiffness;
#X connect 30 0 52 0;
#X connect 52 0 53 0;
#X obj 874 150 r \$0-pluck-a-mass-on-spring/Pluck-stiffness;
#X msg 874 170 /pluck-a-mass-on-spring/Pluck-stiffness \$1;
#X connect 54 0 55 0;
#X connect 55 0 31 0;
#X obj 1298 150 route /pluck-a-mass-on-spring/Pluck-stiffness;
#X obj 1298 170 s \$0-pluck-a-mass-on-spring/Pluck-stiffness;
#X connect 50 1 56 0;
#X connect 56 0 57 0;
#X msg 450 190 0.01;
#X obj 450 210 s \$0-pluck-a-mass-on-spring/Resonator-damping;
#X connect 30 0 58 0;
#X connect 58 0 59 0;
#X obj 874 190 r \$0-pluck-a-mass-on-spring/Resonator-damping;
#X msg 874 210 /pluck-a-mass-on-spring/Resonator-damping \$1;
#X connect 60 0 61 0;
#X connect 61 0 31 0;
#X obj 1298 190 route /pluck-a-mass-on-spring/Resonator-damping;
#X obj 1298 210 s \$0-pluck-a-mass-on-spring/Resonator-damping;
#X connect 56 1 62 0;
#X connect 62 0 63 0;
#X msg 450 230 0.01;
#X obj 450 250 s \$0-pluck-a-mass-on-spring/Resonator-mass;
#X connect 30 0 64 0;
#X connect 64 0 65 0;
#X obj 874 230 r \$0-pluck-a-mass-on-spring/Resonator-mass;
#X msg 874 250 /pluck-a-mass-on-spring/Resonator-mass \$1;
#X connect 66 0 67 0;
#X connect 67 0 31 0;
#X obj 1298 230 route /pluck-a-mass-on-spring/Resonator-mass;
#X obj 1298 250 s \$0-pluck-a-mass-on-spring/Resonator-mass;
#X connect 62 1 68 0;
#X connect 68 0 69 0;
#X msg 450 270 600;
#X obj 450 290 s \$0-pluck-a-mass-on-spring/Resonator-stiffness;
#X connect 30 0 70 0;
#X connect 70 0 71 0;
#X obj 874 270 r \$0-pluck-a-mass-on-spring/Resonator-stiffness;
#X msg 874 290 /pluck-a-mass-on-spring/Resonator-stiffness \$1;
#X connect 72 0 73 0;
#X connect 73 0 31 0;
#X obj 1298 270 route /pluck-a-mass-on-spring/Resonator-stiffness;
#X obj 1298 290 s \$0-pluck-a-mass-on-spring/Resonator-stiffness;
#X connect 68 1 74 0;
#X connect 74 0 75 0;
#X msg 450 310 0.1;
#X obj 450 330 s \$0-pluck-a-mass-on-spring/Volume;
#X connect 30 0 76 0;
#X connect 76 0 77 0;
#X obj 874 310 r \$0-pluck-a-mass-on-spring/Volume;
#X msg 874 330 /pluck-a-mass-on-spring/Volume \$1;
#X connect 78 0 79 0;
#X connect 79 0 31 0;
#X obj 1298 310 route /pluck-a-mass-on-spring/Volume;
#X obj 1298 330 s \$0-pluck-a-mass-on-spring/Volume;
#X connect 74 1 80 0;
#X connect 80 0 81 0;
#X coords 0 -1 1 1 235 230 1 0 0;
#X text 0 250 Generated Thu Mar  7 06:27:03 2013 by faust2pd v2.5. See http://faust.grame.fr and http://pure-lang.googlecode.com.;
