#N canvas 0 0 450 300 10;
#X obj 70 1860 inlet~;
#X obj 130 1860 inlet~;
#X obj 10 1860 inlet;
#X obj 190 1860 r \$0-read;
#X obj 190 1890 faust-control \$0;
#X obj 190 1920 s \$0-write;
#X obj 10 1920 r \$0-in;
#X obj 10 1950 pluck_25_half_strings_manual~;
#X obj 10 1980 s \$0-out;
#X obj 70 2010 outlet~;
#X obj 130 2010 outlet~;
#X obj 190 2010 outlet~;
#X obj 250 2010 outlet~;
#X obj 10 2010 outlet;
#X connect 2 0 4 0;
#X connect 3 0 4 0;
#X connect 4 0 5 0;
#X connect 7 0 8 0;
#X connect 2 0 13 0;
#X connect 6 0 7 0;
#X connect 0 0 7 1;
#X connect 1 0 7 2;
#X connect 7 1 9 0;
#X connect 7 2 10 0;
#X connect 7 3 11 0;
#X connect 7 4 12 0;
#X obj 10 30 hsl 128 15 1000 44100 0 0 \$0-pluck-25-half-strings-manual/Bridge-cutoff-freq-for-high-notes \$0-pluck-25-half-strings-manual/Bridge-cutoff-freq-for-high-notes Bridge-cutoff-freq-for-high-notes -2 -6 0 10 -262144 -1 -1 0 1;
#X obj 160 30 nbx 5 14 1000 44100 0 0 \$0-pluck-25-half-strings-manual/Bridge-cutoff-freq-for-high-notes \$0-pluck-25-half-strings-manual/Bridge-cutoff-freq-for-high-notes empty 0 -6 0 10 -262144 -1 -1 256;
#X obj 10 60 hsl 128 15 1000 44100 0 0 \$0-pluck-25-half-strings-manual/Bridge-cutoff-freq-for-low-notes \$0-pluck-25-half-strings-manual/Bridge-cutoff-freq-for-low-notes Bridge-cutoff-freq-for-low-notes -2 -6 0 10 -262144 -1 -1 0 1;
#X obj 160 60 nbx 5 14 1000 44100 0 0 \$0-pluck-25-half-strings-manual/Bridge-cutoff-freq-for-low-notes \$0-pluck-25-half-strings-manual/Bridge-cutoff-freq-for-low-notes empty 0 -6 0 10 -262144 -1 -1 256;
#X obj 10 90 hsl 128 15 16 96 0 0 \$0-pluck-25-half-strings-manual/Note1 \$0-pluck-25-half-strings-manual/Note1 Note1 -2 -6 0 10 -262144 -1 -1 0 1;
#X obj 160 90 nbx 5 14 16 96 0 0 \$0-pluck-25-half-strings-manual/Note1 \$0-pluck-25-half-strings-manual/Note1 empty 0 -6 0 10 -262144 -1 -1 256;
#X obj 10 120 hsl 128 15 16 96 0 0 \$0-pluck-25-half-strings-manual/Note10 \$0-pluck-25-half-strings-manual/Note10 Note10 -2 -6 0 10 -262144 -1 -1 0 1;
#X obj 160 120 nbx 5 14 16 96 0 0 \$0-pluck-25-half-strings-manual/Note10 \$0-pluck-25-half-strings-manual/Note10 empty 0 -6 0 10 -262144 -1 -1 256;
#X obj 10 150 hsl 128 15 16 96 0 0 \$0-pluck-25-half-strings-manual/Note11 \$0-pluck-25-half-strings-manual/Note11 Note11 -2 -6 0 10 -262144 -1 -1 0 1;
#X obj 160 150 nbx 5 14 16 96 0 0 \$0-pluck-25-half-strings-manual/Note11 \$0-pluck-25-half-strings-manual/Note11 empty 0 -6 0 10 -262144 -1 -1 256;
#X obj 10 180 hsl 128 15 16 96 0 0 \$0-pluck-25-half-strings-manual/Note12 \$0-pluck-25-half-strings-manual/Note12 Note12 -2 -6 0 10 -262144 -1 -1 0 1;
#X obj 160 180 nbx 5 14 16 96 0 0 \$0-pluck-25-half-strings-manual/Note12 \$0-pluck-25-half-strings-manual/Note12 empty 0 -6 0 10 -262144 -1 -1 256;
#X obj 10 210 hsl 128 15 16 96 0 0 \$0-pluck-25-half-strings-manual/Note13 \$0-pluck-25-half-strings-manual/Note13 Note13 -2 -6 0 10 -262144 -1 -1 0 1;
#X obj 160 210 nbx 5 14 16 96 0 0 \$0-pluck-25-half-strings-manual/Note13 \$0-pluck-25-half-strings-manual/Note13 empty 0 -6 0 10 -262144 -1 -1 256;
#X obj 10 240 hsl 128 15 16 96 0 0 \$0-pluck-25-half-strings-manual/Note14 \$0-pluck-25-half-strings-manual/Note14 Note14 -2 -6 0 10 -262144 -1 -1 0 1;
#X obj 160 240 nbx 5 14 16 96 0 0 \$0-pluck-25-half-strings-manual/Note14 \$0-pluck-25-half-strings-manual/Note14 empty 0 -6 0 10 -262144 -1 -1 256;
#X obj 10 270 hsl 128 15 16 96 0 0 \$0-pluck-25-half-strings-manual/Note15 \$0-pluck-25-half-strings-manual/Note15 Note15 -2 -6 0 10 -262144 -1 -1 0 1;
#X obj 160 270 nbx 5 14 16 96 0 0 \$0-pluck-25-half-strings-manual/Note15 \$0-pluck-25-half-strings-manual/Note15 empty 0 -6 0 10 -262144 -1 -1 256;
#X obj 10 300 hsl 128 15 16 96 0 0 \$0-pluck-25-half-strings-manual/Note16 \$0-pluck-25-half-strings-manual/Note16 Note16 -2 -6 0 10 -262144 -1 -1 0 1;
#X obj 160 300 nbx 5 14 16 96 0 0 \$0-pluck-25-half-strings-manual/Note16 \$0-pluck-25-half-strings-manual/Note16 empty 0 -6 0 10 -262144 -1 -1 256;
#X obj 10 330 hsl 128 15 16 96 0 0 \$0-pluck-25-half-strings-manual/Note17 \$0-pluck-25-half-strings-manual/Note17 Note17 -2 -6 0 10 -262144 -1 -1 0 1;
#X obj 160 330 nbx 5 14 16 96 0 0 \$0-pluck-25-half-strings-manual/Note17 \$0-pluck-25-half-strings-manual/Note17 empty 0 -6 0 10 -262144 -1 -1 256;
#X obj 10 360 hsl 128 15 16 96 0 0 \$0-pluck-25-half-strings-manual/Note18 \$0-pluck-25-half-strings-manual/Note18 Note18 -2 -6 0 10 -262144 -1 -1 0 1;
#X obj 160 360 nbx 5 14 16 96 0 0 \$0-pluck-25-half-strings-manual/Note18 \$0-pluck-25-half-strings-manual/Note18 empty 0 -6 0 10 -262144 -1 -1 256;
#X obj 10 390 hsl 128 15 16 96 0 0 \$0-pluck-25-half-strings-manual/Note19 \$0-pluck-25-half-strings-manual/Note19 Note19 -2 -6 0 10 -262144 -1 -1 0 1;
#X obj 160 390 nbx 5 14 16 96 0 0 \$0-pluck-25-half-strings-manual/Note19 \$0-pluck-25-half-strings-manual/Note19 empty 0 -6 0 10 -262144 -1 -1 256;
#X obj 10 420 hsl 128 15 16 96 0 0 \$0-pluck-25-half-strings-manual/Note2 \$0-pluck-25-half-strings-manual/Note2 Note2 -2 -6 0 10 -262144 -1 -1 0 1;
#X obj 160 420 nbx 5 14 16 96 0 0 \$0-pluck-25-half-strings-manual/Note2 \$0-pluck-25-half-strings-manual/Note2 empty 0 -6 0 10 -262144 -1 -1 256;
#X obj 10 450 hsl 128 15 16 96 0 0 \$0-pluck-25-half-strings-manual/Note20 \$0-pluck-25-half-strings-manual/Note20 Note20 -2 -6 0 10 -262144 -1 -1 0 1;
#X obj 160 450 nbx 5 14 16 96 0 0 \$0-pluck-25-half-strings-manual/Note20 \$0-pluck-25-half-strings-manual/Note20 empty 0 -6 0 10 -262144 -1 -1 256;
#X obj 10 480 hsl 128 15 16 96 0 0 \$0-pluck-25-half-strings-manual/Note21 \$0-pluck-25-half-strings-manual/Note21 Note21 -2 -6 0 10 -262144 -1 -1 0 1;
#X obj 160 480 nbx 5 14 16 96 0 0 \$0-pluck-25-half-strings-manual/Note21 \$0-pluck-25-half-strings-manual/Note21 empty 0 -6 0 10 -262144 -1 -1 256;
#X obj 10 510 hsl 128 15 16 96 0 0 \$0-pluck-25-half-strings-manual/Note22 \$0-pluck-25-half-strings-manual/Note22 Note22 -2 -6 0 10 -262144 -1 -1 0 1;
#X obj 160 510 nbx 5 14 16 96 0 0 \$0-pluck-25-half-strings-manual/Note22 \$0-pluck-25-half-strings-manual/Note22 empty 0 -6 0 10 -262144 -1 -1 256;
#X obj 10 540 hsl 128 15 16 96 0 0 \$0-pluck-25-half-strings-manual/Note23 \$0-pluck-25-half-strings-manual/Note23 Note23 -2 -6 0 10 -262144 -1 -1 0 1;
#X obj 160 540 nbx 5 14 16 96 0 0 \$0-pluck-25-half-strings-manual/Note23 \$0-pluck-25-half-strings-manual/Note23 empty 0 -6 0 10 -262144 -1 -1 256;
#X obj 10 570 hsl 128 15 16 96 0 0 \$0-pluck-25-half-strings-manual/Note24 \$0-pluck-25-half-strings-manual/Note24 Note24 -2 -6 0 10 -262144 -1 -1 0 1;
#X obj 160 570 nbx 5 14 16 96 0 0 \$0-pluck-25-half-strings-manual/Note24 \$0-pluck-25-half-strings-manual/Note24 empty 0 -6 0 10 -262144 -1 -1 256;
#X obj 10 600 hsl 128 15 16 96 0 0 \$0-pluck-25-half-strings-manual/Note25 \$0-pluck-25-half-strings-manual/Note25 Note25 -2 -6 0 10 -262144 -1 -1 0 1;
#X obj 160 600 nbx 5 14 16 96 0 0 \$0-pluck-25-half-strings-manual/Note25 \$0-pluck-25-half-strings-manual/Note25 empty 0 -6 0 10 -262144 -1 -1 256;
#X obj 10 630 hsl 128 15 16 96 0 0 \$0-pluck-25-half-strings-manual/Note3 \$0-pluck-25-half-strings-manual/Note3 Note3 -2 -6 0 10 -262144 -1 -1 0 1;
#X obj 160 630 nbx 5 14 16 96 0 0 \$0-pluck-25-half-strings-manual/Note3 \$0-pluck-25-half-strings-manual/Note3 empty 0 -6 0 10 -262144 -1 -1 256;
#X obj 10 660 hsl 128 15 16 96 0 0 \$0-pluck-25-half-strings-manual/Note4 \$0-pluck-25-half-strings-manual/Note4 Note4 -2 -6 0 10 -262144 -1 -1 0 1;
#X obj 160 660 nbx 5 14 16 96 0 0 \$0-pluck-25-half-strings-manual/Note4 \$0-pluck-25-half-strings-manual/Note4 empty 0 -6 0 10 -262144 -1 -1 256;
#X obj 10 690 hsl 128 15 16 96 0 0 \$0-pluck-25-half-strings-manual/Note5 \$0-pluck-25-half-strings-manual/Note5 Note5 -2 -6 0 10 -262144 -1 -1 0 1;
#X obj 160 690 nbx 5 14 16 96 0 0 \$0-pluck-25-half-strings-manual/Note5 \$0-pluck-25-half-strings-manual/Note5 empty 0 -6 0 10 -262144 -1 -1 256;
#X obj 10 720 hsl 128 15 16 96 0 0 \$0-pluck-25-half-strings-manual/Note6 \$0-pluck-25-half-strings-manual/Note6 Note6 -2 -6 0 10 -262144 -1 -1 0 1;
#X obj 160 720 nbx 5 14 16 96 0 0 \$0-pluck-25-half-strings-manual/Note6 \$0-pluck-25-half-strings-manual/Note6 empty 0 -6 0 10 -262144 -1 -1 256;
#X obj 10 750 hsl 128 15 16 96 0 0 \$0-pluck-25-half-strings-manual/Note7 \$0-pluck-25-half-strings-manual/Note7 Note7 -2 -6 0 10 -262144 -1 -1 0 1;
#X obj 160 750 nbx 5 14 16 96 0 0 \$0-pluck-25-half-strings-manual/Note7 \$0-pluck-25-half-strings-manual/Note7 empty 0 -6 0 10 -262144 -1 -1 256;
#X obj 10 780 hsl 128 15 16 96 0 0 \$0-pluck-25-half-strings-manual/Note8 \$0-pluck-25-half-strings-manual/Note8 Note8 -2 -6 0 10 -262144 -1 -1 0 1;
#X obj 160 780 nbx 5 14 16 96 0 0 \$0-pluck-25-half-strings-manual/Note8 \$0-pluck-25-half-strings-manual/Note8 empty 0 -6 0 10 -262144 -1 -1 256;
#X obj 10 810 hsl 128 15 16 96 0 0 \$0-pluck-25-half-strings-manual/Note9 \$0-pluck-25-half-strings-manual/Note9 Note9 -2 -6 0 10 -262144 -1 -1 0 1;
#X obj 160 810 nbx 5 14 16 96 0 0 \$0-pluck-25-half-strings-manual/Note9 \$0-pluck-25-half-strings-manual/Note9 empty 0 -6 0 10 -262144 -1 -1 256;
#X obj 10 840 hsl 128 15 0 3 0 0 \$0-pluck-25-half-strings-manual/Pluck-damping \$0-pluck-25-half-strings-manual/Pluck-damping Pluck-damping -2 -6 0 10 -262144 -1 -1 0 1;
#X obj 160 840 nbx 5 14 0 3 0 0 \$0-pluck-25-half-strings-manual/Pluck-damping \$0-pluck-25-half-strings-manual/Pluck-damping empty 0 -6 0 10 -262144 -1 -1 256;
#X obj 10 870 hsl 128 15 0.001 0.01 0 0 \$0-pluck-25-half-strings-manual/Pluck-half-width \$0-pluck-25-half-strings-manual/Pluck-half-width Pluck-half-width -2 -6 0 10 -262144 -1 -1 0 1;
#X obj 160 870 nbx 5 14 0.001 0.01 0 0 \$0-pluck-25-half-strings-manual/Pluck-half-width \$0-pluck-25-half-strings-manual/Pluck-half-width empty 0 -6 0 10 -262144 -1 -1 256;
#X obj 10 900 hsl 128 15 0 3 0 0 \$0-pluck-25-half-strings-manual/Pluck-scaler-1 \$0-pluck-25-half-strings-manual/Pluck-scaler-1 Pluck-scaler-1 -2 -6 0 10 -262144 -1 -1 0 1;
#X obj 160 900 nbx 5 14 0 3 0 0 \$0-pluck-25-half-strings-manual/Pluck-scaler-1 \$0-pluck-25-half-strings-manual/Pluck-scaler-1 empty 0 -6 0 10 -262144 -1 -1 256;
#X obj 10 930 hsl 128 15 0 3 0 0 \$0-pluck-25-half-strings-manual/Pluck-scaler-10 \$0-pluck-25-half-strings-manual/Pluck-scaler-10 Pluck-scaler-10 -2 -6 0 10 -262144 -1 -1 0 1;
#X obj 160 930 nbx 5 14 0 3 0 0 \$0-pluck-25-half-strings-manual/Pluck-scaler-10 \$0-pluck-25-half-strings-manual/Pluck-scaler-10 empty 0 -6 0 10 -262144 -1 -1 256;
#X obj 10 960 hsl 128 15 0 3 0 0 \$0-pluck-25-half-strings-manual/Pluck-scaler-11 \$0-pluck-25-half-strings-manual/Pluck-scaler-11 Pluck-scaler-11 -2 -6 0 10 -262144 -1 -1 0 1;
#X obj 160 960 nbx 5 14 0 3 0 0 \$0-pluck-25-half-strings-manual/Pluck-scaler-11 \$0-pluck-25-half-strings-manual/Pluck-scaler-11 empty 0 -6 0 10 -262144 -1 -1 256;
#X obj 10 990 hsl 128 15 0 3 0 0 \$0-pluck-25-half-strings-manual/Pluck-scaler-12 \$0-pluck-25-half-strings-manual/Pluck-scaler-12 Pluck-scaler-12 -2 -6 0 10 -262144 -1 -1 0 1;
#X obj 160 990 nbx 5 14 0 3 0 0 \$0-pluck-25-half-strings-manual/Pluck-scaler-12 \$0-pluck-25-half-strings-manual/Pluck-scaler-12 empty 0 -6 0 10 -262144 -1 -1 256;
#X obj 10 1020 hsl 128 15 0 3 0 0 \$0-pluck-25-half-strings-manual/Pluck-scaler-13 \$0-pluck-25-half-strings-manual/Pluck-scaler-13 Pluck-scaler-13 -2 -6 0 10 -262144 -1 -1 0 1;
#X obj 160 1020 nbx 5 14 0 3 0 0 \$0-pluck-25-half-strings-manual/Pluck-scaler-13 \$0-pluck-25-half-strings-manual/Pluck-scaler-13 empty 0 -6 0 10 -262144 -1 -1 256;
#X obj 10 1050 hsl 128 15 0 3 0 0 \$0-pluck-25-half-strings-manual/Pluck-scaler-14 \$0-pluck-25-half-strings-manual/Pluck-scaler-14 Pluck-scaler-14 -2 -6 0 10 -262144 -1 -1 0 1;
#X obj 160 1050 nbx 5 14 0 3 0 0 \$0-pluck-25-half-strings-manual/Pluck-scaler-14 \$0-pluck-25-half-strings-manual/Pluck-scaler-14 empty 0 -6 0 10 -262144 -1 -1 256;
#X obj 10 1080 hsl 128 15 0 3 0 0 \$0-pluck-25-half-strings-manual/Pluck-scaler-15 \$0-pluck-25-half-strings-manual/Pluck-scaler-15 Pluck-scaler-15 -2 -6 0 10 -262144 -1 -1 0 1;
#X obj 160 1080 nbx 5 14 0 3 0 0 \$0-pluck-25-half-strings-manual/Pluck-scaler-15 \$0-pluck-25-half-strings-manual/Pluck-scaler-15 empty 0 -6 0 10 -262144 -1 -1 256;
#X obj 10 1110 hsl 128 15 0 3 0 0 \$0-pluck-25-half-strings-manual/Pluck-scaler-16 \$0-pluck-25-half-strings-manual/Pluck-scaler-16 Pluck-scaler-16 -2 -6 0 10 -262144 -1 -1 0 1;
#X obj 160 1110 nbx 5 14 0 3 0 0 \$0-pluck-25-half-strings-manual/Pluck-scaler-16 \$0-pluck-25-half-strings-manual/Pluck-scaler-16 empty 0 -6 0 10 -262144 -1 -1 256;
#X obj 10 1140 hsl 128 15 0 3 0 0 \$0-pluck-25-half-strings-manual/Pluck-scaler-17 \$0-pluck-25-half-strings-manual/Pluck-scaler-17 Pluck-scaler-17 -2 -6 0 10 -262144 -1 -1 0 1;
#X obj 160 1140 nbx 5 14 0 3 0 0 \$0-pluck-25-half-strings-manual/Pluck-scaler-17 \$0-pluck-25-half-strings-manual/Pluck-scaler-17 empty 0 -6 0 10 -262144 -1 -1 256;
#X obj 10 1170 hsl 128 15 0 3 0 0 \$0-pluck-25-half-strings-manual/Pluck-scaler-18 \$0-pluck-25-half-strings-manual/Pluck-scaler-18 Pluck-scaler-18 -2 -6 0 10 -262144 -1 -1 0 1;
#X obj 160 1170 nbx 5 14 0 3 0 0 \$0-pluck-25-half-strings-manual/Pluck-scaler-18 \$0-pluck-25-half-strings-manual/Pluck-scaler-18 empty 0 -6 0 10 -262144 -1 -1 256;
#X obj 10 1200 hsl 128 15 0 3 0 0 \$0-pluck-25-half-strings-manual/Pluck-scaler-19 \$0-pluck-25-half-strings-manual/Pluck-scaler-19 Pluck-scaler-19 -2 -6 0 10 -262144 -1 -1 0 1;
#X obj 160 1200 nbx 5 14 0 3 0 0 \$0-pluck-25-half-strings-manual/Pluck-scaler-19 \$0-pluck-25-half-strings-manual/Pluck-scaler-19 empty 0 -6 0 10 -262144 -1 -1 256;
#X obj 10 1230 hsl 128 15 0 3 0 0 \$0-pluck-25-half-strings-manual/Pluck-scaler-2 \$0-pluck-25-half-strings-manual/Pluck-scaler-2 Pluck-scaler-2 -2 -6 0 10 -262144 -1 -1 0 1;
#X obj 160 1230 nbx 5 14 0 3 0 0 \$0-pluck-25-half-strings-manual/Pluck-scaler-2 \$0-pluck-25-half-strings-manual/Pluck-scaler-2 empty 0 -6 0 10 -262144 -1 -1 256;
#X obj 10 1260 hsl 128 15 0 3 0 0 \$0-pluck-25-half-strings-manual/Pluck-scaler-20 \$0-pluck-25-half-strings-manual/Pluck-scaler-20 Pluck-scaler-20 -2 -6 0 10 -262144 -1 -1 0 1;
#X obj 160 1260 nbx 5 14 0 3 0 0 \$0-pluck-25-half-strings-manual/Pluck-scaler-20 \$0-pluck-25-half-strings-manual/Pluck-scaler-20 empty 0 -6 0 10 -262144 -1 -1 256;
#X obj 10 1290 hsl 128 15 0 3 0 0 \$0-pluck-25-half-strings-manual/Pluck-scaler-21 \$0-pluck-25-half-strings-manual/Pluck-scaler-21 Pluck-scaler-21 -2 -6 0 10 -262144 -1 -1 0 1;
#X obj 160 1290 nbx 5 14 0 3 0 0 \$0-pluck-25-half-strings-manual/Pluck-scaler-21 \$0-pluck-25-half-strings-manual/Pluck-scaler-21 empty 0 -6 0 10 -262144 -1 -1 256;
#X obj 10 1320 hsl 128 15 0 3 0 0 \$0-pluck-25-half-strings-manual/Pluck-scaler-22 \$0-pluck-25-half-strings-manual/Pluck-scaler-22 Pluck-scaler-22 -2 -6 0 10 -262144 -1 -1 0 1;
#X obj 160 1320 nbx 5 14 0 3 0 0 \$0-pluck-25-half-strings-manual/Pluck-scaler-22 \$0-pluck-25-half-strings-manual/Pluck-scaler-22 empty 0 -6 0 10 -262144 -1 -1 256;
#X obj 10 1350 hsl 128 15 0 3 0 0 \$0-pluck-25-half-strings-manual/Pluck-scaler-23 \$0-pluck-25-half-strings-manual/Pluck-scaler-23 Pluck-scaler-23 -2 -6 0 10 -262144 -1 -1 0 1;
#X obj 160 1350 nbx 5 14 0 3 0 0 \$0-pluck-25-half-strings-manual/Pluck-scaler-23 \$0-pluck-25-half-strings-manual/Pluck-scaler-23 empty 0 -6 0 10 -262144 -1 -1 256;
#X obj 10 1380 hsl 128 15 0 3 0 0 \$0-pluck-25-half-strings-manual/Pluck-scaler-24 \$0-pluck-25-half-strings-manual/Pluck-scaler-24 Pluck-scaler-24 -2 -6 0 10 -262144 -1 -1 0 1;
#X obj 160 1380 nbx 5 14 0 3 0 0 \$0-pluck-25-half-strings-manual/Pluck-scaler-24 \$0-pluck-25-half-strings-manual/Pluck-scaler-24 empty 0 -6 0 10 -262144 -1 -1 256;
#X obj 10 1410 hsl 128 15 0 3 0 0 \$0-pluck-25-half-strings-manual/Pluck-scaler-25 \$0-pluck-25-half-strings-manual/Pluck-scaler-25 Pluck-scaler-25 -2 -6 0 10 -262144 -1 -1 0 1;
#X obj 160 1410 nbx 5 14 0 3 0 0 \$0-pluck-25-half-strings-manual/Pluck-scaler-25 \$0-pluck-25-half-strings-manual/Pluck-scaler-25 empty 0 -6 0 10 -262144 -1 -1 256;
#X obj 10 1440 hsl 128 15 0 3 0 0 \$0-pluck-25-half-strings-manual/Pluck-scaler-3 \$0-pluck-25-half-strings-manual/Pluck-scaler-3 Pluck-scaler-3 -2 -6 0 10 -262144 -1 -1 0 1;
#X obj 160 1440 nbx 5 14 0 3 0 0 \$0-pluck-25-half-strings-manual/Pluck-scaler-3 \$0-pluck-25-half-strings-manual/Pluck-scaler-3 empty 0 -6 0 10 -262144 -1 -1 256;
#X obj 10 1470 hsl 128 15 0 3 0 0 \$0-pluck-25-half-strings-manual/Pluck-scaler-4 \$0-pluck-25-half-strings-manual/Pluck-scaler-4 Pluck-scaler-4 -2 -6 0 10 -262144 -1 -1 0 1;
#X obj 160 1470 nbx 5 14 0 3 0 0 \$0-pluck-25-half-strings-manual/Pluck-scaler-4 \$0-pluck-25-half-strings-manual/Pluck-scaler-4 empty 0 -6 0 10 -262144 -1 -1 256;
#X obj 10 1500 hsl 128 15 0 3 0 0 \$0-pluck-25-half-strings-manual/Pluck-scaler-5 \$0-pluck-25-half-strings-manual/Pluck-scaler-5 Pluck-scaler-5 -2 -6 0 10 -262144 -1 -1 0 1;
#X obj 160 1500 nbx 5 14 0 3 0 0 \$0-pluck-25-half-strings-manual/Pluck-scaler-5 \$0-pluck-25-half-strings-manual/Pluck-scaler-5 empty 0 -6 0 10 -262144 -1 -1 256;
#X obj 10 1530 hsl 128 15 0 3 0 0 \$0-pluck-25-half-strings-manual/Pluck-scaler-6 \$0-pluck-25-half-strings-manual/Pluck-scaler-6 Pluck-scaler-6 -2 -6 0 10 -262144 -1 -1 0 1;
#X obj 160 1530 nbx 5 14 0 3 0 0 \$0-pluck-25-half-strings-manual/Pluck-scaler-6 \$0-pluck-25-half-strings-manual/Pluck-scaler-6 empty 0 -6 0 10 -262144 -1 -1 256;
#X obj 10 1560 hsl 128 15 0 3 0 0 \$0-pluck-25-half-strings-manual/Pluck-scaler-7 \$0-pluck-25-half-strings-manual/Pluck-scaler-7 Pluck-scaler-7 -2 -6 0 10 -262144 -1 -1 0 1;
#X obj 160 1560 nbx 5 14 0 3 0 0 \$0-pluck-25-half-strings-manual/Pluck-scaler-7 \$0-pluck-25-half-strings-manual/Pluck-scaler-7 empty 0 -6 0 10 -262144 -1 -1 256;
#X obj 10 1590 hsl 128 15 0 3 0 0 \$0-pluck-25-half-strings-manual/Pluck-scaler-8 \$0-pluck-25-half-strings-manual/Pluck-scaler-8 Pluck-scaler-8 -2 -6 0 10 -262144 -1 -1 0 1;
#X obj 160 1590 nbx 5 14 0 3 0 0 \$0-pluck-25-half-strings-manual/Pluck-scaler-8 \$0-pluck-25-half-strings-manual/Pluck-scaler-8 empty 0 -6 0 10 -262144 -1 -1 256;
#X obj 10 1620 hsl 128 15 0 3 0 0 \$0-pluck-25-half-strings-manual/Pluck-scaler-9 \$0-pluck-25-half-strings-manual/Pluck-scaler-9 Pluck-scaler-9 -2 -6 0 10 -262144 -1 -1 0 1;
#X obj 160 1620 nbx 5 14 0 3 0 0 \$0-pluck-25-half-strings-manual/Pluck-scaler-9 \$0-pluck-25-half-strings-manual/Pluck-scaler-9 empty 0 -6 0 10 -262144 -1 -1 256;
#X obj 10 1650 hsl 128 15 0 1000 0 0 \$0-pluck-25-half-strings-manual/Pluck-stiffness \$0-pluck-25-half-strings-manual/Pluck-stiffness Pluck-stiffness -2 -6 0 10 -262144 -1 -1 0 1;
#X obj 160 1650 nbx 5 14 0 1000 0 0 \$0-pluck-25-half-strings-manual/Pluck-stiffness \$0-pluck-25-half-strings-manual/Pluck-stiffness empty 0 -6 0 10 -262144 -1 -1 256;
#X obj 10 1680 hsl 128 15 0.1 50 0 0 \$0-pluck-25-half-strings-manual/T60 \$0-pluck-25-half-strings-manual/T60 T60 -2 -6 0 10 -262144 -1 -1 0 1;
#X obj 160 1680 nbx 5 14 0.1 50 0 0 \$0-pluck-25-half-strings-manual/T60 \$0-pluck-25-half-strings-manual/T60 empty 0 -6 0 10 -262144 -1 -1 256;
#X obj 10 1710 hsl 128 15 0.1 10 0 0 \$0-pluck-25-half-strings-manual/Wave-impedance \$0-pluck-25-half-strings-manual/Wave-impedance Wave-impedance -2 -6 0 10 -262144 -1 -1 0 1;
#X obj 160 1710 nbx 5 14 0.1 10 0 0 \$0-pluck-25-half-strings-manual/Wave-impedance \$0-pluck-25-half-strings-manual/Wave-impedance empty 0 -6 0 10 -262144 -1 -1 256;
#X obj 10 1740 hsl 128 15 0.1 1.4 0 0 \$0-pluck-25-half-strings-manual/Waveguides-position-adjustment \$0-pluck-25-half-strings-manual/Waveguides-position-adjustment Waveguides-position-adjustment -2 -6 0 10 -262144 -1 -1 0 1;
#X obj 160 1740 nbx 5 14 0.1 1.4 0 0 \$0-pluck-25-half-strings-manual/Waveguides-position-adjustment \$0-pluck-25-half-strings-manual/Waveguides-position-adjustment empty 0 -6 0 10 -262144 -1 -1 256;
#X obj 10 1770 hsl 128 15 0.01 1 0 0 \$0-pluck-25-half-strings-manual/Z-Volume \$0-pluck-25-half-strings-manual/Z-Volume Z-Volume -2 -6 0 10 -262144 -1 -1 0 1;
#X obj 160 1770 nbx 5 14 0.01 1 0 0 \$0-pluck-25-half-strings-manual/Z-Volume \$0-pluck-25-half-strings-manual/Z-Volume empty 0 -6 0 10 -262144 -1 -1 256;
#X obj 197 3 bng 15 250 50 1 \$0-init \$0-ignore empty 0 -6 0 10 -262144 -1 -1;
#X obj 217 3 tgl 15 1 \$0-active \$0-active empty 0 -6 0 10 -262144 -1 -1 1 1;
#X obj 450 10 r \$0-init;
#X obj 1010 10 s \$0-in;
#X obj 1290 10 s \$0-read;
#X obj 1570 10 r \$0-write;
#X msg 450 30 1;
#X obj 450 50 s \$0-active;
#X connect 138 0 139 0;
#X obj 1010 30 r \$0-active;
#X msg 1010 50 active \$1;
#X connect 140 0 141 0;
#X connect 141 0 135 0;
#X obj 1570 30 route active;
#X obj 1570 50 s \$0-active;
#X connect 137 0 142 0;
#X connect 142 0 143 0;
#X msg 450 70 30000;
#X obj 450 90 s \$0-pluck-25-half-strings-manual/Bridge-cutoff-freq-for-high-notes;
#X connect 134 0 144 0;
#X connect 144 0 145 0;
#X obj 1010 70 r \$0-pluck-25-half-strings-manual/Bridge-cutoff-freq-for-high-notes;
#X msg 1010 90 /pluck-25-half-strings-manual/Bridge-cutoff-freq-for-high-notes \$1;
#X connect 146 0 147 0;
#X connect 147 0 135 0;
#X obj 1570 70 route /pluck-25-half-strings-manual/Bridge-cutoff-freq-for-high-notes;
#X obj 1570 90 s \$0-pluck-25-half-strings-manual/Bridge-cutoff-freq-for-high-notes;
#X connect 142 1 148 0;
#X connect 148 0 149 0;
#X msg 450 110 2800;
#X obj 450 130 s \$0-pluck-25-half-strings-manual/Bridge-cutoff-freq-for-low-notes;
#X connect 134 0 150 0;
#X connect 150 0 151 0;
#X obj 1010 110 r \$0-pluck-25-half-strings-manual/Bridge-cutoff-freq-for-low-notes;
#X msg 1010 130 /pluck-25-half-strings-manual/Bridge-cutoff-freq-for-low-notes \$1;
#X connect 152 0 153 0;
#X connect 153 0 135 0;
#X obj 1570 110 route /pluck-25-half-strings-manual/Bridge-cutoff-freq-for-low-notes;
#X obj 1570 130 s \$0-pluck-25-half-strings-manual/Bridge-cutoff-freq-for-low-notes;
#X connect 148 1 154 0;
#X connect 154 0 155 0;
#X msg 450 150 30;
#X obj 450 170 s \$0-pluck-25-half-strings-manual/Note1;
#X connect 134 0 156 0;
#X connect 156 0 157 0;
#X obj 1010 150 r \$0-pluck-25-half-strings-manual/Note1;
#X msg 1010 170 /pluck-25-half-strings-manual/Note1 \$1;
#X connect 158 0 159 0;
#X connect 159 0 135 0;
#X obj 1570 150 route /pluck-25-half-strings-manual/Note1;
#X obj 1570 170 s \$0-pluck-25-half-strings-manual/Note1;
#X connect 154 1 160 0;
#X connect 160 0 161 0;
#X msg 450 190 58;
#X obj 450 210 s \$0-pluck-25-half-strings-manual/Note10;
#X connect 134 0 162 0;
#X connect 162 0 163 0;
#X obj 1010 190 r \$0-pluck-25-half-strings-manual/Note10;
#X msg 1010 210 /pluck-25-half-strings-manual/Note10 \$1;
#X connect 164 0 165 0;
#X connect 165 0 135 0;
#X obj 1570 190 route /pluck-25-half-strings-manual/Note10;
#X obj 1570 210 s \$0-pluck-25-half-strings-manual/Note10;
#X connect 160 1 166 0;
#X connect 166 0 167 0;
#X msg 450 230 58;
#X obj 450 250 s \$0-pluck-25-half-strings-manual/Note11;
#X connect 134 0 168 0;
#X connect 168 0 169 0;
#X obj 1010 230 r \$0-pluck-25-half-strings-manual/Note11;
#X msg 1010 250 /pluck-25-half-strings-manual/Note11 \$1;
#X connect 170 0 171 0;
#X connect 171 0 135 0;
#X obj 1570 230 route /pluck-25-half-strings-manual/Note11;
#X obj 1570 250 s \$0-pluck-25-half-strings-manual/Note11;
#X connect 166 1 172 0;
#X connect 172 0 173 0;
#X msg 450 270 58;
#X obj 450 290 s \$0-pluck-25-half-strings-manual/Note12;
#X connect 134 0 174 0;
#X connect 174 0 175 0;
#X obj 1010 270 r \$0-pluck-25-half-strings-manual/Note12;
#X msg 1010 290 /pluck-25-half-strings-manual/Note12 \$1;
#X connect 176 0 177 0;
#X connect 177 0 135 0;
#X obj 1570 270 route /pluck-25-half-strings-manual/Note12;
#X obj 1570 290 s \$0-pluck-25-half-strings-manual/Note12;
#X connect 172 1 178 0;
#X connect 178 0 179 0;
#X msg 450 310 58;
#X obj 450 330 s \$0-pluck-25-half-strings-manual/Note13;
#X connect 134 0 180 0;
#X connect 180 0 181 0;
#X obj 1010 310 r \$0-pluck-25-half-strings-manual/Note13;
#X msg 1010 330 /pluck-25-half-strings-manual/Note13 \$1;
#X connect 182 0 183 0;
#X connect 183 0 135 0;
#X obj 1570 310 route /pluck-25-half-strings-manual/Note13;
#X obj 1570 330 s \$0-pluck-25-half-strings-manual/Note13;
#X connect 178 1 184 0;
#X connect 184 0 185 0;
#X msg 450 350 58;
#X obj 450 370 s \$0-pluck-25-half-strings-manual/Note14;
#X connect 134 0 186 0;
#X connect 186 0 187 0;
#X obj 1010 350 r \$0-pluck-25-half-strings-manual/Note14;
#X msg 1010 370 /pluck-25-half-strings-manual/Note14 \$1;
#X connect 188 0 189 0;
#X connect 189 0 135 0;
#X obj 1570 350 route /pluck-25-half-strings-manual/Note14;
#X obj 1570 370 s \$0-pluck-25-half-strings-manual/Note14;
#X connect 184 1 190 0;
#X connect 190 0 191 0;
#X msg 450 390 58;
#X obj 450 410 s \$0-pluck-25-half-strings-manual/Note15;
#X connect 134 0 192 0;
#X connect 192 0 193 0;
#X obj 1010 390 r \$0-pluck-25-half-strings-manual/Note15;
#X msg 1010 410 /pluck-25-half-strings-manual/Note15 \$1;
#X connect 194 0 195 0;
#X connect 195 0 135 0;
#X obj 1570 390 route /pluck-25-half-strings-manual/Note15;
#X obj 1570 410 s \$0-pluck-25-half-strings-manual/Note15;
#X connect 190 1 196 0;
#X connect 196 0 197 0;
#X msg 450 430 58;
#X obj 450 450 s \$0-pluck-25-half-strings-manual/Note16;
#X connect 134 0 198 0;
#X connect 198 0 199 0;
#X obj 1010 430 r \$0-pluck-25-half-strings-manual/Note16;
#X msg 1010 450 /pluck-25-half-strings-manual/Note16 \$1;
#X connect 200 0 201 0;
#X connect 201 0 135 0;
#X obj 1570 430 route /pluck-25-half-strings-manual/Note16;
#X obj 1570 450 s \$0-pluck-25-half-strings-manual/Note16;
#X connect 196 1 202 0;
#X connect 202 0 203 0;
#X msg 450 470 58;
#X obj 450 490 s \$0-pluck-25-half-strings-manual/Note17;
#X connect 134 0 204 0;
#X connect 204 0 205 0;
#X obj 1010 470 r \$0-pluck-25-half-strings-manual/Note17;
#X msg 1010 490 /pluck-25-half-strings-manual/Note17 \$1;
#X connect 206 0 207 0;
#X connect 207 0 135 0;
#X obj 1570 470 route /pluck-25-half-strings-manual/Note17;
#X obj 1570 490 s \$0-pluck-25-half-strings-manual/Note17;
#X connect 202 1 208 0;
#X connect 208 0 209 0;
#X msg 450 510 58;
#X obj 450 530 s \$0-pluck-25-half-strings-manual/Note18;
#X connect 134 0 210 0;
#X connect 210 0 211 0;
#X obj 1010 510 r \$0-pluck-25-half-strings-manual/Note18;
#X msg 1010 530 /pluck-25-half-strings-manual/Note18 \$1;
#X connect 212 0 213 0;
#X connect 213 0 135 0;
#X obj 1570 510 route /pluck-25-half-strings-manual/Note18;
#X obj 1570 530 s \$0-pluck-25-half-strings-manual/Note18;
#X connect 208 1 214 0;
#X connect 214 0 215 0;
#X msg 450 550 58;
#X obj 450 570 s \$0-pluck-25-half-strings-manual/Note19;
#X connect 134 0 216 0;
#X connect 216 0 217 0;
#X obj 1010 550 r \$0-pluck-25-half-strings-manual/Note19;
#X msg 1010 570 /pluck-25-half-strings-manual/Note19 \$1;
#X connect 218 0 219 0;
#X connect 219 0 135 0;
#X obj 1570 550 route /pluck-25-half-strings-manual/Note19;
#X obj 1570 570 s \$0-pluck-25-half-strings-manual/Note19;
#X connect 214 1 220 0;
#X connect 220 0 221 0;
#X msg 450 590 42;
#X obj 450 610 s \$0-pluck-25-half-strings-manual/Note2;
#X connect 134 0 222 0;
#X connect 222 0 223 0;
#X obj 1010 590 r \$0-pluck-25-half-strings-manual/Note2;
#X msg 1010 610 /pluck-25-half-strings-manual/Note2 \$1;
#X connect 224 0 225 0;
#X connect 225 0 135 0;
#X obj 1570 590 route /pluck-25-half-strings-manual/Note2;
#X obj 1570 610 s \$0-pluck-25-half-strings-manual/Note2;
#X connect 220 1 226 0;
#X connect 226 0 227 0;
#X msg 450 630 58;
#X obj 450 650 s \$0-pluck-25-half-strings-manual/Note20;
#X connect 134 0 228 0;
#X connect 228 0 229 0;
#X obj 1010 630 r \$0-pluck-25-half-strings-manual/Note20;
#X msg 1010 650 /pluck-25-half-strings-manual/Note20 \$1;
#X connect 230 0 231 0;
#X connect 231 0 135 0;
#X obj 1570 630 route /pluck-25-half-strings-manual/Note20;
#X obj 1570 650 s \$0-pluck-25-half-strings-manual/Note20;
#X connect 226 1 232 0;
#X connect 232 0 233 0;
#X msg 450 670 58;
#X obj 450 690 s \$0-pluck-25-half-strings-manual/Note21;
#X connect 134 0 234 0;
#X connect 234 0 235 0;
#X obj 1010 670 r \$0-pluck-25-half-strings-manual/Note21;
#X msg 1010 690 /pluck-25-half-strings-manual/Note21 \$1;
#X connect 236 0 237 0;
#X connect 237 0 135 0;
#X obj 1570 670 route /pluck-25-half-strings-manual/Note21;
#X obj 1570 690 s \$0-pluck-25-half-strings-manual/Note21;
#X connect 232 1 238 0;
#X connect 238 0 239 0;
#X msg 450 710 58;
#X obj 450 730 s \$0-pluck-25-half-strings-manual/Note22;
#X connect 134 0 240 0;
#X connect 240 0 241 0;
#X obj 1010 710 r \$0-pluck-25-half-strings-manual/Note22;
#X msg 1010 730 /pluck-25-half-strings-manual/Note22 \$1;
#X connect 242 0 243 0;
#X connect 243 0 135 0;
#X obj 1570 710 route /pluck-25-half-strings-manual/Note22;
#X obj 1570 730 s \$0-pluck-25-half-strings-manual/Note22;
#X connect 238 1 244 0;
#X connect 244 0 245 0;
#X msg 450 750 58;
#X obj 450 770 s \$0-pluck-25-half-strings-manual/Note23;
#X connect 134 0 246 0;
#X connect 246 0 247 0;
#X obj 1010 750 r \$0-pluck-25-half-strings-manual/Note23;
#X msg 1010 770 /pluck-25-half-strings-manual/Note23 \$1;
#X connect 248 0 249 0;
#X connect 249 0 135 0;
#X obj 1570 750 route /pluck-25-half-strings-manual/Note23;
#X obj 1570 770 s \$0-pluck-25-half-strings-manual/Note23;
#X connect 244 1 250 0;
#X connect 250 0 251 0;
#X msg 450 790 58;
#X obj 450 810 s \$0-pluck-25-half-strings-manual/Note24;
#X connect 134 0 252 0;
#X connect 252 0 253 0;
#X obj 1010 790 r \$0-pluck-25-half-strings-manual/Note24;
#X msg 1010 810 /pluck-25-half-strings-manual/Note24 \$1;
#X connect 254 0 255 0;
#X connect 255 0 135 0;
#X obj 1570 790 route /pluck-25-half-strings-manual/Note24;
#X obj 1570 810 s \$0-pluck-25-half-strings-manual/Note24;
#X connect 250 1 256 0;
#X connect 256 0 257 0;
#X msg 450 830 58;
#X obj 450 850 s \$0-pluck-25-half-strings-manual/Note25;
#X connect 134 0 258 0;
#X connect 258 0 259 0;
#X obj 1010 830 r \$0-pluck-25-half-strings-manual/Note25;
#X msg 1010 850 /pluck-25-half-strings-manual/Note25 \$1;
#X connect 260 0 261 0;
#X connect 261 0 135 0;
#X obj 1570 830 route /pluck-25-half-strings-manual/Note25;
#X obj 1570 850 s \$0-pluck-25-half-strings-manual/Note25;
#X connect 256 1 262 0;
#X connect 262 0 263 0;
#X msg 450 870 46;
#X obj 450 890 s \$0-pluck-25-half-strings-manual/Note3;
#X connect 134 0 264 0;
#X connect 264 0 265 0;
#X obj 1010 870 r \$0-pluck-25-half-strings-manual/Note3;
#X msg 1010 890 /pluck-25-half-strings-manual/Note3 \$1;
#X connect 266 0 267 0;
#X connect 267 0 135 0;
#X obj 1570 870 route /pluck-25-half-strings-manual/Note3;
#X obj 1570 890 s \$0-pluck-25-half-strings-manual/Note3;
#X connect 262 1 268 0;
#X connect 268 0 269 0;
#X msg 450 910 49;
#X obj 450 930 s \$0-pluck-25-half-strings-manual/Note4;
#X connect 134 0 270 0;
#X connect 270 0 271 0;
#X obj 1010 910 r \$0-pluck-25-half-strings-manual/Note4;
#X msg 1010 930 /pluck-25-half-strings-manual/Note4 \$1;
#X connect 272 0 273 0;
#X connect 273 0 135 0;
#X obj 1570 910 route /pluck-25-half-strings-manual/Note4;
#X obj 1570 930 s \$0-pluck-25-half-strings-manual/Note4;
#X connect 268 1 274 0;
#X connect 274 0 275 0;
#X msg 450 950 54;
#X obj 450 970 s \$0-pluck-25-half-strings-manual/Note5;
#X connect 134 0 276 0;
#X connect 276 0 277 0;
#X obj 1010 950 r \$0-pluck-25-half-strings-manual/Note5;
#X msg 1010 970 /pluck-25-half-strings-manual/Note5 \$1;
#X connect 278 0 279 0;
#X connect 279 0 135 0;
#X obj 1570 950 route /pluck-25-half-strings-manual/Note5;
#X obj 1570 970 s \$0-pluck-25-half-strings-manual/Note5;
#X connect 274 1 280 0;
#X connect 280 0 281 0;
#X msg 450 990 58;
#X obj 450 1010 s \$0-pluck-25-half-strings-manual/Note6;
#X connect 134 0 282 0;
#X connect 282 0 283 0;
#X obj 1010 990 r \$0-pluck-25-half-strings-manual/Note6;
#X msg 1010 1010 /pluck-25-half-strings-manual/Note6 \$1;
#X connect 284 0 285 0;
#X connect 285 0 135 0;
#X obj 1570 990 route /pluck-25-half-strings-manual/Note6;
#X obj 1570 1010 s \$0-pluck-25-half-strings-manual/Note6;
#X connect 280 1 286 0;
#X connect 286 0 287 0;
#X msg 450 1030 58;
#X obj 450 1050 s \$0-pluck-25-half-strings-manual/Note7;
#X connect 134 0 288 0;
#X connect 288 0 289 0;
#X obj 1010 1030 r \$0-pluck-25-half-strings-manual/Note7;
#X msg 1010 1050 /pluck-25-half-strings-manual/Note7 \$1;
#X connect 290 0 291 0;
#X connect 291 0 135 0;
#X obj 1570 1030 route /pluck-25-half-strings-manual/Note7;
#X obj 1570 1050 s \$0-pluck-25-half-strings-manual/Note7;
#X connect 286 1 292 0;
#X connect 292 0 293 0;
#X msg 450 1070 58;
#X obj 450 1090 s \$0-pluck-25-half-strings-manual/Note8;
#X connect 134 0 294 0;
#X connect 294 0 295 0;
#X obj 1010 1070 r \$0-pluck-25-half-strings-manual/Note8;
#X msg 1010 1090 /pluck-25-half-strings-manual/Note8 \$1;
#X connect 296 0 297 0;
#X connect 297 0 135 0;
#X obj 1570 1070 route /pluck-25-half-strings-manual/Note8;
#X obj 1570 1090 s \$0-pluck-25-half-strings-manual/Note8;
#X connect 292 1 298 0;
#X connect 298 0 299 0;
#X msg 450 1110 58;
#X obj 450 1130 s \$0-pluck-25-half-strings-manual/Note9;
#X connect 134 0 300 0;
#X connect 300 0 301 0;
#X obj 1010 1110 r \$0-pluck-25-half-strings-manual/Note9;
#X msg 1010 1130 /pluck-25-half-strings-manual/Note9 \$1;
#X connect 302 0 303 0;
#X connect 303 0 135 0;
#X obj 1570 1110 route /pluck-25-half-strings-manual/Note9;
#X obj 1570 1130 s \$0-pluck-25-half-strings-manual/Note9;
#X connect 298 1 304 0;
#X connect 304 0 305 0;
#X msg 450 1150 0.4;
#X obj 450 1170 s \$0-pluck-25-half-strings-manual/Pluck-damping;
#X connect 134 0 306 0;
#X connect 306 0 307 0;
#X obj 1010 1150 r \$0-pluck-25-half-strings-manual/Pluck-damping;
#X msg 1010 1170 /pluck-25-half-strings-manual/Pluck-damping \$1;
#X connect 308 0 309 0;
#X connect 309 0 135 0;
#X obj 1570 1150 route /pluck-25-half-strings-manual/Pluck-damping;
#X obj 1570 1170 s \$0-pluck-25-half-strings-manual/Pluck-damping;
#X connect 304 1 310 0;
#X connect 310 0 311 0;
#X msg 450 1190 0.005;
#X obj 450 1210 s \$0-pluck-25-half-strings-manual/Pluck-half-width;
#X connect 134 0 312 0;
#X connect 312 0 313 0;
#X obj 1010 1190 r \$0-pluck-25-half-strings-manual/Pluck-half-width;
#X msg 1010 1210 /pluck-25-half-strings-manual/Pluck-half-width \$1;
#X connect 314 0 315 0;
#X connect 315 0 135 0;
#X obj 1570 1190 route /pluck-25-half-strings-manual/Pluck-half-width;
#X obj 1570 1210 s \$0-pluck-25-half-strings-manual/Pluck-half-width;
#X connect 310 1 316 0;
#X connect 316 0 317 0;
#X msg 450 1230 1;
#X obj 450 1250 s \$0-pluck-25-half-strings-manual/Pluck-scaler-1;
#X connect 134 0 318 0;
#X connect 318 0 319 0;
#X obj 1010 1230 r \$0-pluck-25-half-strings-manual/Pluck-scaler-1;
#X msg 1010 1250 /pluck-25-half-strings-manual/Pluck-scaler-1 \$1;
#X connect 320 0 321 0;
#X connect 321 0 135 0;
#X obj 1570 1230 route /pluck-25-half-strings-manual/Pluck-scaler-1;
#X obj 1570 1250 s \$0-pluck-25-half-strings-manual/Pluck-scaler-1;
#X connect 316 1 322 0;
#X connect 322 0 323 0;
#X msg 450 1270 1;
#X obj 450 1290 s \$0-pluck-25-half-strings-manual/Pluck-scaler-10;
#X connect 134 0 324 0;
#X connect 324 0 325 0;
#X obj 1010 1270 r \$0-pluck-25-half-strings-manual/Pluck-scaler-10;
#X msg 1010 1290 /pluck-25-half-strings-manual/Pluck-scaler-10 \$1;
#X connect 326 0 327 0;
#X connect 327 0 135 0;
#X obj 1570 1270 route /pluck-25-half-strings-manual/Pluck-scaler-10;
#X obj 1570 1290 s \$0-pluck-25-half-strings-manual/Pluck-scaler-10;
#X connect 322 1 328 0;
#X connect 328 0 329 0;
#X msg 450 1310 1;
#X obj 450 1330 s \$0-pluck-25-half-strings-manual/Pluck-scaler-11;
#X connect 134 0 330 0;
#X connect 330 0 331 0;
#X obj 1010 1310 r \$0-pluck-25-half-strings-manual/Pluck-scaler-11;
#X msg 1010 1330 /pluck-25-half-strings-manual/Pluck-scaler-11 \$1;
#X connect 332 0 333 0;
#X connect 333 0 135 0;
#X obj 1570 1310 route /pluck-25-half-strings-manual/Pluck-scaler-11;
#X obj 1570 1330 s \$0-pluck-25-half-strings-manual/Pluck-scaler-11;
#X connect 328 1 334 0;
#X connect 334 0 335 0;
#X msg 450 1350 1;
#X obj 450 1370 s \$0-pluck-25-half-strings-manual/Pluck-scaler-12;
#X connect 134 0 336 0;
#X connect 336 0 337 0;
#X obj 1010 1350 r \$0-pluck-25-half-strings-manual/Pluck-scaler-12;
#X msg 1010 1370 /pluck-25-half-strings-manual/Pluck-scaler-12 \$1;
#X connect 338 0 339 0;
#X connect 339 0 135 0;
#X obj 1570 1350 route /pluck-25-half-strings-manual/Pluck-scaler-12;
#X obj 1570 1370 s \$0-pluck-25-half-strings-manual/Pluck-scaler-12;
#X connect 334 1 340 0;
#X connect 340 0 341 0;
#X msg 450 1390 1;
#X obj 450 1410 s \$0-pluck-25-half-strings-manual/Pluck-scaler-13;
#X connect 134 0 342 0;
#X connect 342 0 343 0;
#X obj 1010 1390 r \$0-pluck-25-half-strings-manual/Pluck-scaler-13;
#X msg 1010 1410 /pluck-25-half-strings-manual/Pluck-scaler-13 \$1;
#X connect 344 0 345 0;
#X connect 345 0 135 0;
#X obj 1570 1390 route /pluck-25-half-strings-manual/Pluck-scaler-13;
#X obj 1570 1410 s \$0-pluck-25-half-strings-manual/Pluck-scaler-13;
#X connect 340 1 346 0;
#X connect 346 0 347 0;
#X msg 450 1430 1;
#X obj 450 1450 s \$0-pluck-25-half-strings-manual/Pluck-scaler-14;
#X connect 134 0 348 0;
#X connect 348 0 349 0;
#X obj 1010 1430 r \$0-pluck-25-half-strings-manual/Pluck-scaler-14;
#X msg 1010 1450 /pluck-25-half-strings-manual/Pluck-scaler-14 \$1;
#X connect 350 0 351 0;
#X connect 351 0 135 0;
#X obj 1570 1430 route /pluck-25-half-strings-manual/Pluck-scaler-14;
#X obj 1570 1450 s \$0-pluck-25-half-strings-manual/Pluck-scaler-14;
#X connect 346 1 352 0;
#X connect 352 0 353 0;
#X msg 450 1470 1;
#X obj 450 1490 s \$0-pluck-25-half-strings-manual/Pluck-scaler-15;
#X connect 134 0 354 0;
#X connect 354 0 355 0;
#X obj 1010 1470 r \$0-pluck-25-half-strings-manual/Pluck-scaler-15;
#X msg 1010 1490 /pluck-25-half-strings-manual/Pluck-scaler-15 \$1;
#X connect 356 0 357 0;
#X connect 357 0 135 0;
#X obj 1570 1470 route /pluck-25-half-strings-manual/Pluck-scaler-15;
#X obj 1570 1490 s \$0-pluck-25-half-strings-manual/Pluck-scaler-15;
#X connect 352 1 358 0;
#X connect 358 0 359 0;
#X msg 450 1510 1;
#X obj 450 1530 s \$0-pluck-25-half-strings-manual/Pluck-scaler-16;
#X connect 134 0 360 0;
#X connect 360 0 361 0;
#X obj 1010 1510 r \$0-pluck-25-half-strings-manual/Pluck-scaler-16;
#X msg 1010 1530 /pluck-25-half-strings-manual/Pluck-scaler-16 \$1;
#X connect 362 0 363 0;
#X connect 363 0 135 0;
#X obj 1570 1510 route /pluck-25-half-strings-manual/Pluck-scaler-16;
#X obj 1570 1530 s \$0-pluck-25-half-strings-manual/Pluck-scaler-16;
#X connect 358 1 364 0;
#X connect 364 0 365 0;
#X msg 450 1550 1;
#X obj 450 1570 s \$0-pluck-25-half-strings-manual/Pluck-scaler-17;
#X connect 134 0 366 0;
#X connect 366 0 367 0;
#X obj 1010 1550 r \$0-pluck-25-half-strings-manual/Pluck-scaler-17;
#X msg 1010 1570 /pluck-25-half-strings-manual/Pluck-scaler-17 \$1;
#X connect 368 0 369 0;
#X connect 369 0 135 0;
#X obj 1570 1550 route /pluck-25-half-strings-manual/Pluck-scaler-17;
#X obj 1570 1570 s \$0-pluck-25-half-strings-manual/Pluck-scaler-17;
#X connect 364 1 370 0;
#X connect 370 0 371 0;
#X msg 450 1590 1;
#X obj 450 1610 s \$0-pluck-25-half-strings-manual/Pluck-scaler-18;
#X connect 134 0 372 0;
#X connect 372 0 373 0;
#X obj 1010 1590 r \$0-pluck-25-half-strings-manual/Pluck-scaler-18;
#X msg 1010 1610 /pluck-25-half-strings-manual/Pluck-scaler-18 \$1;
#X connect 374 0 375 0;
#X connect 375 0 135 0;
#X obj 1570 1590 route /pluck-25-half-strings-manual/Pluck-scaler-18;
#X obj 1570 1610 s \$0-pluck-25-half-strings-manual/Pluck-scaler-18;
#X connect 370 1 376 0;
#X connect 376 0 377 0;
#X msg 450 1630 1;
#X obj 450 1650 s \$0-pluck-25-half-strings-manual/Pluck-scaler-19;
#X connect 134 0 378 0;
#X connect 378 0 379 0;
#X obj 1010 1630 r \$0-pluck-25-half-strings-manual/Pluck-scaler-19;
#X msg 1010 1650 /pluck-25-half-strings-manual/Pluck-scaler-19 \$1;
#X connect 380 0 381 0;
#X connect 381 0 135 0;
#X obj 1570 1630 route /pluck-25-half-strings-manual/Pluck-scaler-19;
#X obj 1570 1650 s \$0-pluck-25-half-strings-manual/Pluck-scaler-19;
#X connect 376 1 382 0;
#X connect 382 0 383 0;
#X msg 450 1670 1;
#X obj 450 1690 s \$0-pluck-25-half-strings-manual/Pluck-scaler-2;
#X connect 134 0 384 0;
#X connect 384 0 385 0;
#X obj 1010 1670 r \$0-pluck-25-half-strings-manual/Pluck-scaler-2;
#X msg 1010 1690 /pluck-25-half-strings-manual/Pluck-scaler-2 \$1;
#X connect 386 0 387 0;
#X connect 387 0 135 0;
#X obj 1570 1670 route /pluck-25-half-strings-manual/Pluck-scaler-2;
#X obj 1570 1690 s \$0-pluck-25-half-strings-manual/Pluck-scaler-2;
#X connect 382 1 388 0;
#X connect 388 0 389 0;
#X msg 450 1710 1;
#X obj 450 1730 s \$0-pluck-25-half-strings-manual/Pluck-scaler-20;
#X connect 134 0 390 0;
#X connect 390 0 391 0;
#X obj 1010 1710 r \$0-pluck-25-half-strings-manual/Pluck-scaler-20;
#X msg 1010 1730 /pluck-25-half-strings-manual/Pluck-scaler-20 \$1;
#X connect 392 0 393 0;
#X connect 393 0 135 0;
#X obj 1570 1710 route /pluck-25-half-strings-manual/Pluck-scaler-20;
#X obj 1570 1730 s \$0-pluck-25-half-strings-manual/Pluck-scaler-20;
#X connect 388 1 394 0;
#X connect 394 0 395 0;
#X msg 450 1750 1;
#X obj 450 1770 s \$0-pluck-25-half-strings-manual/Pluck-scaler-21;
#X connect 134 0 396 0;
#X connect 396 0 397 0;
#X obj 1010 1750 r \$0-pluck-25-half-strings-manual/Pluck-scaler-21;
#X msg 1010 1770 /pluck-25-half-strings-manual/Pluck-scaler-21 \$1;
#X connect 398 0 399 0;
#X connect 399 0 135 0;
#X obj 1570 1750 route /pluck-25-half-strings-manual/Pluck-scaler-21;
#X obj 1570 1770 s \$0-pluck-25-half-strings-manual/Pluck-scaler-21;
#X connect 394 1 400 0;
#X connect 400 0 401 0;
#X msg 450 1790 1;
#X obj 450 1810 s \$0-pluck-25-half-strings-manual/Pluck-scaler-22;
#X connect 134 0 402 0;
#X connect 402 0 403 0;
#X obj 1010 1790 r \$0-pluck-25-half-strings-manual/Pluck-scaler-22;
#X msg 1010 1810 /pluck-25-half-strings-manual/Pluck-scaler-22 \$1;
#X connect 404 0 405 0;
#X connect 405 0 135 0;
#X obj 1570 1790 route /pluck-25-half-strings-manual/Pluck-scaler-22;
#X obj 1570 1810 s \$0-pluck-25-half-strings-manual/Pluck-scaler-22;
#X connect 400 1 406 0;
#X connect 406 0 407 0;
#X msg 450 1830 1;
#X obj 450 1850 s \$0-pluck-25-half-strings-manual/Pluck-scaler-23;
#X connect 134 0 408 0;
#X connect 408 0 409 0;
#X obj 1010 1830 r \$0-pluck-25-half-strings-manual/Pluck-scaler-23;
#X msg 1010 1850 /pluck-25-half-strings-manual/Pluck-scaler-23 \$1;
#X connect 410 0 411 0;
#X connect 411 0 135 0;
#X obj 1570 1830 route /pluck-25-half-strings-manual/Pluck-scaler-23;
#X obj 1570 1850 s \$0-pluck-25-half-strings-manual/Pluck-scaler-23;
#X connect 406 1 412 0;
#X connect 412 0 413 0;
#X msg 450 1870 1;
#X obj 450 1890 s \$0-pluck-25-half-strings-manual/Pluck-scaler-24;
#X connect 134 0 414 0;
#X connect 414 0 415 0;
#X obj 1010 1870 r \$0-pluck-25-half-strings-manual/Pluck-scaler-24;
#X msg 1010 1890 /pluck-25-half-strings-manual/Pluck-scaler-24 \$1;
#X connect 416 0 417 0;
#X connect 417 0 135 0;
#X obj 1570 1870 route /pluck-25-half-strings-manual/Pluck-scaler-24;
#X obj 1570 1890 s \$0-pluck-25-half-strings-manual/Pluck-scaler-24;
#X connect 412 1 418 0;
#X connect 418 0 419 0;
#X msg 450 1910 1;
#X obj 450 1930 s \$0-pluck-25-half-strings-manual/Pluck-scaler-25;
#X connect 134 0 420 0;
#X connect 420 0 421 0;
#X obj 1010 1910 r \$0-pluck-25-half-strings-manual/Pluck-scaler-25;
#X msg 1010 1930 /pluck-25-half-strings-manual/Pluck-scaler-25 \$1;
#X connect 422 0 423 0;
#X connect 423 0 135 0;
#X obj 1570 1910 route /pluck-25-half-strings-manual/Pluck-scaler-25;
#X obj 1570 1930 s \$0-pluck-25-half-strings-manual/Pluck-scaler-25;
#X connect 418 1 424 0;
#X connect 424 0 425 0;
#X msg 450 1950 1;
#X obj 450 1970 s \$0-pluck-25-half-strings-manual/Pluck-scaler-3;
#X connect 134 0 426 0;
#X connect 426 0 427 0;
#X obj 1010 1950 r \$0-pluck-25-half-strings-manual/Pluck-scaler-3;
#X msg 1010 1970 /pluck-25-half-strings-manual/Pluck-scaler-3 \$1;
#X connect 428 0 429 0;
#X connect 429 0 135 0;
#X obj 1570 1950 route /pluck-25-half-strings-manual/Pluck-scaler-3;
#X obj 1570 1970 s \$0-pluck-25-half-strings-manual/Pluck-scaler-3;
#X connect 424 1 430 0;
#X connect 430 0 431 0;
#X msg 450 1990 1;
#X obj 450 2010 s \$0-pluck-25-half-strings-manual/Pluck-scaler-4;
#X connect 134 0 432 0;
#X connect 432 0 433 0;
#X obj 1010 1990 r \$0-pluck-25-half-strings-manual/Pluck-scaler-4;
#X msg 1010 2010 /pluck-25-half-strings-manual/Pluck-scaler-4 \$1;
#X connect 434 0 435 0;
#X connect 435 0 135 0;
#X obj 1570 1990 route /pluck-25-half-strings-manual/Pluck-scaler-4;
#X obj 1570 2010 s \$0-pluck-25-half-strings-manual/Pluck-scaler-4;
#X connect 430 1 436 0;
#X connect 436 0 437 0;
#X msg 450 2030 1;
#X obj 450 2050 s \$0-pluck-25-half-strings-manual/Pluck-scaler-5;
#X connect 134 0 438 0;
#X connect 438 0 439 0;
#X obj 1010 2030 r \$0-pluck-25-half-strings-manual/Pluck-scaler-5;
#X msg 1010 2050 /pluck-25-half-strings-manual/Pluck-scaler-5 \$1;
#X connect 440 0 441 0;
#X connect 441 0 135 0;
#X obj 1570 2030 route /pluck-25-half-strings-manual/Pluck-scaler-5;
#X obj 1570 2050 s \$0-pluck-25-half-strings-manual/Pluck-scaler-5;
#X connect 436 1 442 0;
#X connect 442 0 443 0;
#X msg 450 2070 1;
#X obj 450 2090 s \$0-pluck-25-half-strings-manual/Pluck-scaler-6;
#X connect 134 0 444 0;
#X connect 444 0 445 0;
#X obj 1010 2070 r \$0-pluck-25-half-strings-manual/Pluck-scaler-6;
#X msg 1010 2090 /pluck-25-half-strings-manual/Pluck-scaler-6 \$1;
#X connect 446 0 447 0;
#X connect 447 0 135 0;
#X obj 1570 2070 route /pluck-25-half-strings-manual/Pluck-scaler-6;
#X obj 1570 2090 s \$0-pluck-25-half-strings-manual/Pluck-scaler-6;
#X connect 442 1 448 0;
#X connect 448 0 449 0;
#X msg 450 2110 1;
#X obj 450 2130 s \$0-pluck-25-half-strings-manual/Pluck-scaler-7;
#X connect 134 0 450 0;
#X connect 450 0 451 0;
#X obj 1010 2110 r \$0-pluck-25-half-strings-manual/Pluck-scaler-7;
#X msg 1010 2130 /pluck-25-half-strings-manual/Pluck-scaler-7 \$1;
#X connect 452 0 453 0;
#X connect 453 0 135 0;
#X obj 1570 2110 route /pluck-25-half-strings-manual/Pluck-scaler-7;
#X obj 1570 2130 s \$0-pluck-25-half-strings-manual/Pluck-scaler-7;
#X connect 448 1 454 0;
#X connect 454 0 455 0;
#X msg 450 2150 1;
#X obj 450 2170 s \$0-pluck-25-half-strings-manual/Pluck-scaler-8;
#X connect 134 0 456 0;
#X connect 456 0 457 0;
#X obj 1010 2150 r \$0-pluck-25-half-strings-manual/Pluck-scaler-8;
#X msg 1010 2170 /pluck-25-half-strings-manual/Pluck-scaler-8 \$1;
#X connect 458 0 459 0;
#X connect 459 0 135 0;
#X obj 1570 2150 route /pluck-25-half-strings-manual/Pluck-scaler-8;
#X obj 1570 2170 s \$0-pluck-25-half-strings-manual/Pluck-scaler-8;
#X connect 454 1 460 0;
#X connect 460 0 461 0;
#X msg 450 2190 1;
#X obj 450 2210 s \$0-pluck-25-half-strings-manual/Pluck-scaler-9;
#X connect 134 0 462 0;
#X connect 462 0 463 0;
#X obj 1010 2190 r \$0-pluck-25-half-strings-manual/Pluck-scaler-9;
#X msg 1010 2210 /pluck-25-half-strings-manual/Pluck-scaler-9 \$1;
#X connect 464 0 465 0;
#X connect 465 0 135 0;
#X obj 1570 2190 route /pluck-25-half-strings-manual/Pluck-scaler-9;
#X obj 1570 2210 s \$0-pluck-25-half-strings-manual/Pluck-scaler-9;
#X connect 460 1 466 0;
#X connect 466 0 467 0;
#X msg 450 2230 150;
#X obj 450 2250 s \$0-pluck-25-half-strings-manual/Pluck-stiffness;
#X connect 134 0 468 0;
#X connect 468 0 469 0;
#X obj 1010 2230 r \$0-pluck-25-half-strings-manual/Pluck-stiffness;
#X msg 1010 2250 /pluck-25-half-strings-manual/Pluck-stiffness \$1;
#X connect 470 0 471 0;
#X connect 471 0 135 0;
#X obj 1570 2230 route /pluck-25-half-strings-manual/Pluck-stiffness;
#X obj 1570 2250 s \$0-pluck-25-half-strings-manual/Pluck-stiffness;
#X connect 466 1 472 0;
#X connect 472 0 473 0;
#X msg 450 2270 35;
#X obj 450 2290 s \$0-pluck-25-half-strings-manual/T60;
#X connect 134 0 474 0;
#X connect 474 0 475 0;
#X obj 1010 2270 r \$0-pluck-25-half-strings-manual/T60;
#X msg 1010 2290 /pluck-25-half-strings-manual/T60 \$1;
#X connect 476 0 477 0;
#X connect 477 0 135 0;
#X obj 1570 2270 route /pluck-25-half-strings-manual/T60;
#X obj 1570 2290 s \$0-pluck-25-half-strings-manual/T60;
#X connect 472 1 478 0;
#X connect 478 0 479 0;
#X msg 450 2310 1;
#X obj 450 2330 s \$0-pluck-25-half-strings-manual/Wave-impedance;
#X connect 134 0 480 0;
#X connect 480 0 481 0;
#X obj 1010 2310 r \$0-pluck-25-half-strings-manual/Wave-impedance;
#X msg 1010 2330 /pluck-25-half-strings-manual/Wave-impedance \$1;
#X connect 482 0 483 0;
#X connect 483 0 135 0;
#X obj 1570 2310 route /pluck-25-half-strings-manual/Wave-impedance;
#X obj 1570 2330 s \$0-pluck-25-half-strings-manual/Wave-impedance;
#X connect 478 1 484 0;
#X connect 484 0 485 0;
#X msg 450 2350 1;
#X obj 450 2370 s \$0-pluck-25-half-strings-manual/Waveguides-position-adjustment;
#X connect 134 0 486 0;
#X connect 486 0 487 0;
#X obj 1010 2350 r \$0-pluck-25-half-strings-manual/Waveguides-position-adjustment;
#X msg 1010 2370 /pluck-25-half-strings-manual/Waveguides-position-adjustment \$1;
#X connect 488 0 489 0;
#X connect 489 0 135 0;
#X obj 1570 2350 route /pluck-25-half-strings-manual/Waveguides-position-adjustment;
#X obj 1570 2370 s \$0-pluck-25-half-strings-manual/Waveguides-position-adjustment;
#X connect 484 1 490 0;
#X connect 490 0 491 0;
#X msg 450 2390 0.3;
#X obj 450 2410 s \$0-pluck-25-half-strings-manual/Z-Volume;
#X connect 134 0 492 0;
#X connect 492 0 493 0;
#X obj 1010 2390 r \$0-pluck-25-half-strings-manual/Z-Volume;
#X msg 1010 2410 /pluck-25-half-strings-manual/Z-Volume \$1;
#X connect 494 0 495 0;
#X connect 495 0 135 0;
#X obj 1570 2390 route /pluck-25-half-strings-manual/Z-Volume;
#X obj 1570 2410 s \$0-pluck-25-half-strings-manual/Z-Volume;
#X connect 490 1 496 0;
#X connect 496 0 497 0;
#X coords 0 -1 1 1 235 1790 1 0 0;
#X text 0 1810 Generated Thu Mar  7 06:27:03 2013 by faust2pd v2.5. See http://faust.grame.fr and http://pure-lang.googlecode.com.;
