#N canvas 0 0 450 300 10;
#X obj 70 570 inlet~;
#X obj 130 570 inlet~;
#X obj 10 570 inlet;
#X obj 190 570 r \$0-read;
#X obj 190 600 faust-control \$0;
#X obj 190 630 s \$0-write;
#X obj 10 630 r \$0-in;
#X obj 10 660 pluck_six_half_strings~;
#X obj 10 690 s \$0-out;
#X obj 70 720 outlet~;
#X obj 130 720 outlet~;
#X obj 190 720 outlet~;
#X obj 250 720 outlet~;
#X obj 10 720 outlet;
#X connect 2 0 4 0;
#X connect 3 0 4 0;
#X connect 4 0 5 0;
#X connect 7 0 8 0;
#X connect 2 0 13 0;
#X connect 6 0 7 0;
#X connect 0 0 7 1;
#X connect 1 0 7 2;
#X connect 7 1 9 0;
#X connect 7 2 10 0;
#X connect 7 3 11 0;
#X connect 7 4 12 0;
#X obj 10 30 hsl 128 15 1000 44100 0 0 \$0-pluck-six-half-strings/Bridge-cutoff-freq-for-high-notes \$0-pluck-six-half-strings/Bridge-cutoff-freq-for-high-notes Bridge-cutoff-freq-for-high-notes -2 -6 0 10 -262144 -1 -1 0 1;
#X obj 160 30 nbx 5 14 1000 44100 0 0 \$0-pluck-six-half-strings/Bridge-cutoff-freq-for-high-notes \$0-pluck-six-half-strings/Bridge-cutoff-freq-for-high-notes empty 0 -6 0 10 -262144 -1 -1 256;
#X obj 10 60 hsl 128 15 1000 44100 0 0 \$0-pluck-six-half-strings/Bridge-cutoff-freq-for-low-notes \$0-pluck-six-half-strings/Bridge-cutoff-freq-for-low-notes Bridge-cutoff-freq-for-low-notes -2 -6 0 10 -262144 -1 -1 0 1;
#X obj 160 60 nbx 5 14 1000 44100 0 0 \$0-pluck-six-half-strings/Bridge-cutoff-freq-for-low-notes \$0-pluck-six-half-strings/Bridge-cutoff-freq-for-low-notes empty 0 -6 0 10 -262144 -1 -1 256;
#X obj 10 90 hsl 128 15 16 96 0 0 \$0-pluck-six-half-strings/Note1 \$0-pluck-six-half-strings/Note1 Note1 -2 -6 0 10 -262144 -1 -1 0 1;
#X obj 160 90 nbx 5 14 16 96 0 0 \$0-pluck-six-half-strings/Note1 \$0-pluck-six-half-strings/Note1 empty 0 -6 0 10 -262144 -1 -1 256;
#X obj 10 120 hsl 128 15 16 96 0 0 \$0-pluck-six-half-strings/Note2 \$0-pluck-six-half-strings/Note2 Note2 -2 -6 0 10 -262144 -1 -1 0 1;
#X obj 160 120 nbx 5 14 16 96 0 0 \$0-pluck-six-half-strings/Note2 \$0-pluck-six-half-strings/Note2 empty 0 -6 0 10 -262144 -1 -1 256;
#X obj 10 150 hsl 128 15 16 96 0 0 \$0-pluck-six-half-strings/Note3 \$0-pluck-six-half-strings/Note3 Note3 -2 -6 0 10 -262144 -1 -1 0 1;
#X obj 160 150 nbx 5 14 16 96 0 0 \$0-pluck-six-half-strings/Note3 \$0-pluck-six-half-strings/Note3 empty 0 -6 0 10 -262144 -1 -1 256;
#X obj 10 180 hsl 128 15 16 96 0 0 \$0-pluck-six-half-strings/Note4 \$0-pluck-six-half-strings/Note4 Note4 -2 -6 0 10 -262144 -1 -1 0 1;
#X obj 160 180 nbx 5 14 16 96 0 0 \$0-pluck-six-half-strings/Note4 \$0-pluck-six-half-strings/Note4 empty 0 -6 0 10 -262144 -1 -1 256;
#X obj 10 210 hsl 128 15 16 96 0 0 \$0-pluck-six-half-strings/Note5 \$0-pluck-six-half-strings/Note5 Note5 -2 -6 0 10 -262144 -1 -1 0 1;
#X obj 160 210 nbx 5 14 16 96 0 0 \$0-pluck-six-half-strings/Note5 \$0-pluck-six-half-strings/Note5 empty 0 -6 0 10 -262144 -1 -1 256;
#X obj 10 240 hsl 128 15 16 96 0 0 \$0-pluck-six-half-strings/Note6 \$0-pluck-six-half-strings/Note6 Note6 -2 -6 0 10 -262144 -1 -1 0 1;
#X obj 160 240 nbx 5 14 16 96 0 0 \$0-pluck-six-half-strings/Note6 \$0-pluck-six-half-strings/Note6 empty 0 -6 0 10 -262144 -1 -1 256;
#X obj 10 270 hsl 128 15 0 3 0 0 \$0-pluck-six-half-strings/Pluck-damping \$0-pluck-six-half-strings/Pluck-damping Pluck-damping -2 -6 0 10 -262144 -1 -1 0 1;
#X obj 160 270 nbx 5 14 0 3 0 0 \$0-pluck-six-half-strings/Pluck-damping \$0-pluck-six-half-strings/Pluck-damping empty 0 -6 0 10 -262144 -1 -1 256;
#X obj 10 300 hsl 128 15 0.001 0.01 0 0 \$0-pluck-six-half-strings/Pluck-half-width \$0-pluck-six-half-strings/Pluck-half-width Pluck-half-width -2 -6 0 10 -262144 -1 -1 0 1;
#X obj 160 300 nbx 5 14 0.001 0.01 0 0 \$0-pluck-six-half-strings/Pluck-half-width \$0-pluck-six-half-strings/Pluck-half-width empty 0 -6 0 10 -262144 -1 -1 256;
#X obj 10 330 hsl 128 15 0 3 0 0 \$0-pluck-six-half-strings/Pluck-impedance-scaler \$0-pluck-six-half-strings/Pluck-impedance-scaler Pluck-impedance-scaler -2 -6 0 10 -262144 -1 -1 0 1;
#X obj 160 330 nbx 5 14 0 3 0 0 \$0-pluck-six-half-strings/Pluck-impedance-scaler \$0-pluck-six-half-strings/Pluck-impedance-scaler empty 0 -6 0 10 -262144 -1 -1 256;
#X obj 10 360 hsl 128 15 0 1000 0 0 \$0-pluck-six-half-strings/Pluck-stiffness \$0-pluck-six-half-strings/Pluck-stiffness Pluck-stiffness -2 -6 0 10 -262144 -1 -1 0 1;
#X obj 160 360 nbx 5 14 0 1000 0 0 \$0-pluck-six-half-strings/Pluck-stiffness \$0-pluck-six-half-strings/Pluck-stiffness empty 0 -6 0 10 -262144 -1 -1 256;
#X obj 10 390 hsl 128 15 0.1 50 0 0 \$0-pluck-six-half-strings/T60 \$0-pluck-six-half-strings/T60 T60 -2 -6 0 10 -262144 -1 -1 0 1;
#X obj 160 390 nbx 5 14 0.1 50 0 0 \$0-pluck-six-half-strings/T60 \$0-pluck-six-half-strings/T60 empty 0 -6 0 10 -262144 -1 -1 256;
#X obj 10 420 hsl 128 15 0.1 10 0 0 \$0-pluck-six-half-strings/Wave-impedance \$0-pluck-six-half-strings/Wave-impedance Wave-impedance -2 -6 0 10 -262144 -1 -1 0 1;
#X obj 160 420 nbx 5 14 0.1 10 0 0 \$0-pluck-six-half-strings/Wave-impedance \$0-pluck-six-half-strings/Wave-impedance empty 0 -6 0 10 -262144 -1 -1 256;
#X obj 10 450 hsl 128 15 0.1 1.4 0 0 \$0-pluck-six-half-strings/Waveguides-position-adjustment \$0-pluck-six-half-strings/Waveguides-position-adjustment Waveguides-position-adjustment -2 -6 0 10 -262144 -1 -1 0 1;
#X obj 160 450 nbx 5 14 0.1 1.4 0 0 \$0-pluck-six-half-strings/Waveguides-position-adjustment \$0-pluck-six-half-strings/Waveguides-position-adjustment empty 0 -6 0 10 -262144 -1 -1 256;
#X obj 10 480 hsl 128 15 0.01 1 0 0 \$0-pluck-six-half-strings/Z-Volume \$0-pluck-six-half-strings/Z-Volume Z-Volume -2 -6 0 10 -262144 -1 -1 0 1;
#X obj 160 480 nbx 5 14 0.01 1 0 0 \$0-pluck-six-half-strings/Z-Volume \$0-pluck-six-half-strings/Z-Volume empty 0 -6 0 10 -262144 -1 -1 256;
#X obj 197 3 bng 15 250 50 1 \$0-init \$0-ignore empty 0 -6 0 10 -262144 -1 -1;
#X obj 217 3 tgl 15 1 \$0-active \$0-active empty 0 -6 0 10 -262144 -1 -1 1 1;
#X obj 450 10 r \$0-init;
#X obj 962 10 s \$0-in;
#X obj 1218 10 s \$0-read;
#X obj 1474 10 r \$0-write;
#X msg 450 30 1;
#X obj 450 50 s \$0-active;
#X connect 52 0 53 0;
#X obj 962 30 r \$0-active;
#X msg 962 50 active \$1;
#X connect 54 0 55 0;
#X connect 55 0 49 0;
#X obj 1474 30 route active;
#X obj 1474 50 s \$0-active;
#X connect 51 0 56 0;
#X connect 56 0 57 0;
#X msg 450 70 30000;
#X obj 450 90 s \$0-pluck-six-half-strings/Bridge-cutoff-freq-for-high-notes;
#X connect 48 0 58 0;
#X connect 58 0 59 0;
#X obj 962 70 r \$0-pluck-six-half-strings/Bridge-cutoff-freq-for-high-notes;
#X msg 962 90 /pluck-six-half-strings/Bridge-cutoff-freq-for-high-notes \$1;
#X connect 60 0 61 0;
#X connect 61 0 49 0;
#X obj 1474 70 route /pluck-six-half-strings/Bridge-cutoff-freq-for-high-notes;
#X obj 1474 90 s \$0-pluck-six-half-strings/Bridge-cutoff-freq-for-high-notes;
#X connect 56 1 62 0;
#X connect 62 0 63 0;
#X msg 450 110 2800;
#X obj 450 130 s \$0-pluck-six-half-strings/Bridge-cutoff-freq-for-low-notes;
#X connect 48 0 64 0;
#X connect 64 0 65 0;
#X obj 962 110 r \$0-pluck-six-half-strings/Bridge-cutoff-freq-for-low-notes;
#X msg 962 130 /pluck-six-half-strings/Bridge-cutoff-freq-for-low-notes \$1;
#X connect 66 0 67 0;
#X connect 67 0 49 0;
#X obj 1474 110 route /pluck-six-half-strings/Bridge-cutoff-freq-for-low-notes;
#X obj 1474 130 s \$0-pluck-six-half-strings/Bridge-cutoff-freq-for-low-notes;
#X connect 62 1 68 0;
#X connect 68 0 69 0;
#X msg 450 150 30;
#X obj 450 170 s \$0-pluck-six-half-strings/Note1;
#X connect 48 0 70 0;
#X connect 70 0 71 0;
#X obj 962 150 r \$0-pluck-six-half-strings/Note1;
#X msg 962 170 /pluck-six-half-strings/Note1 \$1;
#X connect 72 0 73 0;
#X connect 73 0 49 0;
#X obj 1474 150 route /pluck-six-half-strings/Note1;
#X obj 1474 170 s \$0-pluck-six-half-strings/Note1;
#X connect 68 1 74 0;
#X connect 74 0 75 0;
#X msg 450 190 42;
#X obj 450 210 s \$0-pluck-six-half-strings/Note2;
#X connect 48 0 76 0;
#X connect 76 0 77 0;
#X obj 962 190 r \$0-pluck-six-half-strings/Note2;
#X msg 962 210 /pluck-six-half-strings/Note2 \$1;
#X connect 78 0 79 0;
#X connect 79 0 49 0;
#X obj 1474 190 route /pluck-six-half-strings/Note2;
#X obj 1474 210 s \$0-pluck-six-half-strings/Note2;
#X connect 74 1 80 0;
#X connect 80 0 81 0;
#X msg 450 230 46;
#X obj 450 250 s \$0-pluck-six-half-strings/Note3;
#X connect 48 0 82 0;
#X connect 82 0 83 0;
#X obj 962 230 r \$0-pluck-six-half-strings/Note3;
#X msg 962 250 /pluck-six-half-strings/Note3 \$1;
#X connect 84 0 85 0;
#X connect 85 0 49 0;
#X obj 1474 230 route /pluck-six-half-strings/Note3;
#X obj 1474 250 s \$0-pluck-six-half-strings/Note3;
#X connect 80 1 86 0;
#X connect 86 0 87 0;
#X msg 450 270 49;
#X obj 450 290 s \$0-pluck-six-half-strings/Note4;
#X connect 48 0 88 0;
#X connect 88 0 89 0;
#X obj 962 270 r \$0-pluck-six-half-strings/Note4;
#X msg 962 290 /pluck-six-half-strings/Note4 \$1;
#X connect 90 0 91 0;
#X connect 91 0 49 0;
#X obj 1474 270 route /pluck-six-half-strings/Note4;
#X obj 1474 290 s \$0-pluck-six-half-strings/Note4;
#X connect 86 1 92 0;
#X connect 92 0 93 0;
#X msg 450 310 54;
#X obj 450 330 s \$0-pluck-six-half-strings/Note5;
#X connect 48 0 94 0;
#X connect 94 0 95 0;
#X obj 962 310 r \$0-pluck-six-half-strings/Note5;
#X msg 962 330 /pluck-six-half-strings/Note5 \$1;
#X connect 96 0 97 0;
#X connect 97 0 49 0;
#X obj 1474 310 route /pluck-six-half-strings/Note5;
#X obj 1474 330 s \$0-pluck-six-half-strings/Note5;
#X connect 92 1 98 0;
#X connect 98 0 99 0;
#X msg 450 350 58;
#X obj 450 370 s \$0-pluck-six-half-strings/Note6;
#X connect 48 0 100 0;
#X connect 100 0 101 0;
#X obj 962 350 r \$0-pluck-six-half-strings/Note6;
#X msg 962 370 /pluck-six-half-strings/Note6 \$1;
#X connect 102 0 103 0;
#X connect 103 0 49 0;
#X obj 1474 350 route /pluck-six-half-strings/Note6;
#X obj 1474 370 s \$0-pluck-six-half-strings/Note6;
#X connect 98 1 104 0;
#X connect 104 0 105 0;
#X msg 450 390 0.4;
#X obj 450 410 s \$0-pluck-six-half-strings/Pluck-damping;
#X connect 48 0 106 0;
#X connect 106 0 107 0;
#X obj 962 390 r \$0-pluck-six-half-strings/Pluck-damping;
#X msg 962 410 /pluck-six-half-strings/Pluck-damping \$1;
#X connect 108 0 109 0;
#X connect 109 0 49 0;
#X obj 1474 390 route /pluck-six-half-strings/Pluck-damping;
#X obj 1474 410 s \$0-pluck-six-half-strings/Pluck-damping;
#X connect 104 1 110 0;
#X connect 110 0 111 0;
#X msg 450 430 0.005;
#X obj 450 450 s \$0-pluck-six-half-strings/Pluck-half-width;
#X connect 48 0 112 0;
#X connect 112 0 113 0;
#X obj 962 430 r \$0-pluck-six-half-strings/Pluck-half-width;
#X msg 962 450 /pluck-six-half-strings/Pluck-half-width \$1;
#X connect 114 0 115 0;
#X connect 115 0 49 0;
#X obj 1474 430 route /pluck-six-half-strings/Pluck-half-width;
#X obj 1474 450 s \$0-pluck-six-half-strings/Pluck-half-width;
#X connect 110 1 116 0;
#X connect 116 0 117 0;
#X msg 450 470 1;
#X obj 450 490 s \$0-pluck-six-half-strings/Pluck-impedance-scaler;
#X connect 48 0 118 0;
#X connect 118 0 119 0;
#X obj 962 470 r \$0-pluck-six-half-strings/Pluck-impedance-scaler;
#X msg 962 490 /pluck-six-half-strings/Pluck-impedance-scaler \$1;
#X connect 120 0 121 0;
#X connect 121 0 49 0;
#X obj 1474 470 route /pluck-six-half-strings/Pluck-impedance-scaler;
#X obj 1474 490 s \$0-pluck-six-half-strings/Pluck-impedance-scaler;
#X connect 116 1 122 0;
#X connect 122 0 123 0;
#X msg 450 510 150;
#X obj 450 530 s \$0-pluck-six-half-strings/Pluck-stiffness;
#X connect 48 0 124 0;
#X connect 124 0 125 0;
#X obj 962 510 r \$0-pluck-six-half-strings/Pluck-stiffness;
#X msg 962 530 /pluck-six-half-strings/Pluck-stiffness \$1;
#X connect 126 0 127 0;
#X connect 127 0 49 0;
#X obj 1474 510 route /pluck-six-half-strings/Pluck-stiffness;
#X obj 1474 530 s \$0-pluck-six-half-strings/Pluck-stiffness;
#X connect 122 1 128 0;
#X connect 128 0 129 0;
#X msg 450 550 35;
#X obj 450 570 s \$0-pluck-six-half-strings/T60;
#X connect 48 0 130 0;
#X connect 130 0 131 0;
#X obj 962 550 r \$0-pluck-six-half-strings/T60;
#X msg 962 570 /pluck-six-half-strings/T60 \$1;
#X connect 132 0 133 0;
#X connect 133 0 49 0;
#X obj 1474 550 route /pluck-six-half-strings/T60;
#X obj 1474 570 s \$0-pluck-six-half-strings/T60;
#X connect 128 1 134 0;
#X connect 134 0 135 0;
#X msg 450 590 1;
#X obj 450 610 s \$0-pluck-six-half-strings/Wave-impedance;
#X connect 48 0 136 0;
#X connect 136 0 137 0;
#X obj 962 590 r \$0-pluck-six-half-strings/Wave-impedance;
#X msg 962 610 /pluck-six-half-strings/Wave-impedance \$1;
#X connect 138 0 139 0;
#X connect 139 0 49 0;
#X obj 1474 590 route /pluck-six-half-strings/Wave-impedance;
#X obj 1474 610 s \$0-pluck-six-half-strings/Wave-impedance;
#X connect 134 1 140 0;
#X connect 140 0 141 0;
#X msg 450 630 1;
#X obj 450 650 s \$0-pluck-six-half-strings/Waveguides-position-adjustment;
#X connect 48 0 142 0;
#X connect 142 0 143 0;
#X obj 962 630 r \$0-pluck-six-half-strings/Waveguides-position-adjustment;
#X msg 962 650 /pluck-six-half-strings/Waveguides-position-adjustment \$1;
#X connect 144 0 145 0;
#X connect 145 0 49 0;
#X obj 1474 630 route /pluck-six-half-strings/Waveguides-position-adjustment;
#X obj 1474 650 s \$0-pluck-six-half-strings/Waveguides-position-adjustment;
#X connect 140 1 146 0;
#X connect 146 0 147 0;
#X msg 450 670 0.3;
#X obj 450 690 s \$0-pluck-six-half-strings/Z-Volume;
#X connect 48 0 148 0;
#X connect 148 0 149 0;
#X obj 962 670 r \$0-pluck-six-half-strings/Z-Volume;
#X msg 962 690 /pluck-six-half-strings/Z-Volume \$1;
#X connect 150 0 151 0;
#X connect 151 0 49 0;
#X obj 1474 670 route /pluck-six-half-strings/Z-Volume;
#X obj 1474 690 s \$0-pluck-six-half-strings/Z-Volume;
#X connect 146 1 152 0;
#X connect 152 0 153 0;
#X coords 0 -1 1 1 235 500 1 0 0;
#X text 0 520 Generated Thu Mar  7 06:27:04 2013 by faust2pd v2.5. See http://faust.grame.fr and http://pure-lang.googlecode.com.;
