#N canvas 0 0 450 300 10;
#X obj 70 300 inlet~;
#X obj 130 300 inlet~;
#X obj 10 300 inlet;
#X obj 190 300 r \$0-read;
#X obj 190 330 faust-control \$0;
#X obj 190 360 s \$0-write;
#X obj 10 360 r \$0-in;
#X obj 10 390 random_string_150_all_touches~;
#X obj 10 420 s \$0-out;
#X obj 70 450 outlet~;
#X obj 130 450 outlet~;
#X obj 190 450 outlet~;
#X obj 250 450 outlet~;
#X obj 10 450 outlet;
#X connect 2 0 4 0;
#X connect 3 0 4 0;
#X connect 4 0 5 0;
#X connect 7 0 8 0;
#X connect 2 0 13 0;
#X connect 6 0 7 0;
#X connect 0 0 7 1;
#X connect 1 0 7 2;
#X connect 7 1 9 0;
#X connect 7 2 10 0;
#X connect 7 3 11 0;
#X connect 7 4 12 0;
#X obj 10 30 hsl 128 15 0.0001 0.1 0 0 \$0-random-string-150-all-touches/Device-damping \$0-random-string-150-all-touches/Device-damping Device-damping -2 -6 0 10 -262144 -1 -1 0 1;
#X obj 160 30 nbx 5 14 0.0001 0.1 0 0 \$0-random-string-150-all-touches/Device-damping \$0-random-string-150-all-touches/Device-damping empty 0 -6 0 10 -262144 -1 -1 256;
#X obj 10 60 hsl 128 15 100 10000 0 0 \$0-random-string-150-all-touches/Device-stiffness \$0-random-string-150-all-touches/Device-stiffness Device-stiffness -2 -6 0 10 -262144 -1 -1 0 1;
#X obj 160 60 nbx 5 14 100 10000 0 0 \$0-random-string-150-all-touches/Device-stiffness \$0-random-string-150-all-touches/Device-stiffness empty 0 -6 0 10 -262144 -1 -1 256;
#X obj 10 90 hsl 128 15 0.0001 0.1 0 0 \$0-random-string-150-all-touches/Linear-damping \$0-random-string-150-all-touches/Linear-damping Linear-damping -2 -6 0 10 -262144 -1 -1 0 1;
#X obj 160 90 nbx 5 14 0.0001 0.1 0 0 \$0-random-string-150-all-touches/Linear-damping \$0-random-string-150-all-touches/Linear-damping empty 0 -6 0 10 -262144 -1 -1 256;
#X obj 10 120 hsl 128 15 100 10000 0 0 \$0-random-string-150-all-touches/Linear-stiffness \$0-random-string-150-all-touches/Linear-stiffness Linear-stiffness -2 -6 0 10 -262144 -1 -1 0 1;
#X obj 160 120 nbx 5 14 100 10000 0 0 \$0-random-string-150-all-touches/Linear-stiffness \$0-random-string-150-all-touches/Linear-stiffness empty 0 -6 0 10 -262144 -1 -1 256;
#X obj 10 150 hsl 128 15 1e-05 0.008 0 0 \$0-random-string-150-all-touches/Mass-for-string-point \$0-random-string-150-all-touches/Mass-for-string-point Mass-for-string-point -2 -6 0 10 -262144 -1 -1 0 1;
#X obj 160 150 nbx 5 14 1e-05 0.008 0 0 \$0-random-string-150-all-touches/Mass-for-string-point \$0-random-string-150-all-touches/Mass-for-string-point empty 0 -6 0 10 -262144 -1 -1 256;
#X obj 10 180 hsl 128 15 0.0001 0.1 0 0 \$0-random-string-150-all-touches/Touch-damping \$0-random-string-150-all-touches/Touch-damping Touch-damping -2 -6 0 10 -262144 -1 -1 0 1;
#X obj 160 180 nbx 5 14 0.0001 0.1 0 0 \$0-random-string-150-all-touches/Touch-damping \$0-random-string-150-all-touches/Touch-damping empty 0 -6 0 10 -262144 -1 -1 256;
#X obj 10 210 hsl 128 15 100 10000 0 0 \$0-random-string-150-all-touches/Touch-stiffness \$0-random-string-150-all-touches/Touch-stiffness Touch-stiffness -2 -6 0 10 -262144 -1 -1 0 1;
#X obj 160 210 nbx 5 14 100 10000 0 0 \$0-random-string-150-all-touches/Touch-stiffness \$0-random-string-150-all-touches/Touch-stiffness empty 0 -6 0 10 -262144 -1 -1 256;
#X obj 197 3 bng 15 250 50 1 \$0-init \$0-ignore empty 0 -6 0 10 -262144 -1 -1;
#X obj 217 3 tgl 15 1 \$0-active \$0-active empty 0 -6 0 10 -262144 -1 -1 1 1;
#X obj 450 10 r \$0-init;
#X obj 922 10 s \$0-in;
#X obj 1158 10 s \$0-read;
#X obj 1394 10 r \$0-write;
#X msg 450 30 1;
#X obj 450 50 s \$0-active;
#X connect 34 0 35 0;
#X obj 922 30 r \$0-active;
#X msg 922 50 active \$1;
#X connect 36 0 37 0;
#X connect 37 0 31 0;
#X obj 1394 30 route active;
#X obj 1394 50 s \$0-active;
#X connect 33 0 38 0;
#X connect 38 0 39 0;
#X msg 450 70 0.034;
#X obj 450 90 s \$0-random-string-150-all-touches/Device-damping;
#X connect 30 0 40 0;
#X connect 40 0 41 0;
#X obj 922 70 r \$0-random-string-150-all-touches/Device-damping;
#X msg 922 90 /random-string-150-all-touches/Device-damping \$1;
#X connect 42 0 43 0;
#X connect 43 0 31 0;
#X obj 1394 70 route /random-string-150-all-touches/Device-damping;
#X obj 1394 90 s \$0-random-string-150-all-touches/Device-damping;
#X connect 38 1 44 0;
#X connect 44 0 45 0;
#X msg 450 110 8094;
#X obj 450 130 s \$0-random-string-150-all-touches/Device-stiffness;
#X connect 30 0 46 0;
#X connect 46 0 47 0;
#X obj 922 110 r \$0-random-string-150-all-touches/Device-stiffness;
#X msg 922 130 /random-string-150-all-touches/Device-stiffness \$1;
#X connect 48 0 49 0;
#X connect 49 0 31 0;
#X obj 1394 110 route /random-string-150-all-touches/Device-stiffness;
#X obj 1394 130 s \$0-random-string-150-all-touches/Device-stiffness;
#X connect 44 1 50 0;
#X connect 50 0 51 0;
#X msg 450 150 0.001;
#X obj 450 170 s \$0-random-string-150-all-touches/Linear-damping;
#X connect 30 0 52 0;
#X connect 52 0 53 0;
#X obj 922 150 r \$0-random-string-150-all-touches/Linear-damping;
#X msg 922 170 /random-string-150-all-touches/Linear-damping \$1;
#X connect 54 0 55 0;
#X connect 55 0 31 0;
#X obj 1394 150 route /random-string-150-all-touches/Linear-damping;
#X obj 1394 170 s \$0-random-string-150-all-touches/Linear-damping;
#X connect 50 1 56 0;
#X connect 56 0 57 0;
#X msg 450 190 8639;
#X obj 450 210 s \$0-random-string-150-all-touches/Linear-stiffness;
#X connect 30 0 58 0;
#X connect 58 0 59 0;
#X obj 922 190 r \$0-random-string-150-all-touches/Linear-stiffness;
#X msg 922 210 /random-string-150-all-touches/Linear-stiffness \$1;
#X connect 60 0 61 0;
#X connect 61 0 31 0;
#X obj 1394 190 route /random-string-150-all-touches/Linear-stiffness;
#X obj 1394 210 s \$0-random-string-150-all-touches/Linear-stiffness;
#X connect 56 1 62 0;
#X connect 62 0 63 0;
#X msg 450 230 0.0002;
#X obj 450 250 s \$0-random-string-150-all-touches/Mass-for-string-point;
#X connect 30 0 64 0;
#X connect 64 0 65 0;
#X obj 922 230 r \$0-random-string-150-all-touches/Mass-for-string-point;
#X msg 922 250 /random-string-150-all-touches/Mass-for-string-point \$1;
#X connect 66 0 67 0;
#X connect 67 0 31 0;
#X obj 1394 230 route /random-string-150-all-touches/Mass-for-string-point;
#X obj 1394 250 s \$0-random-string-150-all-touches/Mass-for-string-point;
#X connect 62 1 68 0;
#X connect 68 0 69 0;
#X msg 450 270 0.034;
#X obj 450 290 s \$0-random-string-150-all-touches/Touch-damping;
#X connect 30 0 70 0;
#X connect 70 0 71 0;
#X obj 922 270 r \$0-random-string-150-all-touches/Touch-damping;
#X msg 922 290 /random-string-150-all-touches/Touch-damping \$1;
#X connect 72 0 73 0;
#X connect 73 0 31 0;
#X obj 1394 270 route /random-string-150-all-touches/Touch-damping;
#X obj 1394 290 s \$0-random-string-150-all-touches/Touch-damping;
#X connect 68 1 74 0;
#X connect 74 0 75 0;
#X msg 450 310 8094;
#X obj 450 330 s \$0-random-string-150-all-touches/Touch-stiffness;
#X connect 30 0 76 0;
#X connect 76 0 77 0;
#X obj 922 310 r \$0-random-string-150-all-touches/Touch-stiffness;
#X msg 922 330 /random-string-150-all-touches/Touch-stiffness \$1;
#X connect 78 0 79 0;
#X connect 79 0 31 0;
#X obj 1394 310 route /random-string-150-all-touches/Touch-stiffness;
#X obj 1394 330 s \$0-random-string-150-all-touches/Touch-stiffness;
#X connect 74 1 80 0;
#X connect 80 0 81 0;
#X coords 0 -1 1 1 235 230 1 0 0;
#X text 0 250 Generated Thu Mar  7 06:27:02 2013 by faust2pd v2.5. See http://faust.grame.fr and http://pure-lang.googlecode.com.;
