#N canvas 0 0 450 300 10;
#X obj 70 120 inlet~;
#X obj 130 120 inlet~;
#X obj 10 120 inlet;
#X obj 190 120 r \$0-read;
#X obj 190 150 faust-control \$0;
#X obj 190 180 s \$0-write;
#X obj 10 180 r \$0-in;
#X obj 10 210 teleoperation~;
#X obj 10 240 s \$0-out;
#X obj 70 270 outlet~;
#X obj 130 270 outlet~;
#X obj 190 270 outlet~;
#X obj 250 270 outlet~;
#X obj 10 270 outlet;
#X connect 2 0 4 0;
#X connect 3 0 4 0;
#X connect 4 0 5 0;
#X connect 7 0 8 0;
#X connect 2 0 13 0;
#X connect 6 0 7 0;
#X connect 0 0 7 1;
#X connect 1 0 7 2;
#X connect 7 1 9 0;
#X connect 7 2 10 0;
#X connect 7 3 11 0;
#X connect 7 4 12 0;
#X obj 10 30 hsl 128 15 10 120 0 0 \$0-teleoperation/Stiffness \$0-teleoperation/Stiffness Stiffness -2 -6 0 10 -262144 -1 -1 0 1;
#X obj 160 30 nbx 5 14 10 120 0 0 \$0-teleoperation/Stiffness \$0-teleoperation/Stiffness empty 0 -6 0 10 -262144 -1 -1 256;
#X obj 197 3 bng 15 250 50 1 \$0-init \$0-ignore empty 0 -6 0 10 -262144 -1 -1;
#X obj 217 3 tgl 15 1 \$0-active \$0-active empty 0 -6 0 10 -262144 -1 -1 1 1;
#X obj 450 10 r \$0-init;
#X obj 698 10 s \$0-in;
#X obj 822 10 s \$0-read;
#X obj 946 10 r \$0-write;
#X msg 450 30 1;
#X obj 450 50 s \$0-active;
#X connect 22 0 23 0;
#X obj 698 30 r \$0-active;
#X msg 698 50 active \$1;
#X connect 24 0 25 0;
#X connect 25 0 19 0;
#X obj 946 30 route active;
#X obj 946 50 s \$0-active;
#X connect 21 0 26 0;
#X connect 26 0 27 0;
#X msg 450 70 50;
#X obj 450 90 s \$0-teleoperation/Stiffness;
#X connect 18 0 28 0;
#X connect 28 0 29 0;
#X obj 698 70 r \$0-teleoperation/Stiffness;
#X msg 698 90 /teleoperation/Stiffness \$1;
#X connect 30 0 31 0;
#X connect 31 0 19 0;
#X obj 946 70 route /teleoperation/Stiffness;
#X obj 946 90 s \$0-teleoperation/Stiffness;
#X connect 26 1 32 0;
#X connect 32 0 33 0;
#X coords 0 -1 1 1 235 50 1 0 0;
#X text 0 70 Generated Thu Mar  7 06:27:03 2013 by faust2pd v2.5. See http://faust.grame.fr and http://pure-lang.googlecode.com.;
