#N canvas 0 0 450 300 10;
#X obj 70 300 inlet~;
#X obj 130 300 inlet~;
#X obj 10 300 inlet;
#X obj 190 300 r \$0-read;
#X obj 190 330 faust-control \$0;
#X obj 190 360 s \$0-write;
#X obj 10 360 r \$0-in;
#X obj 10 390 throw_some_masses~;
#X obj 10 420 s \$0-out;
#X obj 70 450 outlet~;
#X obj 130 450 outlet~;
#X obj 190 450 outlet~;
#X obj 250 450 outlet~;
#X obj 10 450 outlet;
#X connect 2 0 4 0;
#X connect 3 0 4 0;
#X connect 4 0 5 0;
#X connect 7 0 8 0;
#X connect 2 0 13 0;
#X connect 6 0 7 0;
#X connect 0 0 7 1;
#X connect 1 0 7 2;
#X connect 7 1 9 0;
#X connect 7 2 10 0;
#X connect 7 3 11 0;
#X connect 7 4 12 0;
#X obj 10 30 hsl 128 15 0 5 0 0 \$0-throw-some-masses/Damping-to-ground \$0-throw-some-masses/Damping-to-ground Damping-to-ground -2 -6 0 10 -262144 -1 -1 0 1;
#X obj 160 30 nbx 5 14 0 5 0 0 \$0-throw-some-masses/Damping-to-ground \$0-throw-some-masses/Damping-to-ground empty 0 -6 0 10 -262144 -1 -1 256;
#X obj 10 60 hsl 128 15 0 1.5 0 0 \$0-throw-some-masses/Touch-damping \$0-throw-some-masses/Touch-damping Touch-damping -2 -6 0 10 -262144 -1 -1 0 1;
#X obj 160 60 nbx 5 14 0 1.5 0 0 \$0-throw-some-masses/Touch-damping \$0-throw-some-masses/Touch-damping empty 0 -6 0 10 -262144 -1 -1 256;
#X obj 10 90 hsl 128 15 1 1000 0 0 \$0-throw-some-masses/Touch-stiffness \$0-throw-some-masses/Touch-stiffness Touch-stiffness -2 -6 0 10 -262144 -1 -1 0 1;
#X obj 160 90 nbx 5 14 1 1000 0 0 \$0-throw-some-masses/Touch-stiffness \$0-throw-some-masses/Touch-stiffness empty 0 -6 0 10 -262144 -1 -1 256;
#X obj 10 120 hsl 128 15 50 10000 0 0 \$0-throw-some-masses/Ze-volume \$0-throw-some-masses/Ze-volume Ze-volume -2 -6 0 10 -262144 -1 -1 0 1;
#X obj 160 120 nbx 5 14 50 10000 0 0 \$0-throw-some-masses/Ze-volume \$0-throw-some-masses/Ze-volume empty 0 -6 0 10 -262144 -1 -1 256;
#X obj 10 150 hsl 128 15 0.0002 0.075 0 0 \$0-throw-some-masses/m1-mass \$0-throw-some-masses/m1-mass m1-mass -2 -6 0 10 -262144 -1 -1 0 1;
#X obj 160 150 nbx 5 14 0.0002 0.075 0 0 \$0-throw-some-masses/m1-mass \$0-throw-some-masses/m1-mass empty 0 -6 0 10 -262144 -1 -1 256;
#X obj 10 180 hsl 128 15 0.0002 0.075 0 0 \$0-throw-some-masses/m2-mass \$0-throw-some-masses/m2-mass m2-mass -2 -6 0 10 -262144 -1 -1 0 1;
#X obj 160 180 nbx 5 14 0.0002 0.075 0 0 \$0-throw-some-masses/m2-mass \$0-throw-some-masses/m2-mass empty 0 -6 0 10 -262144 -1 -1 256;
#X obj 10 210 hsl 128 15 0.0002 0.075 0 0 \$0-throw-some-masses/m3-mass \$0-throw-some-masses/m3-mass m3-mass -2 -6 0 10 -262144 -1 -1 0 1;
#X obj 160 210 nbx 5 14 0.0002 0.075 0 0 \$0-throw-some-masses/m3-mass \$0-throw-some-masses/m3-mass empty 0 -6 0 10 -262144 -1 -1 256;
#X obj 197 3 bng 15 250 50 1 \$0-init \$0-ignore empty 0 -6 0 10 -262144 -1 -1;
#X obj 217 3 tgl 15 1 \$0-active \$0-active empty 0 -6 0 10 -262144 -1 -1 1 1;
#X obj 450 10 r \$0-init;
#X obj 794 10 s \$0-in;
#X obj 966 10 s \$0-read;
#X obj 1138 10 r \$0-write;
#X msg 450 30 1;
#X obj 450 50 s \$0-active;
#X connect 34 0 35 0;
#X obj 794 30 r \$0-active;
#X msg 794 50 active \$1;
#X connect 36 0 37 0;
#X connect 37 0 31 0;
#X obj 1138 30 route active;
#X obj 1138 50 s \$0-active;
#X connect 33 0 38 0;
#X connect 38 0 39 0;
#X msg 450 70 0.18;
#X obj 450 90 s \$0-throw-some-masses/Damping-to-ground;
#X connect 30 0 40 0;
#X connect 40 0 41 0;
#X obj 794 70 r \$0-throw-some-masses/Damping-to-ground;
#X msg 794 90 /throw-some-masses/Damping-to-ground \$1;
#X connect 42 0 43 0;
#X connect 43 0 31 0;
#X obj 1138 70 route /throw-some-masses/Damping-to-ground;
#X obj 1138 90 s \$0-throw-some-masses/Damping-to-ground;
#X connect 38 1 44 0;
#X connect 44 0 45 0;
#X msg 450 110 0.1;
#X obj 450 130 s \$0-throw-some-masses/Touch-damping;
#X connect 30 0 46 0;
#X connect 46 0 47 0;
#X obj 794 110 r \$0-throw-some-masses/Touch-damping;
#X msg 794 130 /throw-some-masses/Touch-damping \$1;
#X connect 48 0 49 0;
#X connect 49 0 31 0;
#X obj 1138 110 route /throw-some-masses/Touch-damping;
#X obj 1138 130 s \$0-throw-some-masses/Touch-damping;
#X connect 44 1 50 0;
#X connect 50 0 51 0;
#X msg 450 150 130;
#X obj 450 170 s \$0-throw-some-masses/Touch-stiffness;
#X connect 30 0 52 0;
#X connect 52 0 53 0;
#X obj 794 150 r \$0-throw-some-masses/Touch-stiffness;
#X msg 794 170 /throw-some-masses/Touch-stiffness \$1;
#X connect 54 0 55 0;
#X connect 55 0 31 0;
#X obj 1138 150 route /throw-some-masses/Touch-stiffness;
#X obj 1138 170 s \$0-throw-some-masses/Touch-stiffness;
#X connect 50 1 56 0;
#X connect 56 0 57 0;
#X msg 450 190 1000;
#X obj 450 210 s \$0-throw-some-masses/Ze-volume;
#X connect 30 0 58 0;
#X connect 58 0 59 0;
#X obj 794 190 r \$0-throw-some-masses/Ze-volume;
#X msg 794 210 /throw-some-masses/Ze-volume \$1;
#X connect 60 0 61 0;
#X connect 61 0 31 0;
#X obj 1138 190 route /throw-some-masses/Ze-volume;
#X obj 1138 210 s \$0-throw-some-masses/Ze-volume;
#X connect 56 1 62 0;
#X connect 62 0 63 0;
#X msg 450 230 0.01865;
#X obj 450 250 s \$0-throw-some-masses/m1-mass;
#X connect 30 0 64 0;
#X connect 64 0 65 0;
#X obj 794 230 r \$0-throw-some-masses/m1-mass;
#X msg 794 250 /throw-some-masses/m1-mass \$1;
#X connect 66 0 67 0;
#X connect 67 0 31 0;
#X obj 1138 230 route /throw-some-masses/m1-mass;
#X obj 1138 250 s \$0-throw-some-masses/m1-mass;
#X connect 62 1 68 0;
#X connect 68 0 69 0;
#X msg 450 270 0.01865;
#X obj 450 290 s \$0-throw-some-masses/m2-mass;
#X connect 30 0 70 0;
#X connect 70 0 71 0;
#X obj 794 270 r \$0-throw-some-masses/m2-mass;
#X msg 794 290 /throw-some-masses/m2-mass \$1;
#X connect 72 0 73 0;
#X connect 73 0 31 0;
#X obj 1138 270 route /throw-some-masses/m2-mass;
#X obj 1138 290 s \$0-throw-some-masses/m2-mass;
#X connect 68 1 74 0;
#X connect 74 0 75 0;
#X msg 450 310 0.01865;
#X obj 450 330 s \$0-throw-some-masses/m3-mass;
#X connect 30 0 76 0;
#X connect 76 0 77 0;
#X obj 794 310 r \$0-throw-some-masses/m3-mass;
#X msg 794 330 /throw-some-masses/m3-mass \$1;
#X connect 78 0 79 0;
#X connect 79 0 31 0;
#X obj 1138 310 route /throw-some-masses/m3-mass;
#X obj 1138 330 s \$0-throw-some-masses/m3-mass;
#X connect 74 1 80 0;
#X connect 80 0 81 0;
#X coords 0 -1 1 1 235 230 1 0 0;
#X text 0 250 Generated Thu Mar  7 06:27:04 2013 by faust2pd v2.5. See http://faust.grame.fr and http://pure-lang.googlecode.com.;
