#N canvas 571 22 477 810 10;
#X obj 237 25 hsl 128 15 -50 50 0 0 empty empty empty -2 -8 0 10 -262144
-1 -1 0 1;
#X floatatom 357 67 5 0 0 0 - - -;
#X floatatom 318 693 7 0 0 0 - - -;
#X text 364 692 dB;
#X obj 118 781 dac~;
#X obj 293 712 gainvu~ 300;
#X obj 361 569 vu 15 120 empty empty 8 -8 0 10 -66577 -1 1 0;
#X obj 417 582 vsl 15 128 0 127 0 1 empty empty empty 8 -8 0 10 -262144
-1 -1 9000 1;
#X floatatom 400 718 7 0 0 0 - - -;
#X text 445 718 dB;
#X obj 67 711 gainvu~ 300;
#X floatatom 105 738 7 0 0 0 - - -;
#X text 151 737 dB;
#X obj 148 614 vu 15 120 empty empty 8 -8 0 10 -66577 -1 1 0;
#N canvas 58 176 158 175 FireFaderSimulator 0;
#X obj 19 13 inlet;
#X obj 19 37 * 0.001;
#X obj 19 86 line~;
#X msg 19 64 \$1 20;
#X obj 79 66 outlet;
#X obj 19 135 outlet~;
#X obj 19 110 lp2~ 10 0.707 200;
#X connect 0 0 1 0;
#X connect 1 0 3 0;
#X connect 1 0 4 0;
#X connect 2 0 6 0;
#X connect 3 0 2 0;
#X connect 6 0 5 0;
#X restore 234 45 pd FireFaderSimulator;
#X text 391 67 m;
#X text 304 66 Position;
#X text 238 106 dev2;
#X obj 4 25 hsl 128 15 -50 50 0 0 empty empty empty -2 -8 0 10 -262144
-1 -1 0 1;
#X floatatom 124 67 5 0 0 0 - - -;
#N canvas 58 176 158 175 FireFaderSimulator 0;
#X obj 19 13 inlet;
#X obj 19 37 * 0.001;
#X obj 19 86 line~;
#X msg 19 64 \$1 20;
#X obj 79 66 outlet;
#X obj 19 135 outlet~;
#X obj 19 110 lp2~ 10 0.707 200;
#X connect 0 0 1 0;
#X connect 1 0 3 0;
#X connect 1 0 4 0;
#X connect 2 0 6 0;
#X connect 3 0 2 0;
#X connect 6 0 5 0;
#X restore 1 45 pd FireFaderSimulator;
#X text 158 67 m;
#X text 71 66 Position;
#X text 124 105 dev1;
#X text 290 116 FireFader simulation patch;
#X text 290 131 Edgar Berdahl \, TU Berlin \, 2013;
#X obj 6 123 touch_several_modal_resonators;
#X text -1 3 touch_several_modal_resonators demonstration patch;
#X connect 0 0 14 0;
#X connect 5 0 4 1;
#X connect 5 1 8 0;
#X connect 5 2 6 0;
#X connect 6 1 2 0;
#X connect 7 0 5 1;
#X connect 7 0 10 1;
#X connect 10 0 4 0;
#X connect 10 2 13 0;
#X connect 13 1 11 0;
#X connect 14 0 26 2;
#X connect 14 1 1 0;
#X connect 18 0 20 0;
#X connect 20 0 26 1;
#X connect 20 1 19 0;
#X connect 26 3 10 0;
#X connect 26 4 5 0;
