#N canvas 0 0 450 300 10;
#X obj 70 210 inlet~;
#X obj 130 210 inlet~;
#X obj 10 210 inlet;
#X obj 190 210 r \$0-read;
#X obj 190 240 faust-control \$0;
#X obj 190 270 s \$0-write;
#X obj 10 270 r \$0-in;
#X obj 10 300 touch_a_resonator~;
#X obj 10 330 s \$0-out;
#X obj 70 360 outlet~;
#X obj 130 360 outlet~;
#X obj 190 360 outlet~;
#X obj 250 360 outlet~;
#X obj 10 360 outlet;
#X connect 2 0 4 0;
#X connect 3 0 4 0;
#X connect 4 0 5 0;
#X connect 7 0 8 0;
#X connect 2 0 13 0;
#X connect 6 0 7 0;
#X connect 0 0 7 1;
#X connect 1 0 7 2;
#X connect 7 1 9 0;
#X connect 7 2 10 0;
#X connect 7 3 11 0;
#X connect 7 4 12 0;
#X obj 10 30 hsl 128 15 0.0004 0.008 0 0 \$0-touch-a-resonator/Mass-of-Resonator \$0-touch-a-resonator/Mass-of-Resonator Mass-of-Resonator -2 -6 0 10 -262144 -1 -1 0 1;
#X obj 160 30 nbx 5 14 0.0004 0.008 0 0 \$0-touch-a-resonator/Mass-of-Resonator \$0-touch-a-resonator/Mass-of-Resonator empty 0 -6 0 10 -262144 -1 -1 256;
#X obj 10 60 hsl 128 15 400 8000 0 0 \$0-touch-a-resonator/Stiffness-of-Resonator \$0-touch-a-resonator/Stiffness-of-Resonator Stiffness-of-Resonator -2 -6 0 10 -262144 -1 -1 0 1;
#X obj 160 60 nbx 5 14 400 8000 0 0 \$0-touch-a-resonator/Stiffness-of-Resonator \$0-touch-a-resonator/Stiffness-of-Resonator empty 0 -6 0 10 -262144 -1 -1 256;
#X obj 10 90 hsl 128 15 0.002 0.1 0 0 \$0-touch-a-resonator/Touch-Interaction-Damping \$0-touch-a-resonator/Touch-Interaction-Damping Touch-Interaction-Damping -2 -6 0 10 -262144 -1 -1 0 1;
#X obj 160 90 nbx 5 14 0.002 0.1 0 0 \$0-touch-a-resonator/Touch-Interaction-Damping \$0-touch-a-resonator/Touch-Interaction-Damping empty 0 -6 0 10 -262144 -1 -1 256;
#X obj 10 120 hsl 128 15 50 500 0 0 \$0-touch-a-resonator/Touch-Interaction-Stiffness \$0-touch-a-resonator/Touch-Interaction-Stiffness Touch-Interaction-Stiffness -2 -6 0 10 -262144 -1 -1 0 1;
#X obj 160 120 nbx 5 14 50 500 0 0 \$0-touch-a-resonator/Touch-Interaction-Stiffness \$0-touch-a-resonator/Touch-Interaction-Stiffness empty 0 -6 0 10 -262144 -1 -1 256;
#X obj 197 3 bng 15 250 50 1 \$0-init \$0-ignore empty 0 -6 0 10 -262144 -1 -1;
#X obj 217 3 tgl 15 1 \$0-active \$0-active empty 0 -6 0 10 -262144 -1 -1 1 1;
#X obj 450 10 r \$0-init;
#X obj 874 10 s \$0-in;
#X obj 1086 10 s \$0-read;
#X obj 1298 10 r \$0-write;
#X msg 450 30 1;
#X obj 450 50 s \$0-active;
#X connect 28 0 29 0;
#X obj 874 30 r \$0-active;
#X msg 874 50 active \$1;
#X connect 30 0 31 0;
#X connect 31 0 25 0;
#X obj 1298 30 route active;
#X obj 1298 50 s \$0-active;
#X connect 27 0 32 0;
#X connect 32 0 33 0;
#X msg 450 70 0.001;
#X obj 450 90 s \$0-touch-a-resonator/Mass-of-Resonator;
#X connect 24 0 34 0;
#X connect 34 0 35 0;
#X obj 874 70 r \$0-touch-a-resonator/Mass-of-Resonator;
#X msg 874 90 /touch-a-resonator/Mass-of-Resonator \$1;
#X connect 36 0 37 0;
#X connect 37 0 25 0;
#X obj 1298 70 route /touch-a-resonator/Mass-of-Resonator;
#X obj 1298 90 s \$0-touch-a-resonator/Mass-of-Resonator;
#X connect 32 1 38 0;
#X connect 38 0 39 0;
#X msg 450 110 4200;
#X obj 450 130 s \$0-touch-a-resonator/Stiffness-of-Resonator;
#X connect 24 0 40 0;
#X connect 40 0 41 0;
#X obj 874 110 r \$0-touch-a-resonator/Stiffness-of-Resonator;
#X msg 874 130 /touch-a-resonator/Stiffness-of-Resonator \$1;
#X connect 42 0 43 0;
#X connect 43 0 25 0;
#X obj 1298 110 route /touch-a-resonator/Stiffness-of-Resonator;
#X obj 1298 130 s \$0-touch-a-resonator/Stiffness-of-Resonator;
#X connect 38 1 44 0;
#X connect 44 0 45 0;
#X msg 450 150 0.03;
#X obj 450 170 s \$0-touch-a-resonator/Touch-Interaction-Damping;
#X connect 24 0 46 0;
#X connect 46 0 47 0;
#X obj 874 150 r \$0-touch-a-resonator/Touch-Interaction-Damping;
#X msg 874 170 /touch-a-resonator/Touch-Interaction-Damping \$1;
#X connect 48 0 49 0;
#X connect 49 0 25 0;
#X obj 1298 150 route /touch-a-resonator/Touch-Interaction-Damping;
#X obj 1298 170 s \$0-touch-a-resonator/Touch-Interaction-Damping;
#X connect 44 1 50 0;
#X connect 50 0 51 0;
#X msg 450 190 100;
#X obj 450 210 s \$0-touch-a-resonator/Touch-Interaction-Stiffness;
#X connect 24 0 52 0;
#X connect 52 0 53 0;
#X obj 874 190 r \$0-touch-a-resonator/Touch-Interaction-Stiffness;
#X msg 874 210 /touch-a-resonator/Touch-Interaction-Stiffness \$1;
#X connect 54 0 55 0;
#X connect 55 0 25 0;
#X obj 1298 190 route /touch-a-resonator/Touch-Interaction-Stiffness;
#X obj 1298 210 s \$0-touch-a-resonator/Touch-Interaction-Stiffness;
#X connect 50 1 56 0;
#X connect 56 0 57 0;
#X coords 0 -1 1 1 235 140 1 0 0;
#X text 0 160 Generated Thu Mar  7 06:27:04 2013 by faust2pd v2.5. See http://faust.grame.fr and http://pure-lang.googlecode.com.;
