#N canvas 0 0 450 300 10;
#X obj 70 240 inlet~;
#X obj 130 240 inlet~;
#X obj 10 240 inlet;
#X obj 190 240 r \$0-read;
#X obj 190 270 faust-control \$0;
#X obj 190 300 s \$0-write;
#X obj 10 300 r \$0-in;
#X obj 10 330 touch_a_modal_resonator~;
#X obj 10 360 s \$0-out;
#X obj 70 390 outlet~;
#X obj 130 390 outlet~;
#X obj 190 390 outlet~;
#X obj 250 390 outlet~;
#X obj 10 390 outlet;
#X connect 2 0 4 0;
#X connect 3 0 4 0;
#X connect 4 0 5 0;
#X connect 7 0 8 0;
#X connect 2 0 13 0;
#X connect 6 0 7 0;
#X connect 0 0 7 1;
#X connect 1 0 7 2;
#X connect 7 1 9 0;
#X connect 7 2 10 0;
#X connect 7 3 11 0;
#X connect 7 4 12 0;
#X obj 10 30 hsl 128 15 0.01 5 0 0 \$0-touch-a-modal-resonator/Decay-Time-of-Resonator \$0-touch-a-modal-resonator/Decay-Time-of-Resonator Decay-Time-of-Resonator -2 -6 0 10 -262144 -1 -1 0 1;
#X obj 160 30 nbx 5 14 0.01 5 0 0 \$0-touch-a-modal-resonator/Decay-Time-of-Resonator \$0-touch-a-modal-resonator/Decay-Time-of-Resonator empty 0 -6 0 10 -262144 -1 -1 256;
#X obj 10 60 hsl 128 15 0.0004 0.008 0 0 \$0-touch-a-modal-resonator/Mass-of-Resonator \$0-touch-a-modal-resonator/Mass-of-Resonator Mass-of-Resonator -2 -6 0 10 -262144 -1 -1 0 1;
#X obj 160 60 nbx 5 14 0.0004 0.008 0 0 \$0-touch-a-modal-resonator/Mass-of-Resonator \$0-touch-a-modal-resonator/Mass-of-Resonator empty 0 -6 0 10 -262144 -1 -1 256;
#X obj 10 90 hsl 128 15 40 3000 0 0 \$0-touch-a-modal-resonator/Resonance-Frequency \$0-touch-a-modal-resonator/Resonance-Frequency Resonance-Frequency -2 -6 0 10 -262144 -1 -1 0 1;
#X obj 160 90 nbx 5 14 40 3000 0 0 \$0-touch-a-modal-resonator/Resonance-Frequency \$0-touch-a-modal-resonator/Resonance-Frequency empty 0 -6 0 10 -262144 -1 -1 256;
#X obj 10 120 hsl 128 15 0.002 0.1 0 0 \$0-touch-a-modal-resonator/Touch-Interaction-Damping \$0-touch-a-modal-resonator/Touch-Interaction-Damping Touch-Interaction-Damping -2 -6 0 10 -262144 -1 -1 0 1;
#X obj 160 120 nbx 5 14 0.002 0.1 0 0 \$0-touch-a-modal-resonator/Touch-Interaction-Damping \$0-touch-a-modal-resonator/Touch-Interaction-Damping empty 0 -6 0 10 -262144 -1 -1 256;
#X obj 10 150 hsl 128 15 50 500 0 0 \$0-touch-a-modal-resonator/Touch-Interaction-Stiffness \$0-touch-a-modal-resonator/Touch-Interaction-Stiffness Touch-Interaction-Stiffness -2 -6 0 10 -262144 -1 -1 0 1;
#X obj 160 150 nbx 5 14 50 500 0 0 \$0-touch-a-modal-resonator/Touch-Interaction-Stiffness \$0-touch-a-modal-resonator/Touch-Interaction-Stiffness empty 0 -6 0 10 -262144 -1 -1 256;
#X obj 197 3 bng 15 250 50 1 \$0-init \$0-ignore empty 0 -6 0 10 -262144 -1 -1;
#X obj 217 3 tgl 15 1 \$0-active \$0-active empty 0 -6 0 10 -262144 -1 -1 1 1;
#X obj 450 10 r \$0-init;
#X obj 922 10 s \$0-in;
#X obj 1158 10 s \$0-read;
#X obj 1394 10 r \$0-write;
#X msg 450 30 1;
#X obj 450 50 s \$0-active;
#X connect 30 0 31 0;
#X obj 922 30 r \$0-active;
#X msg 922 50 active \$1;
#X connect 32 0 33 0;
#X connect 33 0 27 0;
#X obj 1394 30 route active;
#X obj 1394 50 s \$0-active;
#X connect 29 0 34 0;
#X connect 34 0 35 0;
#X msg 450 70 1;
#X obj 450 90 s \$0-touch-a-modal-resonator/Decay-Time-of-Resonator;
#X connect 26 0 36 0;
#X connect 36 0 37 0;
#X obj 922 70 r \$0-touch-a-modal-resonator/Decay-Time-of-Resonator;
#X msg 922 90 /touch-a-modal-resonator/Decay-Time-of-Resonator \$1;
#X connect 38 0 39 0;
#X connect 39 0 27 0;
#X obj 1394 70 route /touch-a-modal-resonator/Decay-Time-of-Resonator;
#X obj 1394 90 s \$0-touch-a-modal-resonator/Decay-Time-of-Resonator;
#X connect 34 1 40 0;
#X connect 40 0 41 0;
#X msg 450 110 0.001;
#X obj 450 130 s \$0-touch-a-modal-resonator/Mass-of-Resonator;
#X connect 26 0 42 0;
#X connect 42 0 43 0;
#X obj 922 110 r \$0-touch-a-modal-resonator/Mass-of-Resonator;
#X msg 922 130 /touch-a-modal-resonator/Mass-of-Resonator \$1;
#X connect 44 0 45 0;
#X connect 45 0 27 0;
#X obj 1394 110 route /touch-a-modal-resonator/Mass-of-Resonator;
#X obj 1394 130 s \$0-touch-a-modal-resonator/Mass-of-Resonator;
#X connect 40 1 46 0;
#X connect 46 0 47 0;
#X msg 450 150 326;
#X obj 450 170 s \$0-touch-a-modal-resonator/Resonance-Frequency;
#X connect 26 0 48 0;
#X connect 48 0 49 0;
#X obj 922 150 r \$0-touch-a-modal-resonator/Resonance-Frequency;
#X msg 922 170 /touch-a-modal-resonator/Resonance-Frequency \$1;
#X connect 50 0 51 0;
#X connect 51 0 27 0;
#X obj 1394 150 route /touch-a-modal-resonator/Resonance-Frequency;
#X obj 1394 170 s \$0-touch-a-modal-resonator/Resonance-Frequency;
#X connect 46 1 52 0;
#X connect 52 0 53 0;
#X msg 450 190 0.03;
#X obj 450 210 s \$0-touch-a-modal-resonator/Touch-Interaction-Damping;
#X connect 26 0 54 0;
#X connect 54 0 55 0;
#X obj 922 190 r \$0-touch-a-modal-resonator/Touch-Interaction-Damping;
#X msg 922 210 /touch-a-modal-resonator/Touch-Interaction-Damping \$1;
#X connect 56 0 57 0;
#X connect 57 0 27 0;
#X obj 1394 190 route /touch-a-modal-resonator/Touch-Interaction-Damping;
#X obj 1394 210 s \$0-touch-a-modal-resonator/Touch-Interaction-Damping;
#X connect 52 1 58 0;
#X connect 58 0 59 0;
#X msg 450 230 100;
#X obj 450 250 s \$0-touch-a-modal-resonator/Touch-Interaction-Stiffness;
#X connect 26 0 60 0;
#X connect 60 0 61 0;
#X obj 922 230 r \$0-touch-a-modal-resonator/Touch-Interaction-Stiffness;
#X msg 922 250 /touch-a-modal-resonator/Touch-Interaction-Stiffness \$1;
#X connect 62 0 63 0;
#X connect 63 0 27 0;
#X obj 1394 230 route /touch-a-modal-resonator/Touch-Interaction-Stiffness;
#X obj 1394 250 s \$0-touch-a-modal-resonator/Touch-Interaction-Stiffness;
#X connect 58 1 64 0;
#X connect 64 0 65 0;
#X coords 0 -1 1 1 235 170 1 0 0;
#X text 0 190 Generated Thu Mar  7 06:27:03 2013 by faust2pd v2.5. See http://faust.grame.fr and http://pure-lang.googlecode.com.;
