#N canvas 0 0 450 300 10;
#X obj 70 150 inlet~;
#X obj 130 150 inlet~;
#X obj 10 150 inlet;
#X obj 190 150 r \$0-read;
#X obj 190 180 faust-control \$0;
#X obj 190 210 s \$0-write;
#X obj 10 210 r \$0-in;
#X obj 10 240 touch_ground~;
#X obj 10 270 s \$0-out;
#X obj 70 300 outlet~;
#X obj 130 300 outlet~;
#X obj 190 300 outlet~;
#X obj 250 300 outlet~;
#X obj 10 300 outlet;
#X connect 2 0 4 0;
#X connect 3 0 4 0;
#X connect 4 0 5 0;
#X connect 7 0 8 0;
#X connect 2 0 13 0;
#X connect 6 0 7 0;
#X connect 0 0 7 1;
#X connect 1 0 7 2;
#X connect 7 1 9 0;
#X connect 7 2 10 0;
#X connect 7 3 11 0;
#X connect 7 4 12 0;
#X obj 10 30 hsl 128 15 0 5 0 0 \$0-touch-ground/Damping \$0-touch-ground/Damping Damping -2 -6 0 10 -262144 -1 -1 0 1;
#X obj 160 30 nbx 5 14 0 5 0 0 \$0-touch-ground/Damping \$0-touch-ground/Damping empty 0 -6 0 10 -262144 -1 -1 256;
#X obj 10 60 hsl 128 15 0 400 0 0 \$0-touch-ground/Stiffness \$0-touch-ground/Stiffness Stiffness -2 -6 0 10 -262144 -1 -1 0 1;
#X obj 160 60 nbx 5 14 0 400 0 0 \$0-touch-ground/Stiffness \$0-touch-ground/Stiffness empty 0 -6 0 10 -262144 -1 -1 256;
#X obj 197 3 bng 15 250 50 1 \$0-init \$0-ignore empty 0 -6 0 10 -262144 -1 -1;
#X obj 217 3 tgl 15 1 \$0-active \$0-active empty 0 -6 0 10 -262144 -1 -1 1 1;
#X obj 450 10 r \$0-init;
#X obj 690 10 s \$0-in;
#X obj 810 10 s \$0-read;
#X obj 930 10 r \$0-write;
#X msg 450 30 1;
#X obj 450 50 s \$0-active;
#X connect 24 0 25 0;
#X obj 690 30 r \$0-active;
#X msg 690 50 active \$1;
#X connect 26 0 27 0;
#X connect 27 0 21 0;
#X obj 930 30 route active;
#X obj 930 50 s \$0-active;
#X connect 23 0 28 0;
#X connect 28 0 29 0;
#X msg 450 70 0.1;
#X obj 450 90 s \$0-touch-ground/Damping;
#X connect 20 0 30 0;
#X connect 30 0 31 0;
#X obj 690 70 r \$0-touch-ground/Damping;
#X msg 690 90 /touch-ground/Damping \$1;
#X connect 32 0 33 0;
#X connect 33 0 21 0;
#X obj 930 70 route /touch-ground/Damping;
#X obj 930 90 s \$0-touch-ground/Damping;
#X connect 28 1 34 0;
#X connect 34 0 35 0;
#X msg 450 110 100;
#X obj 450 130 s \$0-touch-ground/Stiffness;
#X connect 20 0 36 0;
#X connect 36 0 37 0;
#X obj 690 110 r \$0-touch-ground/Stiffness;
#X msg 690 130 /touch-ground/Stiffness \$1;
#X connect 38 0 39 0;
#X connect 39 0 21 0;
#X obj 930 110 route /touch-ground/Stiffness;
#X obj 930 130 s \$0-touch-ground/Stiffness;
#X connect 34 1 40 0;
#X connect 40 0 41 0;
#X coords 0 -1 1 1 235 80 1 0 0;
#X text 0 100 Generated Thu Mar  7 06:27:04 2013 by faust2pd v2.5. See http://faust.grame.fr and http://pure-lang.googlecode.com.;
