#N canvas 0 0 450 300 10;
#X obj 70 180 inlet~;
#X obj 130 180 inlet~;
#X obj 10 180 inlet;
#X obj 190 180 r \$0-read;
#X obj 190 210 faust-control \$0;
#X obj 190 240 s \$0-write;
#X obj 10 240 r \$0-in;
#X obj 10 270 two_paddles~;
#X obj 10 300 s \$0-out;
#X obj 70 330 outlet~;
#X obj 130 330 outlet~;
#X obj 190 330 outlet~;
#X obj 250 330 outlet~;
#X obj 10 330 outlet;
#X connect 2 0 4 0;
#X connect 3 0 4 0;
#X connect 4 0 5 0;
#X connect 7 0 8 0;
#X connect 2 0 13 0;
#X connect 6 0 7 0;
#X connect 0 0 7 1;
#X connect 1 0 7 2;
#X connect 7 1 9 0;
#X connect 7 2 10 0;
#X connect 7 3 11 0;
#X connect 7 4 12 0;
#X obj 10 30 hsl 128 15 0 0.2 0 0 \$0-two-paddles/Interaction-Damping \$0-two-paddles/Interaction-Damping Interaction-Damping -2 -6 0 10 -262144 -1 -1 0 1;
#X obj 160 30 nbx 5 14 0 0.2 0 0 \$0-two-paddles/Interaction-Damping \$0-two-paddles/Interaction-Damping empty 0 -6 0 10 -262144 -1 -1 256;
#X obj 10 60 hsl 128 15 0 500 0 0 \$0-two-paddles/Interaction-Stiffness \$0-two-paddles/Interaction-Stiffness Interaction-Stiffness -2 -6 0 10 -262144 -1 -1 0 1;
#X obj 160 60 nbx 5 14 0 500 0 0 \$0-two-paddles/Interaction-Stiffness \$0-two-paddles/Interaction-Stiffness empty 0 -6 0 10 -262144 -1 -1 256;
#X obj 10 90 hsl 128 15 0.05 1 0 0 \$0-two-paddles/Virtual-Mass \$0-two-paddles/Virtual-Mass Virtual-Mass -2 -6 0 10 -262144 -1 -1 0 1;
#X obj 160 90 nbx 5 14 0.05 1 0 0 \$0-two-paddles/Virtual-Mass \$0-two-paddles/Virtual-Mass empty 0 -6 0 10 -262144 -1 -1 256;
#X obj 197 3 bng 15 250 50 1 \$0-init \$0-ignore empty 0 -6 0 10 -262144 -1 -1;
#X obj 217 3 tgl 15 1 \$0-active \$0-active empty 0 -6 0 10 -262144 -1 -1 1 1;
#X obj 450 10 r \$0-init;
#X obj 778 10 s \$0-in;
#X obj 942 10 s \$0-read;
#X obj 1106 10 r \$0-write;
#X msg 450 30 1;
#X obj 450 50 s \$0-active;
#X connect 26 0 27 0;
#X obj 778 30 r \$0-active;
#X msg 778 50 active \$1;
#X connect 28 0 29 0;
#X connect 29 0 23 0;
#X obj 1106 30 route active;
#X obj 1106 50 s \$0-active;
#X connect 25 0 30 0;
#X connect 30 0 31 0;
#X msg 450 70 0.05;
#X obj 450 90 s \$0-two-paddles/Interaction-Damping;
#X connect 22 0 32 0;
#X connect 32 0 33 0;
#X obj 778 70 r \$0-two-paddles/Interaction-Damping;
#X msg 778 90 /two-paddles/Interaction-Damping \$1;
#X connect 34 0 35 0;
#X connect 35 0 23 0;
#X obj 1106 70 route /two-paddles/Interaction-Damping;
#X obj 1106 90 s \$0-two-paddles/Interaction-Damping;
#X connect 30 1 36 0;
#X connect 36 0 37 0;
#X msg 450 110 300;
#X obj 450 130 s \$0-two-paddles/Interaction-Stiffness;
#X connect 22 0 38 0;
#X connect 38 0 39 0;
#X obj 778 110 r \$0-two-paddles/Interaction-Stiffness;
#X msg 778 130 /two-paddles/Interaction-Stiffness \$1;
#X connect 40 0 41 0;
#X connect 41 0 23 0;
#X obj 1106 110 route /two-paddles/Interaction-Stiffness;
#X obj 1106 130 s \$0-two-paddles/Interaction-Stiffness;
#X connect 36 1 42 0;
#X connect 42 0 43 0;
#X msg 450 150 0.3;
#X obj 450 170 s \$0-two-paddles/Virtual-Mass;
#X connect 22 0 44 0;
#X connect 44 0 45 0;
#X obj 778 150 r \$0-two-paddles/Virtual-Mass;
#X msg 778 170 /two-paddles/Virtual-Mass \$1;
#X connect 46 0 47 0;
#X connect 47 0 23 0;
#X obj 1106 150 route /two-paddles/Virtual-Mass;
#X obj 1106 170 s \$0-two-paddles/Virtual-Mass;
#X connect 42 1 48 0;
#X connect 48 0 49 0;
#X coords 0 -1 1 1 235 110 1 0 0;
#X text 0 130 Generated Thu Mar  7 06:27:02 2013 by faust2pd v2.5. See http://faust.grame.fr and http://pure-lang.googlecode.com.;
