#N canvas 0 0 450 300 10;
#X obj 70 120 inlet~;
#X obj 130 120 inlet~;
#X obj 10 120 inlet;
#X obj 190 120 r \$0-read;
#X obj 190 150 faust-control \$0;
#X obj 190 180 s \$0-write;
#X obj 10 180 r \$0-in;
#X obj 10 210 twosprings~;
#X obj 10 240 s \$0-out;
#X obj 70 270 outlet~;
#X obj 130 270 outlet~;
#X obj 190 270 outlet~;
#X obj 10 270 outlet;
#X connect 2 0 4 0;
#X connect 3 0 4 0;
#X connect 4 0 5 0;
#X connect 7 0 8 0;
#X connect 2 0 12 0;
#X connect 6 0 7 0;
#X connect 0 0 7 1;
#X connect 1 0 7 2;
#X connect 7 1 9 0;
#X connect 7 2 10 0;
#X connect 7 3 11 0;
#X obj 10 30 hsl 128 15 10 500 0 0 \$0-twosprings/Stiffness \$0-twosprings/Stiffness Stiffness -2 -6 0 10 -262144 -1 -1 0 1;
#X obj 160 30 nbx 5 14 10 500 0 0 \$0-twosprings/Stiffness \$0-twosprings/Stiffness empty 0 -6 0 10 -262144 -1 -1 256;
#X obj 197 3 bng 15 250 50 1 \$0-init \$0-ignore empty 0 -6 0 10 -262144 -1 -1;
#X obj 217 3 tgl 15 1 \$0-active \$0-active empty 0 -6 0 10 -262144 -1 -1 1 1;
#X obj 450 10 r \$0-init;
#X obj 674 10 s \$0-in;
#X obj 786 10 s \$0-read;
#X obj 898 10 r \$0-write;
#X msg 450 30 1;
#X obj 450 50 s \$0-active;
#X connect 21 0 22 0;
#X obj 674 30 r \$0-active;
#X msg 674 50 active \$1;
#X connect 23 0 24 0;
#X connect 24 0 18 0;
#X obj 898 30 route active;
#X obj 898 50 s \$0-active;
#X connect 20 0 25 0;
#X connect 25 0 26 0;
#X msg 450 70 50;
#X obj 450 90 s \$0-twosprings/Stiffness;
#X connect 17 0 27 0;
#X connect 27 0 28 0;
#X obj 674 70 r \$0-twosprings/Stiffness;
#X msg 674 90 /twosprings/Stiffness \$1;
#X connect 29 0 30 0;
#X connect 30 0 18 0;
#X obj 898 70 route /twosprings/Stiffness;
#X obj 898 90 s \$0-twosprings/Stiffness;
#X connect 25 1 31 0;
#X connect 31 0 32 0;
#X coords 0 -1 1 1 235 50 1 0 0;
#X text 0 70 Generated Thu Mar  7 06:27:04 2013 by faust2pd v2.5. See http://faust.grame.fr and http://pure-lang.googlecode.com.;
