#N canvas 0 0 450 300 10;
#X obj 70 630 inlet~;
#X obj 130 630 inlet~;
#X obj 10 630 inlet;
#X obj 190 630 r \$0-read;
#X obj 190 660 faust-control \$0;
#X obj 190 690 s \$0-write;
#X obj 10 690 r \$0-in;
#X obj 10 720 waveguide_drum~;
#X obj 10 750 s \$0-out;
#X obj 70 780 outlet~;
#X obj 130 780 outlet~;
#X obj 190 780 outlet~;
#X obj 250 780 outlet~;
#X obj 10 780 outlet;
#X connect 2 0 4 0;
#X connect 3 0 4 0;
#X connect 4 0 5 0;
#X connect 7 0 8 0;
#X connect 2 0 13 0;
#X connect 6 0 7 0;
#X connect 0 0 7 1;
#X connect 1 0 7 2;
#X connect 7 1 9 0;
#X connect 7 2 10 0;
#X connect 7 3 11 0;
#X connect 7 4 12 0;
#X obj 10 30 hsl 128 15 0 2.5 0 0 \$0-waveguide-drum/Pluck-damping \$0-waveguide-drum/Pluck-damping Pluck-damping -2 -6 0 10 -262144 -1 -1 0 1;
#X obj 160 30 nbx 5 14 0 2.5 0 0 \$0-waveguide-drum/Pluck-damping \$0-waveguide-drum/Pluck-damping empty 0 -6 0 10 -262144 -1 -1 256;
#X obj 10 60 hsl 128 15 50 1000 0 0 \$0-waveguide-drum/Pluck-stiffness \$0-waveguide-drum/Pluck-stiffness Pluck-stiffness -2 -6 0 10 -262144 -1 -1 0 1;
#X obj 160 60 nbx 5 14 50 1000 0 0 \$0-waveguide-drum/Pluck-stiffness \$0-waveguide-drum/Pluck-stiffness empty 0 -6 0 10 -262144 -1 -1 256;
#X obj 10 90 hsl 128 15 1000 44100 0 0 \$0-waveguide-drum/Term-cutoff-freq-1 \$0-waveguide-drum/Term-cutoff-freq-1 Term-cutoff-freq-1 -2 -6 0 10 -262144 -1 -1 0 1;
#X obj 160 90 nbx 5 14 1000 44100 0 0 \$0-waveguide-drum/Term-cutoff-freq-1 \$0-waveguide-drum/Term-cutoff-freq-1 empty 0 -6 0 10 -262144 -1 -1 256;
#X obj 10 120 hsl 128 15 1000 44100 0 0 \$0-waveguide-drum/Term-cutoff-freq-2 \$0-waveguide-drum/Term-cutoff-freq-2 Term-cutoff-freq-2 -2 -6 0 10 -262144 -1 -1 0 1;
#X obj 160 120 nbx 5 14 1000 44100 0 0 \$0-waveguide-drum/Term-cutoff-freq-2 \$0-waveguide-drum/Term-cutoff-freq-2 empty 0 -6 0 10 -262144 -1 -1 256;
#X obj 10 150 hsl 128 15 1000 44100 0 0 \$0-waveguide-drum/Term-cutoff-freq-3 \$0-waveguide-drum/Term-cutoff-freq-3 Term-cutoff-freq-3 -2 -6 0 10 -262144 -1 -1 0 1;
#X obj 160 150 nbx 5 14 1000 44100 0 0 \$0-waveguide-drum/Term-cutoff-freq-3 \$0-waveguide-drum/Term-cutoff-freq-3 empty 0 -6 0 10 -262144 -1 -1 256;
#X obj 10 180 hsl 128 15 1000 44100 0 0 \$0-waveguide-drum/Term-cutoff-freq-4 \$0-waveguide-drum/Term-cutoff-freq-4 Term-cutoff-freq-4 -2 -6 0 10 -262144 -1 -1 0 1;
#X obj 160 180 nbx 5 14 1000 44100 0 0 \$0-waveguide-drum/Term-cutoff-freq-4 \$0-waveguide-drum/Term-cutoff-freq-4 empty 0 -6 0 10 -262144 -1 -1 256;
#X obj 10 210 hsl 128 15 0.01 1 0 0 \$0-waveguide-drum/Term-cutoff-freq-SCALE-ALL \$0-waveguide-drum/Term-cutoff-freq-SCALE-ALL Term-cutoff-freq-SCALE-ALL -2 -6 0 10 -262144 -1 -1 0 1;
#X obj 160 210 nbx 5 14 0.01 1 0 0 \$0-waveguide-drum/Term-cutoff-freq-SCALE-ALL \$0-waveguide-drum/Term-cutoff-freq-SCALE-ALL empty 0 -6 0 10 -262144 -1 -1 256;
#X obj 10 240 hsl 128 15 -100 -1 0 0 \$0-waveguide-drum/Term-reflection-loss-1 \$0-waveguide-drum/Term-reflection-loss-1 Term-reflection-loss-1 -2 -6 0 10 -262144 -1 -1 0 1;
#X obj 160 240 nbx 5 14 -100 -1 0 0 \$0-waveguide-drum/Term-reflection-loss-1 \$0-waveguide-drum/Term-reflection-loss-1 empty 0 -6 0 10 -262144 -1 -1 256;
#X obj 10 270 hsl 128 15 -100 -1 0 0 \$0-waveguide-drum/Term-reflection-loss-2 \$0-waveguide-drum/Term-reflection-loss-2 Term-reflection-loss-2 -2 -6 0 10 -262144 -1 -1 0 1;
#X obj 160 270 nbx 5 14 -100 -1 0 0 \$0-waveguide-drum/Term-reflection-loss-2 \$0-waveguide-drum/Term-reflection-loss-2 empty 0 -6 0 10 -262144 -1 -1 256;
#X obj 10 300 hsl 128 15 -100 -1 0 0 \$0-waveguide-drum/Term-reflection-loss-3 \$0-waveguide-drum/Term-reflection-loss-3 Term-reflection-loss-3 -2 -6 0 10 -262144 -1 -1 0 1;
#X obj 160 300 nbx 5 14 -100 -1 0 0 \$0-waveguide-drum/Term-reflection-loss-3 \$0-waveguide-drum/Term-reflection-loss-3 empty 0 -6 0 10 -262144 -1 -1 256;
#X obj 10 330 hsl 128 15 -100 -1 0 0 \$0-waveguide-drum/Term-reflection-loss-4 \$0-waveguide-drum/Term-reflection-loss-4 Term-reflection-loss-4 -2 -6 0 10 -262144 -1 -1 0 1;
#X obj 160 330 nbx 5 14 -100 -1 0 0 \$0-waveguide-drum/Term-reflection-loss-4 \$0-waveguide-drum/Term-reflection-loss-4 empty 0 -6 0 10 -262144 -1 -1 256;
#X obj 10 360 hsl 128 15 0.01 50 0 0 \$0-waveguide-drum/Waveguide-delay-1 \$0-waveguide-drum/Waveguide-delay-1 Waveguide-delay-1 -2 -6 0 10 -262144 -1 -1 0 1;
#X obj 160 360 nbx 5 14 0.01 50 0 0 \$0-waveguide-drum/Waveguide-delay-1 \$0-waveguide-drum/Waveguide-delay-1 empty 0 -6 0 10 -262144 -1 -1 256;
#X obj 10 390 hsl 128 15 0.01 50 0 0 \$0-waveguide-drum/Waveguide-delay-2 \$0-waveguide-drum/Waveguide-delay-2 Waveguide-delay-2 -2 -6 0 10 -262144 -1 -1 0 1;
#X obj 160 390 nbx 5 14 0.01 50 0 0 \$0-waveguide-drum/Waveguide-delay-2 \$0-waveguide-drum/Waveguide-delay-2 empty 0 -6 0 10 -262144 -1 -1 256;
#X obj 10 420 hsl 128 15 0.01 50 0 0 \$0-waveguide-drum/Waveguide-delay-3 \$0-waveguide-drum/Waveguide-delay-3 Waveguide-delay-3 -2 -6 0 10 -262144 -1 -1 0 1;
#X obj 160 420 nbx 5 14 0.01 50 0 0 \$0-waveguide-drum/Waveguide-delay-3 \$0-waveguide-drum/Waveguide-delay-3 empty 0 -6 0 10 -262144 -1 -1 256;
#X obj 10 450 hsl 128 15 0.01 50 0 0 \$0-waveguide-drum/Waveguide-delay-4 \$0-waveguide-drum/Waveguide-delay-4 Waveguide-delay-4 -2 -6 0 10 -262144 -1 -1 0 1;
#X obj 160 450 nbx 5 14 0.01 50 0 0 \$0-waveguide-drum/Waveguide-delay-4 \$0-waveguide-drum/Waveguide-delay-4 empty 0 -6 0 10 -262144 -1 -1 256;
#X obj 10 480 hsl 128 15 0.001 1 0 0 \$0-waveguide-drum/Waveguide-delay-SCALE-ALL \$0-waveguide-drum/Waveguide-delay-SCALE-ALL Waveguide-delay-SCALE-ALL -2 -6 0 10 -262144 -1 -1 0 1;
#X obj 160 480 nbx 5 14 0.001 1 0 0 \$0-waveguide-drum/Waveguide-delay-SCALE-ALL \$0-waveguide-drum/Waveguide-delay-SCALE-ALL empty 0 -6 0 10 -262144 -1 -1 256;
#X obj 10 510 hsl 128 15 0.001 1 0 0 \$0-waveguide-drum/Waveguide-impedance-SCALE-ALL \$0-waveguide-drum/Waveguide-impedance-SCALE-ALL Waveguide-impedance-SCALE-ALL -2 -6 0 10 -262144 -1 -1 0 1;
#X obj 160 510 nbx 5 14 0.001 1 0 0 \$0-waveguide-drum/Waveguide-impedance-SCALE-ALL \$0-waveguide-drum/Waveguide-impedance-SCALE-ALL empty 0 -6 0 10 -262144 -1 -1 256;
#X obj 10 540 hsl 128 15 0.01 1 0 0 \$0-waveguide-drum/Z-Volume \$0-waveguide-drum/Z-Volume Z-Volume -2 -6 0 10 -262144 -1 -1 0 1;
#X obj 160 540 nbx 5 14 0.01 1 0 0 \$0-waveguide-drum/Z-Volume \$0-waveguide-drum/Z-Volume empty 0 -6 0 10 -262144 -1 -1 256;
#X obj 197 3 bng 15 250 50 1 \$0-init \$0-ignore empty 0 -6 0 10 -262144 -1 -1;
#X obj 217 3 tgl 15 1 \$0-active \$0-active empty 0 -6 0 10 -262144 -1 -1 1 1;
#X obj 450 10 r \$0-init;
#X obj 866 10 s \$0-in;
#X obj 1074 10 s \$0-read;
#X obj 1282 10 r \$0-write;
#X msg 450 30 1;
#X obj 450 50 s \$0-active;
#X connect 56 0 57 0;
#X obj 866 30 r \$0-active;
#X msg 866 50 active \$1;
#X connect 58 0 59 0;
#X connect 59 0 53 0;
#X obj 1282 30 route active;
#X obj 1282 50 s \$0-active;
#X connect 55 0 60 0;
#X connect 60 0 61 0;
#X msg 450 70 0.1;
#X obj 450 90 s \$0-waveguide-drum/Pluck-damping;
#X connect 52 0 62 0;
#X connect 62 0 63 0;
#X obj 866 70 r \$0-waveguide-drum/Pluck-damping;
#X msg 866 90 /waveguide-drum/Pluck-damping \$1;
#X connect 64 0 65 0;
#X connect 65 0 53 0;
#X obj 1282 70 route /waveguide-drum/Pluck-damping;
#X obj 1282 90 s \$0-waveguide-drum/Pluck-damping;
#X connect 60 1 66 0;
#X connect 66 0 67 0;
#X msg 450 110 250;
#X obj 450 130 s \$0-waveguide-drum/Pluck-stiffness;
#X connect 52 0 68 0;
#X connect 68 0 69 0;
#X obj 866 110 r \$0-waveguide-drum/Pluck-stiffness;
#X msg 866 130 /waveguide-drum/Pluck-stiffness \$1;
#X connect 70 0 71 0;
#X connect 71 0 53 0;
#X obj 1282 110 route /waveguide-drum/Pluck-stiffness;
#X obj 1282 130 s \$0-waveguide-drum/Pluck-stiffness;
#X connect 66 1 72 0;
#X connect 72 0 73 0;
#X msg 450 150 3000;
#X obj 450 170 s \$0-waveguide-drum/Term-cutoff-freq-1;
#X connect 52 0 74 0;
#X connect 74 0 75 0;
#X obj 866 150 r \$0-waveguide-drum/Term-cutoff-freq-1;
#X msg 866 170 /waveguide-drum/Term-cutoff-freq-1 \$1;
#X connect 76 0 77 0;
#X connect 77 0 53 0;
#X obj 1282 150 route /waveguide-drum/Term-cutoff-freq-1;
#X obj 1282 170 s \$0-waveguide-drum/Term-cutoff-freq-1;
#X connect 72 1 78 0;
#X connect 78 0 79 0;
#X msg 450 190 5000;
#X obj 450 210 s \$0-waveguide-drum/Term-cutoff-freq-2;
#X connect 52 0 80 0;
#X connect 80 0 81 0;
#X obj 866 190 r \$0-waveguide-drum/Term-cutoff-freq-2;
#X msg 866 210 /waveguide-drum/Term-cutoff-freq-2 \$1;
#X connect 82 0 83 0;
#X connect 83 0 53 0;
#X obj 1282 190 route /waveguide-drum/Term-cutoff-freq-2;
#X obj 1282 210 s \$0-waveguide-drum/Term-cutoff-freq-2;
#X connect 78 1 84 0;
#X connect 84 0 85 0;
#X msg 450 230 10000;
#X obj 450 250 s \$0-waveguide-drum/Term-cutoff-freq-3;
#X connect 52 0 86 0;
#X connect 86 0 87 0;
#X obj 866 230 r \$0-waveguide-drum/Term-cutoff-freq-3;
#X msg 866 250 /waveguide-drum/Term-cutoff-freq-3 \$1;
#X connect 88 0 89 0;
#X connect 89 0 53 0;
#X obj 1282 230 route /waveguide-drum/Term-cutoff-freq-3;
#X obj 1282 250 s \$0-waveguide-drum/Term-cutoff-freq-3;
#X connect 84 1 90 0;
#X connect 90 0 91 0;
#X msg 450 270 20000;
#X obj 450 290 s \$0-waveguide-drum/Term-cutoff-freq-4;
#X connect 52 0 92 0;
#X connect 92 0 93 0;
#X obj 866 270 r \$0-waveguide-drum/Term-cutoff-freq-4;
#X msg 866 290 /waveguide-drum/Term-cutoff-freq-4 \$1;
#X connect 94 0 95 0;
#X connect 95 0 53 0;
#X obj 1282 270 route /waveguide-drum/Term-cutoff-freq-4;
#X obj 1282 290 s \$0-waveguide-drum/Term-cutoff-freq-4;
#X connect 90 1 96 0;
#X connect 96 0 97 0;
#X msg 450 310 1;
#X obj 450 330 s \$0-waveguide-drum/Term-cutoff-freq-SCALE-ALL;
#X connect 52 0 98 0;
#X connect 98 0 99 0;
#X obj 866 310 r \$0-waveguide-drum/Term-cutoff-freq-SCALE-ALL;
#X msg 866 330 /waveguide-drum/Term-cutoff-freq-SCALE-ALL \$1;
#X connect 100 0 101 0;
#X connect 101 0 53 0;
#X obj 1282 310 route /waveguide-drum/Term-cutoff-freq-SCALE-ALL;
#X obj 1282 330 s \$0-waveguide-drum/Term-cutoff-freq-SCALE-ALL;
#X connect 96 1 102 0;
#X connect 102 0 103 0;
#X msg 450 350 -60;
#X obj 450 370 s \$0-waveguide-drum/Term-reflection-loss-1;
#X connect 52 0 104 0;
#X connect 104 0 105 0;
#X obj 866 350 r \$0-waveguide-drum/Term-reflection-loss-1;
#X msg 866 370 /waveguide-drum/Term-reflection-loss-1 \$1;
#X connect 106 0 107 0;
#X connect 107 0 53 0;
#X obj 1282 350 route /waveguide-drum/Term-reflection-loss-1;
#X obj 1282 370 s \$0-waveguide-drum/Term-reflection-loss-1;
#X connect 102 1 108 0;
#X connect 108 0 109 0;
#X msg 450 390 -60;
#X obj 450 410 s \$0-waveguide-drum/Term-reflection-loss-2;
#X connect 52 0 110 0;
#X connect 110 0 111 0;
#X obj 866 390 r \$0-waveguide-drum/Term-reflection-loss-2;
#X msg 866 410 /waveguide-drum/Term-reflection-loss-2 \$1;
#X connect 112 0 113 0;
#X connect 113 0 53 0;
#X obj 1282 390 route /waveguide-drum/Term-reflection-loss-2;
#X obj 1282 410 s \$0-waveguide-drum/Term-reflection-loss-2;
#X connect 108 1 114 0;
#X connect 114 0 115 0;
#X msg 450 430 -60;
#X obj 450 450 s \$0-waveguide-drum/Term-reflection-loss-3;
#X connect 52 0 116 0;
#X connect 116 0 117 0;
#X obj 866 430 r \$0-waveguide-drum/Term-reflection-loss-3;
#X msg 866 450 /waveguide-drum/Term-reflection-loss-3 \$1;
#X connect 118 0 119 0;
#X connect 119 0 53 0;
#X obj 1282 430 route /waveguide-drum/Term-reflection-loss-3;
#X obj 1282 450 s \$0-waveguide-drum/Term-reflection-loss-3;
#X connect 114 1 120 0;
#X connect 120 0 121 0;
#X msg 450 470 -60;
#X obj 450 490 s \$0-waveguide-drum/Term-reflection-loss-4;
#X connect 52 0 122 0;
#X connect 122 0 123 0;
#X obj 866 470 r \$0-waveguide-drum/Term-reflection-loss-4;
#X msg 866 490 /waveguide-drum/Term-reflection-loss-4 \$1;
#X connect 124 0 125 0;
#X connect 125 0 53 0;
#X obj 1282 470 route /waveguide-drum/Term-reflection-loss-4;
#X obj 1282 490 s \$0-waveguide-drum/Term-reflection-loss-4;
#X connect 120 1 126 0;
#X connect 126 0 127 0;
#X msg 450 510 5;
#X obj 450 530 s \$0-waveguide-drum/Waveguide-delay-1;
#X connect 52 0 128 0;
#X connect 128 0 129 0;
#X obj 866 510 r \$0-waveguide-drum/Waveguide-delay-1;
#X msg 866 530 /waveguide-drum/Waveguide-delay-1 \$1;
#X connect 130 0 131 0;
#X connect 131 0 53 0;
#X obj 1282 510 route /waveguide-drum/Waveguide-delay-1;
#X obj 1282 530 s \$0-waveguide-drum/Waveguide-delay-1;
#X connect 126 1 132 0;
#X connect 132 0 133 0;
#X msg 450 550 5;
#X obj 450 570 s \$0-waveguide-drum/Waveguide-delay-2;
#X connect 52 0 134 0;
#X connect 134 0 135 0;
#X obj 866 550 r \$0-waveguide-drum/Waveguide-delay-2;
#X msg 866 570 /waveguide-drum/Waveguide-delay-2 \$1;
#X connect 136 0 137 0;
#X connect 137 0 53 0;
#X obj 1282 550 route /waveguide-drum/Waveguide-delay-2;
#X obj 1282 570 s \$0-waveguide-drum/Waveguide-delay-2;
#X connect 132 1 138 0;
#X connect 138 0 139 0;
#X msg 450 590 5;
#X obj 450 610 s \$0-waveguide-drum/Waveguide-delay-3;
#X connect 52 0 140 0;
#X connect 140 0 141 0;
#X obj 866 590 r \$0-waveguide-drum/Waveguide-delay-3;
#X msg 866 610 /waveguide-drum/Waveguide-delay-3 \$1;
#X connect 142 0 143 0;
#X connect 143 0 53 0;
#X obj 1282 590 route /waveguide-drum/Waveguide-delay-3;
#X obj 1282 610 s \$0-waveguide-drum/Waveguide-delay-3;
#X connect 138 1 144 0;
#X connect 144 0 145 0;
#X msg 450 630 5;
#X obj 450 650 s \$0-waveguide-drum/Waveguide-delay-4;
#X connect 52 0 146 0;
#X connect 146 0 147 0;
#X obj 866 630 r \$0-waveguide-drum/Waveguide-delay-4;
#X msg 866 650 /waveguide-drum/Waveguide-delay-4 \$1;
#X connect 148 0 149 0;
#X connect 149 0 53 0;
#X obj 1282 630 route /waveguide-drum/Waveguide-delay-4;
#X obj 1282 650 s \$0-waveguide-drum/Waveguide-delay-4;
#X connect 144 1 150 0;
#X connect 150 0 151 0;
#X msg 450 670 1;
#X obj 450 690 s \$0-waveguide-drum/Waveguide-delay-SCALE-ALL;
#X connect 52 0 152 0;
#X connect 152 0 153 0;
#X obj 866 670 r \$0-waveguide-drum/Waveguide-delay-SCALE-ALL;
#X msg 866 690 /waveguide-drum/Waveguide-delay-SCALE-ALL \$1;
#X connect 154 0 155 0;
#X connect 155 0 53 0;
#X obj 1282 670 route /waveguide-drum/Waveguide-delay-SCALE-ALL;
#X obj 1282 690 s \$0-waveguide-drum/Waveguide-delay-SCALE-ALL;
#X connect 150 1 156 0;
#X connect 156 0 157 0;
#X msg 450 710 1;
#X obj 450 730 s \$0-waveguide-drum/Waveguide-impedance-SCALE-ALL;
#X connect 52 0 158 0;
#X connect 158 0 159 0;
#X obj 866 710 r \$0-waveguide-drum/Waveguide-impedance-SCALE-ALL;
#X msg 866 730 /waveguide-drum/Waveguide-impedance-SCALE-ALL \$1;
#X connect 160 0 161 0;
#X connect 161 0 53 0;
#X obj 1282 710 route /waveguide-drum/Waveguide-impedance-SCALE-ALL;
#X obj 1282 730 s \$0-waveguide-drum/Waveguide-impedance-SCALE-ALL;
#X connect 156 1 162 0;
#X connect 162 0 163 0;
#X msg 450 750 0.3;
#X obj 450 770 s \$0-waveguide-drum/Z-Volume;
#X connect 52 0 164 0;
#X connect 164 0 165 0;
#X obj 866 750 r \$0-waveguide-drum/Z-Volume;
#X msg 866 770 /waveguide-drum/Z-Volume \$1;
#X connect 166 0 167 0;
#X connect 167 0 53 0;
#X obj 1282 750 route /waveguide-drum/Z-Volume;
#X obj 1282 770 s \$0-waveguide-drum/Z-Volume;
#X connect 162 1 168 0;
#X connect 168 0 169 0;
#X coords 0 -1 1 1 235 560 1 0 0;
#X text 0 580 Generated Thu Mar  7 06:27:01 2013 by faust2pd v2.5. See http://faust.grame.fr and http://pure-lang.googlecode.com.;
