#N canvas 0 0 450 300 10;
#X obj 70 330 inlet~;
#X obj 130 330 inlet~;
#X obj 10 330 inlet;
#X obj 190 330 r \$0-read;
#X obj 190 360 faust-control \$0;
#X obj 190 390 s \$0-write;
#X obj 10 390 r \$0-in;
#X obj 10 420 wiggle_chain_two_masses~;
#X obj 10 450 s \$0-out;
#X obj 70 480 outlet~;
#X obj 130 480 outlet~;
#X obj 190 480 outlet~;
#X obj 250 480 outlet~;
#X obj 10 480 outlet;
#X connect 2 0 4 0;
#X connect 3 0 4 0;
#X connect 4 0 5 0;
#X connect 7 0 8 0;
#X connect 2 0 13 0;
#X connect 6 0 7 0;
#X connect 0 0 7 1;
#X connect 1 0 7 2;
#X connect 7 1 9 0;
#X connect 7 2 10 0;
#X connect 7 3 11 0;
#X connect 7 4 12 0;
#X obj 10 30 hsl 128 15 0 5 0 0 \$0-wiggle-chain-two-masses/l1-Link-damping \$0-wiggle-chain-two-masses/l1-Link-damping l1-Link-damping -2 -6 0 10 -262144 -1 -1 0 1;
#X obj 160 30 nbx 5 14 0 5 0 0 \$0-wiggle-chain-two-masses/l1-Link-damping \$0-wiggle-chain-two-masses/l1-Link-damping empty 0 -6 0 10 -262144 -1 -1 256;
#X obj 10 60 hsl 128 15 0 400 0 0 \$0-wiggle-chain-two-masses/l1-Link-stiffness \$0-wiggle-chain-two-masses/l1-Link-stiffness l1-Link-stiffness -2 -6 0 10 -262144 -1 -1 0 1;
#X obj 160 60 nbx 5 14 0 400 0 0 \$0-wiggle-chain-two-masses/l1-Link-stiffness \$0-wiggle-chain-two-masses/l1-Link-stiffness empty 0 -6 0 10 -262144 -1 -1 256;
#X obj 10 90 hsl 128 15 0 5 0 0 \$0-wiggle-chain-two-masses/l2-Link-damping \$0-wiggle-chain-two-masses/l2-Link-damping l2-Link-damping -2 -6 0 10 -262144 -1 -1 0 1;
#X obj 160 90 nbx 5 14 0 5 0 0 \$0-wiggle-chain-two-masses/l2-Link-damping \$0-wiggle-chain-two-masses/l2-Link-damping empty 0 -6 0 10 -262144 -1 -1 256;
#X obj 10 120 hsl 128 15 0 400 0 0 \$0-wiggle-chain-two-masses/l2-Link-stiffness \$0-wiggle-chain-two-masses/l2-Link-stiffness l2-Link-stiffness -2 -6 0 10 -262144 -1 -1 0 1;
#X obj 160 120 nbx 5 14 0 400 0 0 \$0-wiggle-chain-two-masses/l2-Link-stiffness \$0-wiggle-chain-two-masses/l2-Link-stiffness empty 0 -6 0 10 -262144 -1 -1 256;
#X obj 10 150 hsl 128 15 0 5 0 0 \$0-wiggle-chain-two-masses/m1-Mass-Damping \$0-wiggle-chain-two-masses/m1-Mass-Damping m1-Mass-Damping -2 -6 0 10 -262144 -1 -1 0 1;
#X obj 160 150 nbx 5 14 0 5 0 0 \$0-wiggle-chain-two-masses/m1-Mass-Damping \$0-wiggle-chain-two-masses/m1-Mass-Damping empty 0 -6 0 10 -262144 -1 -1 256;
#X obj 10 180 hsl 128 15 0.02 2.5 0 0 \$0-wiggle-chain-two-masses/m1-Mass \$0-wiggle-chain-two-masses/m1-Mass m1-Mass -2 -6 0 10 -262144 -1 -1 0 1;
#X obj 160 180 nbx 5 14 0.02 2.5 0 0 \$0-wiggle-chain-two-masses/m1-Mass \$0-wiggle-chain-two-masses/m1-Mass empty 0 -6 0 10 -262144 -1 -1 256;
#X obj 10 210 hsl 128 15 0 5 0 0 \$0-wiggle-chain-two-masses/m2-Mass-Damping \$0-wiggle-chain-two-masses/m2-Mass-Damping m2-Mass-Damping -2 -6 0 10 -262144 -1 -1 0 1;
#X obj 160 210 nbx 5 14 0 5 0 0 \$0-wiggle-chain-two-masses/m2-Mass-Damping \$0-wiggle-chain-two-masses/m2-Mass-Damping empty 0 -6 0 10 -262144 -1 -1 256;
#X obj 10 240 hsl 128 15 0.02 2.5 0 0 \$0-wiggle-chain-two-masses/m2-Mass \$0-wiggle-chain-two-masses/m2-Mass m2-Mass -2 -6 0 10 -262144 -1 -1 0 1;
#X obj 160 240 nbx 5 14 0.02 2.5 0 0 \$0-wiggle-chain-two-masses/m2-Mass \$0-wiggle-chain-two-masses/m2-Mass empty 0 -6 0 10 -262144 -1 -1 256;
#X obj 197 3 bng 15 250 50 1 \$0-init \$0-ignore empty 0 -6 0 10 -262144 -1 -1;
#X obj 217 3 tgl 15 1 \$0-active \$0-active empty 0 -6 0 10 -262144 -1 -1 1 1;
#X obj 450 10 r \$0-init;
#X obj 842 10 s \$0-in;
#X obj 1038 10 s \$0-read;
#X obj 1234 10 r \$0-write;
#X msg 450 30 1;
#X obj 450 50 s \$0-active;
#X connect 36 0 37 0;
#X obj 842 30 r \$0-active;
#X msg 842 50 active \$1;
#X connect 38 0 39 0;
#X connect 39 0 33 0;
#X obj 1234 30 route active;
#X obj 1234 50 s \$0-active;
#X connect 35 0 40 0;
#X connect 40 0 41 0;
#X msg 450 70 0.1;
#X obj 450 90 s \$0-wiggle-chain-two-masses/l1-Link-damping;
#X connect 32 0 42 0;
#X connect 42 0 43 0;
#X obj 842 70 r \$0-wiggle-chain-two-masses/l1-Link-damping;
#X msg 842 90 /wiggle-chain-two-masses/l1-Link-damping \$1;
#X connect 44 0 45 0;
#X connect 45 0 33 0;
#X obj 1234 70 route /wiggle-chain-two-masses/l1-Link-damping;
#X obj 1234 90 s \$0-wiggle-chain-two-masses/l1-Link-damping;
#X connect 40 1 46 0;
#X connect 46 0 47 0;
#X msg 450 110 100;
#X obj 450 130 s \$0-wiggle-chain-two-masses/l1-Link-stiffness;
#X connect 32 0 48 0;
#X connect 48 0 49 0;
#X obj 842 110 r \$0-wiggle-chain-two-masses/l1-Link-stiffness;
#X msg 842 130 /wiggle-chain-two-masses/l1-Link-stiffness \$1;
#X connect 50 0 51 0;
#X connect 51 0 33 0;
#X obj 1234 110 route /wiggle-chain-two-masses/l1-Link-stiffness;
#X obj 1234 130 s \$0-wiggle-chain-two-masses/l1-Link-stiffness;
#X connect 46 1 52 0;
#X connect 52 0 53 0;
#X msg 450 150 0.1;
#X obj 450 170 s \$0-wiggle-chain-two-masses/l2-Link-damping;
#X connect 32 0 54 0;
#X connect 54 0 55 0;
#X obj 842 150 r \$0-wiggle-chain-two-masses/l2-Link-damping;
#X msg 842 170 /wiggle-chain-two-masses/l2-Link-damping \$1;
#X connect 56 0 57 0;
#X connect 57 0 33 0;
#X obj 1234 150 route /wiggle-chain-two-masses/l2-Link-damping;
#X obj 1234 170 s \$0-wiggle-chain-two-masses/l2-Link-damping;
#X connect 52 1 58 0;
#X connect 58 0 59 0;
#X msg 450 190 100;
#X obj 450 210 s \$0-wiggle-chain-two-masses/l2-Link-stiffness;
#X connect 32 0 60 0;
#X connect 60 0 61 0;
#X obj 842 190 r \$0-wiggle-chain-two-masses/l2-Link-stiffness;
#X msg 842 210 /wiggle-chain-two-masses/l2-Link-stiffness \$1;
#X connect 62 0 63 0;
#X connect 63 0 33 0;
#X obj 1234 190 route /wiggle-chain-two-masses/l2-Link-stiffness;
#X obj 1234 210 s \$0-wiggle-chain-two-masses/l2-Link-stiffness;
#X connect 58 1 64 0;
#X connect 64 0 65 0;
#X msg 450 230 0.1;
#X obj 450 250 s \$0-wiggle-chain-two-masses/m1-Mass-Damping;
#X connect 32 0 66 0;
#X connect 66 0 67 0;
#X obj 842 230 r \$0-wiggle-chain-two-masses/m1-Mass-Damping;
#X msg 842 250 /wiggle-chain-two-masses/m1-Mass-Damping \$1;
#X connect 68 0 69 0;
#X connect 69 0 33 0;
#X obj 1234 230 route /wiggle-chain-two-masses/m1-Mass-Damping;
#X obj 1234 250 s \$0-wiggle-chain-two-masses/m1-Mass-Damping;
#X connect 64 1 70 0;
#X connect 70 0 71 0;
#X msg 450 270 0.1;
#X obj 450 290 s \$0-wiggle-chain-two-masses/m1-Mass;
#X connect 32 0 72 0;
#X connect 72 0 73 0;
#X obj 842 270 r \$0-wiggle-chain-two-masses/m1-Mass;
#X msg 842 290 /wiggle-chain-two-masses/m1-Mass \$1;
#X connect 74 0 75 0;
#X connect 75 0 33 0;
#X obj 1234 270 route /wiggle-chain-two-masses/m1-Mass;
#X obj 1234 290 s \$0-wiggle-chain-two-masses/m1-Mass;
#X connect 70 1 76 0;
#X connect 76 0 77 0;
#X msg 450 310 0.1;
#X obj 450 330 s \$0-wiggle-chain-two-masses/m2-Mass-Damping;
#X connect 32 0 78 0;
#X connect 78 0 79 0;
#X obj 842 310 r \$0-wiggle-chain-two-masses/m2-Mass-Damping;
#X msg 842 330 /wiggle-chain-two-masses/m2-Mass-Damping \$1;
#X connect 80 0 81 0;
#X connect 81 0 33 0;
#X obj 1234 310 route /wiggle-chain-two-masses/m2-Mass-Damping;
#X obj 1234 330 s \$0-wiggle-chain-two-masses/m2-Mass-Damping;
#X connect 76 1 82 0;
#X connect 82 0 83 0;
#X msg 450 350 0.1;
#X obj 450 370 s \$0-wiggle-chain-two-masses/m2-Mass;
#X connect 32 0 84 0;
#X connect 84 0 85 0;
#X obj 842 350 r \$0-wiggle-chain-two-masses/m2-Mass;
#X msg 842 370 /wiggle-chain-two-masses/m2-Mass \$1;
#X connect 86 0 87 0;
#X connect 87 0 33 0;
#X obj 1234 350 route /wiggle-chain-two-masses/m2-Mass;
#X obj 1234 370 s \$0-wiggle-chain-two-masses/m2-Mass;
#X connect 82 1 88 0;
#X connect 88 0 89 0;
#X coords 0 -1 1 1 235 260 1 0 0;
#X text 0 280 Generated Thu Mar  7 06:27:02 2013 by faust2pd v2.5. See http://faust.grame.fr and http://pure-lang.googlecode.com.;
