#N canvas 667 353 618 476 10;
#X obj 287 158 hsl 128 15 -50 50 0 0 empty empty empty -2 -8 0 10 -262144
-1 -1 0 1;
#X floatatom 453 235 5 0 0 0 - - -;
#N canvas 58 176 158 175 make-smooth-audio-signal~ 0;
#X obj 19 13 inlet;
#X obj 19 37 * 0.001;
#X obj 19 86 line~;
#X msg 19 64 \$1 20;
#X obj 79 66 outlet;
#X obj 19 135 outlet~;
#X obj 19 110 lp2~ 10 0.707 200;
#X connect 0 0 1 0;
#X connect 1 0 3 0;
#X connect 1 0 4 0;
#X connect 2 0 6 0;
#X connect 3 0 2 0;
#X connect 6 0 5 0;
#X restore 284 178 pd make-smooth-audio-signal~;
#X text 446 208 Finger position;
#X text 282 139 Position of finger interacting with resonator;
#X obj 359 434 dac~;
#X obj 171 230 guiro;
#X floatatom 156 137 5 0 0 0 - - -;
#X floatatom 181 137 5 0 0 0 - - -;
#X floatatom 208 137 5 0 0 0 - - -;
#X obj 115 140 / 127;
#X floatatom 115 215 5 0 0 0 - - -;
#X obj 115 165 * 100;
#X obj 115 190 - 50;
#X obj 140 108 ctlin 1;
#X connect 0 0 2 0;
#X connect 2 0 6 1;
#X connect 2 1 1 0;
#X connect 6 3 5 0;
#X connect 6 4 5 1;
#X connect 10 0 12 0;
#X connect 12 0 13 0;
#X connect 13 0 11 0;
#X connect 13 0 0 0;
#X connect 14 0 7 0;
#X connect 14 0 10 0;
#X connect 14 1 8 0;
#X coords 0 476 1 475 235 170 0;
