#N canvas 104 96 433 425 10;
#X obj 9 106 touch_a_resonator~;
#X obj 105 152 dac~;
#X obj 117 26 hsl 128 15 -50 50 0 0 empty empty empty -2 -8 0 10 -262144
-1 -1 12700 1;
#X floatatom 279 68 5 0 0 0 - - -;
#N canvas 0 22 158 175 make-smooth-audio-signal~ 0;
#X obj 19 13 inlet;
#X obj 19 37 * 0.001;
#X obj 19 86 line~;
#X msg 19 64 \$1 20;
#X obj 79 66 outlet;
#X obj 19 135 outlet~;
#X obj 19 110 lp2~ 10 0.707 200;
#X connect 0 0 1 0;
#X connect 1 0 3 0;
#X connect 1 0 4 0;
#X connect 2 0 6 0;
#X connect 3 0 2 0;
#X connect 6 0 5 0;
#X restore 114 46 pd make-smooth-audio-signal~;
#X text 67 61 dev1;
#X text 70 70 pos;
#X text 310 57 Finger position;
#X text 312 69 m;
#X obj 11 81 r \$0-in;
#X text 16 178 Generated Fri Apr 13 12:55:38 2012 by faust2pd v2.3.
See http://faust.grame.fr and http://pure-lang.googlecode.com.;
#X text 112 7 Position of finger interacting with resonator;
#X text 61 125 aLeft;
#X text 123 121 aRight;
#X obj 15 -172 hsl 128 15 0.0004 0.008 0 0 \$0-touch-a-resonator/Mass-of-Resonator
\$0-touch-a-resonator/Mass-of-Resonator Mass-of-Resonator -2 -6 0 10
-262144 -1 -1 2900 1;
#X obj 165 -172 nbx 5 14 0.0004 0.008 0 0 \$0-touch-a-resonator/Mass-of-Resonator
\$0-touch-a-resonator/Mass-of-Resonator empty 0 -6 0 10 -262144 -1
-1 0.00213543 256;
#X obj 15 -142 hsl 128 15 400 8000 0 0 \$0-touch-a-resonator/Stiffness-of-Resonator
\$0-touch-a-resonator/Stiffness-of-Resonator Stiffness-of-Resonator
-2 -6 0 10 -262144 -1 -1 9700 1;
#X obj 165 -142 nbx 5 14 400 8000 0 0 \$0-touch-a-resonator/Stiffness-of-Resonator
\$0-touch-a-resonator/Stiffness-of-Resonator empty 0 -6 0 10 -262144
-1 -1 6204.72 256;
#X obj 15 -112 hsl 128 15 0.002 0.1 0 0 \$0-touch-a-resonator/Touch-Interaction-Damping
\$0-touch-a-resonator/Touch-Interaction-Damping Touch-Interaction-Damping
-2 -6 0 10 -262144 -1 -1 0 1;
#X obj 165 -112 nbx 5 14 0.002 0.1 0 0 \$0-touch-a-resonator/Touch-Interaction-Damping
\$0-touch-a-resonator/Touch-Interaction-Damping empty 0 -6 0 10 -262144
-1 -1 0.002 256;
#X obj 15 -82 hsl 128 15 50 500 0 0 \$0-touch-a-resonator/Touch-Interaction-Stiffness
\$0-touch-a-resonator/Touch-Interaction-Stiffness Touch-Interaction-Stiffness
-2 -6 0 10 -262144 -1 -1 9100 1;
#X obj 165 -82 nbx 5 14 50 500 0 0 \$0-touch-a-resonator/Touch-Interaction-Stiffness
\$0-touch-a-resonator/Touch-Interaction-Stiffness empty 0 -6 0 10 -262144
-1 -1 372.441 256;
#X obj 202 -199 bng 15 250 50 1 \$0-init \$0-ignore empty 0 -6 0 10
-262144 -1 -1;
#X obj 222 -199 tgl 15 1 \$0-active \$0-active empty 0 -6 0 10 -262144
-1 -1 1 1;
#X obj 455 -192 r \$0-init;
#X obj 879 -192 s \$0-in;
#X obj 1091 -192 s \$0-read;
#X obj 1303 -192 r \$0-write;
#X msg 455 -172 1;
#X obj 455 -152 s \$0-active;
#X obj 879 -172 r \$0-active;
#X msg 879 -152 active \$1;
#X obj 1303 -172 route active;
#X obj 1303 -152 s \$0-active;
#X msg 455 -132 0.001;
#X obj 455 -112 s \$0-touch-a-resonator/Mass-of-Resonator;
#X obj 879 -132 r \$0-touch-a-resonator/Mass-of-Resonator;
#X msg 879 -112 /touch-a-resonator/Mass-of-Resonator \$1;
#X obj 1303 -132 route /touch-a-resonator/Mass-of-Resonator;
#X obj 1303 -112 s \$0-touch-a-resonator/Mass-of-Resonator;
#X msg 455 -92 4200;
#X obj 455 -72 s \$0-touch-a-resonator/Stiffness-of-Resonator;
#X obj 879 -92 r \$0-touch-a-resonator/Stiffness-of-Resonator;
#X msg 879 -72 /touch-a-resonator/Stiffness-of-Resonator \$1;
#X obj 1303 -92 route /touch-a-resonator/Stiffness-of-Resonator;
#X obj 1303 -72 s \$0-touch-a-resonator/Stiffness-of-Resonator;
#X msg 455 -52 0.03;
#X obj 455 -32 s \$0-touch-a-resonator/Touch-Interaction-Damping;
#X obj 879 -52 r \$0-touch-a-resonator/Touch-Interaction-Damping;
#X msg 879 -32 /touch-a-resonator/Touch-Interaction-Damping \$1;
#X obj 1303 -52 route /touch-a-resonator/Touch-Interaction-Damping
;
#X obj 1303 -32 s \$0-touch-a-resonator/Touch-Interaction-Damping;
#X msg 455 -12 100;
#X obj 455 8 s \$0-touch-a-resonator/Touch-Interaction-Stiffness;
#X obj 879 -12 r \$0-touch-a-resonator/Touch-Interaction-Stiffness
;
#X msg 879 8 /touch-a-resonator/Touch-Interaction-Stiffness \$1;
#X obj 1303 -12 route /touch-a-resonator/Touch-Interaction-Stiffness
;
#X obj 1303 8 s \$0-touch-a-resonator/Touch-Interaction-Stiffness;
#X connect 0 3 1 0;
#X connect 0 4 1 1;
#X connect 2 0 4 0;
#X connect 4 0 0 1;
#X connect 4 1 3 0;
#X connect 9 0 0 0;
#X connect 24 0 34 0;
#X connect 24 0 40 0;
#X connect 24 0 46 0;
#X connect 24 0 52 0;
#X connect 27 0 32 0;
#X connect 28 0 29 0;
#X connect 30 0 31 0;
#X connect 31 0 25 0;
#X connect 32 0 33 0;
#X connect 32 1 38 0;
#X connect 34 0 35 0;
#X connect 36 0 37 0;
#X connect 37 0 25 0;
#X connect 38 0 39 0;
#X connect 38 1 44 0;
#X connect 40 0 41 0;
#X connect 42 0 43 0;
#X connect 43 0 25 0;
#X connect 44 0 45 0;
#X connect 44 1 50 0;
#X connect 46 0 47 0;
#X connect 48 0 49 0;
#X connect 49 0 25 0;
#X connect 50 0 51 0;
#X connect 50 1 56 0;
#X connect 52 0 53 0;
#X connect 54 0 55 0;
#X connect 55 0 25 0;
#X connect 56 0 57 0;
